{
.appVersion = "1339";
DisplayStrings = (
"«z",
"«",
"»",
"/guilsinglleft",
"/guilsinglright",
"/minute",
"Naoki/space Hayashi",
z,
"×",
"±",
"/bullet X",
"/bullet Naoki\012",
"ª",
"·",
"Engine?!",
"÷",
"/divisionslash",
"/foursuperior ²³",
"/replacementCharacter",
"/tilde",
"ooø",
"¹",
"³",
"²",
"º",
"{",
"}",
"0~3",
G,
"¯",
"/zerowidthspace",
"x-/endash Xp",
"¦",
"/quoteleft/quoteright",
"/commaturnedmod",
"/apostrophemod",
"1",
"1¼",
"¼",
"4",
"2",
a,
"/thinspace",
"/trademark",
"½",
"X¾",
"¬",
"¾",
"°C",
"./ellipsis",
"OØ",
"OØ",
"OØ",
"ø",
"/endash",
"/emdash",
"/minus",
"/fraction",
"/fraction/foursuperior",
"~",
"/downArrow",
"/ellipsis",
"OÒ",
"fir/s_t/space conta/c_t",
"/foursuperior",
"o/f_f icli/space/space e/space",
"o/f_f icekil/space/space/space",
"/f_f_i",
"/f_f_i",
"/f_i",
"/f_f_l",
"/f_f_l",
"/f_l",
"/f_l",
"/f_f_i",
"/f_i",
"/f_f_i",
"/f_i",
"/f_i",
"/f_l",
"/f_f_i",
"/f_f_l",
"perfe/c_t \012office",
"/f_f_i",
"/f_f_l",
"/micro.ss01",
"/micro.ss01",
"/slashlongcomb",
"",
"0",
"/telephone",
A,
B,
C,
"/A.full/B.full/C.full/D.full/E.full/F.full/G.full/H.full/I.full/J.full/K.full/L.full/M.full/N.full/O.full/P.full/Q.full/R.full/S.full/T.full/U.full/V.full/W.full/X.full/Y.full/Z.full/a.full/b.full/c.full/d.full/e.full/f.full/g.full/h.full/i.full/j.full/k.full/l.full/m.full/n.full/o.full/p.full/q.full/r.full/s.full/t.full/u.full/v.full/w.full/x.full/y.full/z.full/zero.full/one.full/two.full/three.full/four.full/five.full/six.full/seven.full/eight.full/nine.full/ampersand.full/asterisk.full/at.full/colon.full/comma.full/numbersign.full/percent.full/period.full/semicolon.full/hyphen.full/quotedblleft.full/quotedblright.full/quoteleft.full/quoteright.full/cent.full/dollar.full/sterling.full/yen.full/equal.full/multiply.full/divide.full/plusminus.full/plus.full",
"A/A.full",
"/zero.full",
"*/asterisk.full",
"/one.full",
"/zero.full/one.full/two.full/three.full/four.full/five.full/six.full/seven.full/eight.full/nine.full",
"/two.full",
"/three.full",

glyphs = (
{
glyphname = .notdef;
lastChange = "2020-06-21 16:35:09 +0000";
layers = (
{
hints = (
{
horizontal = 1;
place = "{-120, 50}";
type = Stem;
},
{
horizontal = 1;
place = "{830, 50}";
type = Stem;
},
{
place = "{100, 50}";
type = Stem;
},
{
place = "{850, 50}";
type = Stem;
},
{
horizontal = 1;
place = "{789, 91}";
type = Stem;
}
);
layerId = "69412919-AED9-45FB-ADD8-4F440013F7DA";
paths = (
{
closed = 1;
nodes = (
"875 -70 LINE",
"875 830 LINE",
"125 830 LINE",
"125 -70 LINE"
);
},
{
closed = 1;
nodes = (
"873 -33 LINE",
"161 822 LINE",
"126 793 LINE",
"838 -62 LINE"
);
},
{
closed = 1;
nodes = (
"873 793 LINE",
"838 822 LINE",
"126 -33 LINE",
"161 -62 LINE"
);
},
{
closed = 1;
nodes = (
"170 785 LINE",
"829 785 LINE",
"829 -25 LINE",
"170 -25 LINE"
);
}
);
vertWidth = 1000;
width = 1000;
},
{
layerId = "3FC96813-E7C5-45AC-9F0B-5DBEB42CEC4B";
paths = (
{
closed = 1;
nodes = (
"875 -70 LINE",
"875 830 LINE",
"125 830 LINE",
"125 -70 LINE"
);
},
{
closed = 1;
nodes = (
"873 -33 LINE",
"161 822 LINE",
"126 793 LINE",
"838 -62 LINE"
);
},
{
closed = 1;
nodes = (
"873 793 LINE",
"838 822 LINE",
"126 -33 LINE",
"161 -62 LINE"
);
},
{
closed = 1;
nodes = (
"170 785 LINE",
"829 785 LINE",
"829 -25 LINE",
"170 -25 LINE"
);
}
);
width = 1000;
},
{
hints = (
{
horizontal = 1;
place = "{-24, 10}";
type = Stem;
},
{
horizontal = 1;
place = "{166, 10}";
type = Stem;
},
{
place = "{20, 10}";
type = Stem;
},
{
place = "{170, 10}";
type = Stem;
},
{
horizontal = 1;
place = "{157.8, 18.2}";
type = Stem;
}
);
layerId = "17F3AB05-7131-4B64-9C58-864369A22196";
paths = (
{
closed = 1;
nodes = (
"875 -70 LINE",
"875 830 LINE",
"125 830 LINE",
"125 -70 LINE"
);
},
{
closed = 1;
nodes = (
"873 -33 LINE",
"161 822 LINE",
"126 793 LINE",
"838 -62 LINE"
);
},
{
closed = 1;
nodes = (
"873 793 LINE",
"838 822 LINE",
"126 -33 LINE",
"161 -62 LINE"
);
},
{
closed = 1;
nodes = (
"170 785 LINE",
"829 785 LINE",
"829 -25 LINE",
"170 -25 LINE"
);
}
);
vertWidth = 1000;
width = 1000;
}
);
note = .notdef;
},
{
glyphname = A;
lastChange = "2020-06-21 16:35:09 +0000";
layers = (
{
anchors = (
{
name = bottom;
position = "{381, 0}";
},
{
name = ogonek;
position = "{686, 10}";
},
{
name = top;
position = "{381, 726}";
}
);
layerId = "69412919-AED9-45FB-ADD8-4F440013F7DA";
paths = (
{
closed = 1;
nodes = (
"742 1 LINE",
"748 1 OFFCURVE",
"749 9 OFFCURVE",
"749 15 CURVE",
"749 22 OFFCURVE",
"748 30 OFFCURVE",
"742 30 CURVE",
"701 30 OFFCURVE",
"654 44 OFFCURVE",
"628 114 CURVE",
"604 178 OFFCURVE",
"414 726 OFFCURVE",
"411 734 CURVE SMOOTH",
"408 742 OFFCURVE",
"399 745 OFFCURVE",
"392 743 CURVE SMOOTH",
"384 741 OFFCURVE",
"351 730 OFFCURVE",
"351 730 CURVE",
"351 730 OFFCURVE",
"129 139 OFFCURVE",
"120 118 CURVE",
"93 48 OFFCURVE",
"44 28 OFFCURVE",
"12 28 CURVE",
"6 28 OFFCURVE",
"5 23 OFFCURVE",
"5 14 CURVE",
"5 5 OFFCURVE",
"6 0 OFFCURVE",
"12 0 CURVE",
"258 0 LINE",
"263 0 OFFCURVE",
"264 7 OFFCURVE",
"264 14 CURVE",
"264 21 OFFCURVE",
"264 28 OFFCURVE",
"258 28 CURVE",
"197 28 OFFCURVE",
"141 46 OFFCURVE",
"172 134 CURVE",
"199 216 OFFCURVE",
"359 650 OFFCURVE",
"359 650 CURVE",
"359 650 OFFCURVE",
"541 123 OFFCURVE",
"548 104 CURVE",
"569 40 OFFCURVE",
"503 30 OFFCURVE",
"458 30 CURVE",
"453 30 OFFCURVE",
"451 25 OFFCURVE",
"451 15 CURVE",
"451 6 OFFCURVE",
"453 1 OFFCURVE",
"458 1 CURVE"
);
},
{
closed = 1;
nodes = (
"534 262 LINE",
"520 300 LINE",
"208 300 LINE",
"195 262 LINE"
);
}
);
width = 762;
},
{
anchors = (
{
name = bottom;
position = "{410, 0}";
},
{
name = ogonek;
position = "{737, 10}";
},
{
name = top;
position = "{410, 744}";
}
);
layerId = "3FC96813-E7C5-45AC-9F0B-5DBEB42CEC4B";
paths = (
{
closed = 1;
nodes = (
"801 0 LINE",
"806 0 OFFCURVE",
"807 6 OFFCURVE",
"807 10 CURVE",
"807 15 OFFCURVE",
"807 21 OFFCURVE",
"801 21 CURVE",
"725 21 OFFCURVE",
"719 27 OFFCURVE",
"684 115 CURVE",
"653 195 OFFCURVE",
"469 735 OFFCURVE",
"466 744 CURVE SMOOTH",
"463 754 OFFCURVE",
"457 757 OFFCURVE",
"447 754 CURVE SMOOTH",
"437 751 OFFCURVE",
"373 732 OFFCURVE",
"373 732 CURVE",
"373 732 OFFCURVE",
"158 161 OFFCURVE",
"136 105 CURVE",
"111 40 OFFCURVE",
"66 21 OFFCURVE",
"23 21 CURVE",
"18 21 OFFCURVE",
"16 17 OFFCURVE",
"16 10 CURVE",
"16 4 OFFCURVE",
"17 0 OFFCURVE",
"23 0 CURVE",
"281 0 LINE",
"287 0 OFFCURVE",
"288 6 OFFCURVE",
"288 10 CURVE",
"288 15 OFFCURVE",
"287 21 OFFCURVE",
"281 21 CURVE",
"222 22 OFFCURVE",
"162 37 OFFCURVE",
"183 104 CURVE",
"203 172 OFFCURVE",
"353 573 OFFCURVE",
"353 573 CURVE",
"353 573 OFFCURVE",
"484 191 OFFCURVE",
"511 114 CURVE",
"534 50 OFFCURVE",
"544 26 OFFCURVE",
"441 21 CURVE",
"436 21 OFFCURVE",
"434 17 OFFCURVE",
"434 10 CURVE",
"434 4 OFFCURVE",
"435 0 OFFCURVE",
"441 0 CURVE"
);
},
{
closed = 1;
nodes = (
"536 247 LINE",
"526 282 LINE",
"221 282 LINE",
"211 247 LINE"
);
}
);
width = 819;
},
{
anchors = (
{
name = bottom;
position = "{404, 0}";
},
{
name = ogonek;
position = "{727, 10}";
},
{
name = top;
position = "{404, 740}";
}
);
layerId = "17F3AB05-7131-4B64-9C58-864369A22196";
paths = (
{
closed = 1;
nodes = (
"789 0 LINE",
"794 0 OFFCURVE",
"795 7 OFFCURVE",
"795 11 CURVE",
"795 16 OFFCURVE",
"795 23 OFFCURVE",
"789 23 CURVE",
"720 23 OFFCURVE",
"706 30 OFFCURVE",
"673 115 CURVE",
"643 192 OFFCURVE",
"458 733 OFFCURVE",
"455 742 CURVE SMOOTH",
"452 752 OFFCURVE",
"445 755 OFFCURVE",
"436 752 CURVE SMOOTH",
"426 749 OFFCURVE",
"369 732 OFFCURVE",
"369 732 CURVE",
"369 732 OFFCURVE",
"152 157 OFFCURVE",
"133 108 CURVE",
"107 42 OFFCURVE",
"62 22 OFFCURVE",
"21 22 CURVE",
"16 22 OFFCURVE",
"14 18 OFFCURVE",
"14 11 CURVE",
"14 4 OFFCURVE",
"15 0 OFFCURVE",
"21 0 CURVE",
"276 0 LINE",
"282 0 OFFCURVE",
"283 6 OFFCURVE",
"283 11 CURVE",
"283 16 OFFCURVE",
"282 22 OFFCURVE",
"276 22 CURVE",
"217 23 OFFCURVE",
"158 39 OFFCURVE",
"181 110 CURVE",
"202 181 OFFCURVE",
"354 588 OFFCURVE",
"354 588 CURVE",
"354 588 OFFCURVE",
"495 177 OFFCURVE",
"518 112 CURVE",
"541 48 OFFCURVE",
"536 27 OFFCURVE",
"444 23 CURVE",
"439 23 OFFCURVE",
"437 19 OFFCURVE",
"437 11 CURVE",
"437 4 OFFCURVE",
"439 0 OFFCURVE",
"444 0 CURVE"
);
},
{
closed = 1;
nodes = (
"536 250 LINE",
"525 286 LINE",
"218 286 LINE",
"208 250 LINE"
);
}
);
width = 808;
}
);
unicode = 0041;
},
{
glyphname = AE;
lastChange = "2020-06-21 16:35:09 +0000";
layers = (
{
layerId = "69412919-AED9-45FB-ADD8-4F440013F7DA";
paths = (
{
closed = 1;
nodes = (
"1085 -1 LINE",
"1105 56 OFFCURVE",
"1124 98 OFFCURVE",
"1145 160 CURVE SMOOTH",
"1147 166 OFFCURVE",
"1144 173 OFFCURVE",
"1137 176 CURVE SMOOTH",
"1130 179 OFFCURVE",
"1124 179 OFFCURVE",
"1120 174 CURVE SMOOTH",
"1067 108 OFFCURVE",
"1010 40 OFFCURVE",
"878 29 CURVE SMOOTH",
"853 27 OFFCURVE",
"820 28 OFFCURVE",
"798 29 CURVE SMOOTH",
"745 31 OFFCURVE",
"712 41 OFFCURVE",
"712 90 CURVE SMOOTH",
"712 634 LINE SMOOTH",
"712 694 OFFCURVE",
"756 695 OFFCURVE",
"823 695 CURVE SMOOTH",
"848 695 LINE SMOOTH",
"950 695 OFFCURVE",
"1035 655 OFFCURVE",
"1091 599 CURVE SMOOTH",
"1095 595 OFFCURVE",
"1101 593 OFFCURVE",
"1109 597 CURVE SMOOTH",
"1115 600 OFFCURVE",
"1119 604 OFFCURVE",
"1116 612 CURVE SMOOTH",
"1112 623 OFFCURVE",
"1054 725 OFFCURVE",
"1054 725 CURVE",
"632 725 LINE",
"632 90 LINE SMOOTH",
"632 44 OFFCURVE",
"605 28 OFFCURVE",
"546 28 CURVE SMOOTH",
"530 28 LINE SMOOTH",
"525 28 OFFCURVE",
"523 23 OFFCURVE",
"523 14 CURVE SMOOTH",
"523 5 OFFCURVE",
"524 -1 OFFCURVE",
"530 -1 CURVE SMOOTH"
);
},
{
closed = 1;
nodes = (
"365 0 LINE SMOOTH",
"370 0 OFFCURVE",
"371 8 OFFCURVE",
"371 15 CURVE SMOOTH",
"371 21 OFFCURVE",
"371 28 OFFCURVE",
"365 28 CURVE SMOOTH",
"304 28 OFFCURVE",
"242 56 OFFCURVE",
"290 133 CURVE SMOOTH",
"335 205 OFFCURVE",
"680 725 OFFCURVE",
"680 725 CURVE",
"532 725 LINE SMOOTH",
"526 725 OFFCURVE",
"524 720 OFFCURVE",
"524 711 CURVE SMOOTH",
"524 701 OFFCURVE",
"525 696 OFFCURVE",
"532 696 CURVE SMOOTH",
"547 696 LINE SMOOTH",
"591 696 OFFCURVE",
"605 672 OFFCURVE",
"580 634 CURVE SMOOTH",
"556 597 OFFCURVE",
"242 137 OFFCURVE",
"228 118 CURVE SMOOTH",
"172 42 OFFCURVE",
"152 28 OFFCURVE",
"120 28 CURVE SMOOTH",
"114 28 OFFCURVE",
"112 23 OFFCURVE",
"112 15 CURVE SMOOTH",
"112 5 OFFCURVE",
"114 0 OFFCURVE",
"120 0 CURVE SMOOTH"
);
},
{
closed = 1;
nodes = (
"678 261 LINE",
"678 299 LINE",
"366 299 LINE",
"346 261 LINE"
);
},
{
closed = 1;
nodes = (
"993 252 OFFCURVE",
"998 254 OFFCURVE",
"998 260 CURVE SMOOTH",
"998 489 LINE SMOOTH",
"998 495 OFFCURVE",
"993 496 OFFCURVE",
"984 496 CURVE SMOOTH",
"976 496 OFFCURVE",
"971 495 OFFCURVE",
"971 489 CURVE SMOOTH",
"971 436 OFFCURVE",
"940 393 OFFCURVE",
"882 392 CURVE SMOOTH",
"826 391 OFFCURVE",
"669 392 OFFCURVE",
"669 392 CURVE",
"669 357 LINE",
"669 357 OFFCURVE",
"826 358 OFFCURVE",
"882 357 CURVE SMOOTH",
"940 356 OFFCURVE",
"971 313 OFFCURVE",
"971 260 CURVE SMOOTH",
"971 254 OFFCURVE",
"976 252 OFFCURVE",
"984 252 CURVE SMOOTH"
);
}
);
width = 1264;
},
{
layerId = "3FC96813-E7C5-45AC-9F0B-5DBEB42CEC4B";
paths = (
{
closed = 1;
nodes = (
"1102 0 LINE",
"1123 59 OFFCURVE",
"1157 152 OFFCURVE",
"1177 202 CURVE SMOOTH",
"1179 207 OFFCURVE",
"1176 212 OFFCURVE",
"1171 215 CURVE SMOOTH",
"1165 218 OFFCURVE",
"1161 217 OFFCURVE",
"1156 213 CURVE",
"1117 157 OFFCURVE",
"1027 35 OFFCURVE",
"890 30 CURVE SMOOTH",
"864 29 OFFCURVE",
"855 28 OFFCURVE",
"834 30 CURVE SMOOTH",
"779 35 OFFCURVE",
"744 42 OFFCURVE",
"744 93 CURVE SMOOTH",
"744 652 LINE SMOOTH",
"744 712 OFFCURVE",
"788 715 OFFCURVE",
"856 715 CURVE SMOOTH",
"871 715 LINE SMOOTH",
"978 715 OFFCURVE",
"1093 639 OFFCURVE",
"1137 593 CURVE",
"1141 590 OFFCURVE",
"1146 590 OFFCURVE",
"1152 592 CURVE SMOOTH",
"1157 594 OFFCURVE",
"1160 598 OFFCURVE",
"1157 603 CURVE",
"1154 612 OFFCURVE",
"1082 744 OFFCURVE",
"1082 744 CURVE",
"585 744 LINE",
"585 97 LINE SMOOTH",
"585 22 OFFCURVE",
"504 21 OFFCURVE",
"473 21 CURVE SMOOTH",
"463 21 LINE SMOOTH",
"457 21 OFFCURVE",
"455 17 OFFCURVE",
"455 11 CURVE SMOOTH",
"455 4 OFFCURVE",
"457 0 OFFCURVE",
"463 0 CURVE SMOOTH"
);
},
{
closed = 1;
nodes = (
"277 0 LINE SMOOTH",
"282 0 OFFCURVE",
"284 6 OFFCURVE",
"284 11 CURVE SMOOTH",
"284 16 OFFCURVE",
"283 21 OFFCURVE",
"277 21 CURVE SMOOTH",
"217 21 OFFCURVE",
"172 44 OFFCURVE",
"209 98 CURVE SMOOTH",
"249 157 OFFCURVE",
"657 744 OFFCURVE",
"657 744 CURVE",
"498 744 LINE SMOOTH",
"492 744 OFFCURVE",
"490 740 OFFCURVE",
"490 734 CURVE SMOOTH",
"490 727 OFFCURVE",
"492 723 OFFCURVE",
"498 723 CURVE SMOOTH",
"508 723 LINE SMOOTH",
"539 723 OFFCURVE",
"593 724 OFFCURVE",
"557 670 CURVE SMOOTH",
"521 616 OFFCURVE",
"202 154 OFFCURVE",
"163 99 CURVE SMOOTH",
"124 45 OFFCURVE",
"61 21 OFFCURVE",
"18 21 CURVE SMOOTH",
"13 21 OFFCURVE",
"11 17 OFFCURVE",
"11 11 CURVE SMOOTH",
"11 4 OFFCURVE",
"12 0 OFFCURVE",
"18 0 CURVE SMOOTH"
);
},
{
closed = 1;
nodes = (
"661 247 LINE",
"661 282 LINE",
"314 282 LINE",
"291 247 LINE"
);
},
{
closed = 1;
nodes = (
"1002 260 OFFCURVE",
"1006 261 OFFCURVE",
"1006 267 CURVE SMOOTH",
"1006 503 LINE SMOOTH",
"1006 508 OFFCURVE",
"1002 509 OFFCURVE",
"994 509 CURVE SMOOTH",
"987 509 OFFCURVE",
"983 508 OFFCURVE",
"983 503 CURVE SMOOTH",
"983 460 OFFCURVE",
"950 404 OFFCURVE",
"889 403 CURVE SMOOTH",
"832 402 OFFCURVE",
"712 403 OFFCURVE",
"712 403 CURVE",
"712 367 LINE",
"712 367 OFFCURVE",
"832 368 OFFCURVE",
"889 367 CURVE SMOOTH",
"950 366 OFFCURVE",
"983 310 OFFCURVE",
"983 267 CURVE SMOOTH",
"983 261 OFFCURVE",
"987 260 OFFCURVE",
"994 260 CURVE SMOOTH"
);
}
);
width = 1217;
},
{
layerId = "17F3AB05-7131-4B64-9C58-864369A22196";
paths = (
{
closed = 1;
nodes = (
"1099 0 LINE",
"1119 58 OFFCURVE",
"1150 141 OFFCURVE",
"1171 194 CURVE SMOOTH",
"1173 199 OFFCURVE",
"1170 204 OFFCURVE",
"1164 207 CURVE SMOOTH",
"1158 210 OFFCURVE",
"1154 209 OFFCURVE",
"1149 205 CURVE SMOOTH",
"1107 147 OFFCURVE",
"1024 36 OFFCURVE",
"888 30 CURVE SMOOTH",
"862 29 OFFCURVE",
"848 28 OFFCURVE",
"827 30 CURVE SMOOTH",
"772 34 OFFCURVE",
"738 42 OFFCURVE",
"738 92 CURVE SMOOTH",
"738 648 LINE SMOOTH",
"738 708 OFFCURVE",
"782 711 OFFCURVE",
"849 711 CURVE SMOOTH",
"866 711 LINE SMOOTH",
"972 711 OFFCURVE",
"1081 642 OFFCURVE",
"1128 594 CURVE SMOOTH",
"1132 591 OFFCURVE",
"1137 591 OFFCURVE",
"1143 593 CURVE SMOOTH",
"1149 595 OFFCURVE",
"1152 599 OFFCURVE",
"1149 605 CURVE SMOOTH",
"1146 614 OFFCURVE",
"1076 740 OFFCURVE",
"1076 740 CURVE",
"594 740 LINE",
"594 96 LINE SMOOTH",
"594 26 OFFCURVE",
"524 22 OFFCURVE",
"488 22 CURVE SMOOTH",
"476 22 LINE SMOOTH",
"471 22 OFFCURVE",
"469 18 OFFCURVE",
"469 12 CURVE SMOOTH",
"469 4 OFFCURVE",
"470 0 OFFCURVE",
"476 0 CURVE SMOOTH"
);
},
{
closed = 1;
nodes = (
"295 0 LINE SMOOTH",
"300 0 OFFCURVE",
"301 6 OFFCURVE",
"301 12 CURVE SMOOTH",
"301 17 OFFCURVE",
"301 22 OFFCURVE",
"295 22 CURVE SMOOTH",
"234 22 OFFCURVE",
"186 46 OFFCURVE",
"225 105 CURVE SMOOTH",
"266 167 OFFCURVE",
"662 740 OFFCURVE",
"662 740 CURVE",
"505 740 LINE SMOOTH",
"499 740 OFFCURVE",
"497 736 OFFCURVE",
"497 729 CURVE SMOOTH",
"497 722 OFFCURVE",
"499 718 OFFCURVE",
"505 718 CURVE SMOOTH",
"516 718 LINE SMOOTH",
"549 718 OFFCURVE",
"595 714 OFFCURVE",
"562 663 CURVE SMOOTH",
"528 612 OFFCURVE",
"210 151 OFFCURVE",
"176 103 CURVE SMOOTH",
"134 44 OFFCURVE",
"79 22 OFFCURVE",
"38 22 CURVE SMOOTH",
"33 22 OFFCURVE",
"31 18 OFFCURVE",
"31 12 CURVE SMOOTH",
"31 4 OFFCURVE",
"32 0 OFFCURVE",
"38 0 CURVE SMOOTH"
);
},
{
closed = 1;
nodes = (
"664 250 LINE",
"664 285 LINE",
"324 285 LINE",
"302 250 LINE"
);
},
{
closed = 1;
nodes = (
"1000 258 OFFCURVE",
"1004 260 OFFCURVE",
"1004 266 CURVE SMOOTH",
"1004 500 LINE SMOOTH",
"1004 505 OFFCURVE",
"1000 506 OFFCURVE",
"992 506 CURVE SMOOTH",
"985 506 OFFCURVE",
"981 505 OFFCURVE",
"981 500 CURVE SMOOTH",
"981 455 OFFCURVE",
"948 402 OFFCURVE",
"888 401 CURVE SMOOTH",
"831 400 OFFCURVE",
"703 401 OFFCURVE",
"703 401 CURVE",
"703 365 LINE",
"703 365 OFFCURVE",
"831 366 OFFCURVE",
"888 365 CURVE SMOOTH",
"948 364 OFFCURVE",
"981 311 OFFCURVE",
"981 266 CURVE SMOOTH",
"981 260 OFFCURVE",
"985 258 OFFCURVE",
"992 258 CURVE SMOOTH"
);
}
);
width = 1226;
}
);
unicode = 00C6;
},
{
glyphname = B;
lastChange = "2020-06-21 16:35:09 +0000";
layers = (
{
layerId = "69412919-AED9-45FB-ADD8-4F440013F7DA";
paths = (
{
closed = 1;
nodes = (
"62 0 OFFCURVE",
"246 -1 OFFCURVE",
"391 0 CURVE",
"536 1 OFFCURVE",
"660 72 OFFCURVE",
"660 200 CURVE",
"660 310 OFFCURVE",
"538 365 OFFCURVE",
"429 388 CURVE",
"523 410 OFFCURVE",
"619 459 OFFCURVE",
"619 555 CURVE",
"619 661 OFFCURVE",
"513 723 OFFCURVE",
"379 726 CURVE",
"244 728 OFFCURVE",
"62 726 OFFCURVE",
"62 726 CURVE",
"56 726 OFFCURVE",
"54 720 OFFCURVE",
"54 711 CURVE",
"54 702 OFFCURVE",
"56 697 OFFCURVE",
"62 697 CURVE",
"78 697 LINE",
"135 697 OFFCURVE",
"163 683 OFFCURVE",
"163 635 CURVE",
"163 91 LINE",
"163 44 OFFCURVE",
"138 29 OFFCURVE",
"78 29 CURVE",
"62 29 LINE",
"56 29 OFFCURVE",
"54 24 OFFCURVE",
"54 14 CURVE",
"54 5 OFFCURVE",
"56 0 OFFCURVE",
"62 0 CURVE"
);
},
{
closed = 1;
nodes = (
"271 29 OFFCURVE",
"244 42 OFFCURVE",
"244 91 CURVE",
"244 373 LINE",
"270 373 LINE",
"507 373 OFFCURVE",
"566 291 OFFCURVE",
"566 201 CURVE",
"566 79 OFFCURVE",
"457 29 OFFCURVE",
"332 29 CURVE",
"329 29 LINE"
);
},
{
closed = 1;
nodes = (
"244 635 LINE",
"244 680 OFFCURVE",
"267 696 OFFCURVE",
"324 697 CURVE",
"457 695 OFFCURVE",
"526 639 OFFCURVE",
"526 559 CURVE",
"526 474 OFFCURVE",
"480 402 OFFCURVE",
"270 402 CURVE",
"244 402 LINE"
);
}
);
width = 716;
},
{
layerId = "3FC96813-E7C5-45AC-9F0B-5DBEB42CEC4B";
paths = (
{
closed = 1;
nodes = (
"48 0 OFFCURVE",
"321 -2 OFFCURVE",
"471 0 CURVE",
"621 2 OFFCURVE",
"759 74 OFFCURVE",
"759 205 CURVE",
"759 319 OFFCURVE",
"632 374 OFFCURVE",
"520 397 CURVE",
"617 420 OFFCURVE",
"717 470 OFFCURVE",
"717 569 CURVE",
"717 677 OFFCURVE",
"597 742 OFFCURVE",
"469 744 CURVE",
"340 745 OFFCURVE",
"48 744 OFFCURVE",
"48 744 CURVE",
"42 744 OFFCURVE",
"41 740 OFFCURVE",
"41 733 CURVE",
"41 727 OFFCURVE",
"42 723 OFFCURVE",
"48 723 CURVE",
"58 723 LINE",
"89 723 OFFCURVE",
"141 714 OFFCURVE",
"141 631 CURVE",
"141 113 LINE",
"141 30 OFFCURVE",
"89 21 OFFCURVE",
"58 21 CURVE",
"48 21 LINE",
"42 21 OFFCURVE",
"41 17 OFFCURVE",
"41 10 CURVE",
"41 4 OFFCURVE",
"42 0 OFFCURVE",
"48 0 CURVE"
);
},
{
closed = 1;
nodes = (
"330 30 OFFCURVE",
"307 44 OFFCURVE",
"307 93 CURVE",
"307 382 LINE",
"329 382 LINE",
"538 382 OFFCURVE",
"576 298 OFFCURVE",
"576 206 CURVE",
"576 89 OFFCURVE",
"519 30 OFFCURVE",
"422 30 CURVE",
"389 30 LINE"
);
},
{
closed = 1;
nodes = (
"307 651 LINE",
"307 697 OFFCURVE",
"332 714 OFFCURVE",
"390 714 CURVE",
"501 714 OFFCURVE",
"534 645 OFFCURVE",
"534 573 CURVE",
"534 494 OFFCURVE",
"511 412 OFFCURVE",
"329 412 CURVE",
"307 412 LINE"
);
}
);
width = 788;
},
{
layerId = "17F3AB05-7131-4B64-9C58-864369A22196";
paths = (
{
closed = 1;
nodes = (
"51 0 OFFCURVE",
"306 -2 OFFCURVE",
"455 0 CURVE",
"604 2 OFFCURVE",
"739 74 OFFCURVE",
"739 204 CURVE",
"739 317 OFFCURVE",
"613 372 OFFCURVE",
"502 395 CURVE",
"598 418 OFFCURVE",
"697 468 OFFCURVE",
"697 566 CURVE",
"697 674 OFFCURVE",
"580 738 OFFCURVE",
"451 740 CURVE",
"321 742 OFFCURVE",
"51 740 OFFCURVE",
"51 740 CURVE",
"45 740 OFFCURVE",
"44 736 OFFCURVE",
"44 729 CURVE",
"44 722 OFFCURVE",
"45 718 OFFCURVE",
"51 718 CURVE",
"62 718 LINE",
"98 718 OFFCURVE",
"145 708 OFFCURVE",
"145 632 CURVE",
"145 109 LINE",
"145 33 OFFCURVE",
"99 23 OFFCURVE",
"62 23 CURVE",
"51 23 LINE",
"45 23 OFFCURVE",
"44 18 OFFCURVE",
"44 11 CURVE",
"44 4 OFFCURVE",
"45 0 OFFCURVE",
"51 0 CURVE"
);
},
{
closed = 1;
nodes = (
"318 30 OFFCURVE",
"294 44 OFFCURVE",
"294 93 CURVE",
"294 380 LINE",
"317 380 LINE",
"532 380 OFFCURVE",
"574 297 OFFCURVE",
"574 205 CURVE",
"574 87 OFFCURVE",
"507 30 OFFCURVE",
"404 30 CURVE",
"377 30 LINE"
);
},
{
closed = 1;
nodes = (
"294 648 LINE",
"294 694 OFFCURVE",
"319 710 OFFCURVE",
"377 711 CURVE",
"492 710 OFFCURVE",
"532 644 OFFCURVE",
"532 570 CURVE",
"532 490 OFFCURVE",
"505 410 OFFCURVE",
"317 410 CURVE",
"294 410 LINE"
);
}
);
width = 774;
}
);
unicode = 0042;
},
{
glyphname = C;
lastChange = "2020-06-21 16:35:09 +0000";
layers = (
{
anchors = (
{
name = bottom;
position = "{358, 0}";
},
{
name = top;
position = "{358, 726}";
}
);
layerId = "69412919-AED9-45FB-ADD8-4F440013F7DA";
paths = (
{
closed = 1;
nodes = (
"549 -14 OFFCURVE",
"627 101 OFFCURVE",
"665 170 CURVE",
"669 179 OFFCURVE",
"664 186 OFFCURVE",
"659 189 CURVE",
"653 192 OFFCURVE",
"646 194 OFFCURVE",
"641 186 CURVE",
"587 105 OFFCURVE",
"521 34 OFFCURVE",
"412 34 CURVE",
"298 34 OFFCURVE",
"139 130 OFFCURVE",
"149 389 CURVE",
"155 561 OFFCURVE",
"245 706 OFFCURVE",
"404 697 CURVE",
"552 690 OFFCURVE",
"611 560 OFFCURVE",
"622 544 CURVE",
"627 537 OFFCURVE",
"634 536 OFFCURVE",
"639 538 CURVE SMOOTH",
"645 540 OFFCURVE",
"649 544 OFFCURVE",
"648 553 CURVE",
"645 566 OFFCURVE",
"606 723 OFFCURVE",
"606 723 CURVE",
"587 702 OFFCURVE",
"553 688 OFFCURVE",
"521 701 CURVE",
"494 713 OFFCURVE",
"461 729 OFFCURVE",
"396 734 CURVE",
"287 743 OFFCURVE",
"81 643 OFFCURVE",
"60 384 CURVE",
"37 104 OFFCURVE",
"256 -14 OFFCURVE",
"397 -14 CURVE"
);
}
);
width = 716;
},
{
anchors = (
{
name = bottom;
position = "{375, 0}";
},
{
name = top;
position = "{375, 744}";
}
);
layerId = "3FC96813-E7C5-45AC-9F0B-5DBEB42CEC4B";
paths = (
{
closed = 1;
nodes = (
"592 -13 OFFCURVE",
"676 112 OFFCURVE",
"708 178 CURVE",
"712 185 OFFCURVE",
"710 189 OFFCURVE",
"704 193 CURVE SMOOTH",
"698 197 OFFCURVE",
"693 197 OFFCURVE",
"689 191 CURVE",
"647 122 OFFCURVE",
"586 36 OFFCURVE",
"452 36 CURVE",
"328 36 OFFCURVE",
"212 155 OFFCURVE",
"222 389 CURVE",
"230 567 OFFCURVE",
"296 723 OFFCURVE",
"426 718 CURVE",
"576 711 OFFCURVE",
"653 572 OFFCURVE",
"662 559 CURVE",
"666 553 OFFCURVE",
"671 552 OFFCURVE",
"676 554 CURVE SMOOTH",
"681 556 OFFCURVE",
"685 559 OFFCURVE",
"683 567 CURVE",
"681 577 OFFCURVE",
"644 742 OFFCURVE",
"644 742 CURVE",
"611 717 OFFCURVE",
"591 724 OFFCURVE",
"552 732 CURVE",
"504 740 OFFCURVE",
"483 752 OFFCURVE",
"417 755 CURVE",
"290 760 OFFCURVE",
"55 654 OFFCURVE",
"43 382 CURVE",
"31 93 OFFCURVE",
"261 -13 OFFCURVE",
"436 -13 CURVE"
);
}
);
width = 750;
},
{
anchors = (
{
name = bottom;
position = "{372, 0}";
},
{
name = top;
position = "{372, 740}";
}
);
layerId = "17F3AB05-7131-4B64-9C58-864369A22196";
paths = (
{
closed = 1;
nodes = (
"583 -13 OFFCURVE",
"666 110 OFFCURVE",
"699 176 CURVE",
"703 184 OFFCURVE",
"701 188 OFFCURVE",
"695 192 CURVE",
"689 196 OFFCURVE",
"684 196 OFFCURVE",
"679 190 CURVE",
"635 119 OFFCURVE",
"573 36 OFFCURVE",
"444 36 CURVE",
"322 36 OFFCURVE",
"197 150 OFFCURVE",
"207 389 CURVE",
"215 566 OFFCURVE",
"286 720 OFFCURVE",
"422 714 CURVE",
"571 707 OFFCURVE",
"645 570 OFFCURVE",
"654 556 CURVE",
"658 550 OFFCURVE",
"664 549 OFFCURVE",
"669 551 CURVE SMOOTH",
"674 553 OFFCURVE",
"678 556 OFFCURVE",
"676 564 CURVE",
"674 575 OFFCURVE",
"636 738 OFFCURVE",
"636 738 CURVE",
"606 714 OFFCURVE",
"583 717 OFFCURVE",
"546 726 CURVE",
"502 735 OFFCURVE",
"479 747 OFFCURVE",
"413 751 CURVE",
"289 757 OFFCURVE",
"60 652 OFFCURVE",
"46 382 CURVE",
"32 95 OFFCURVE",
"260 -13 OFFCURVE",
"428 -13 CURVE"
);
}
);
width = 743;
}
);
unicode = 0043;
},
{
glyphname = D;
lastChange = "2020-06-21 16:35:09 +0000";
layers = (
{
layerId = "69412919-AED9-45FB-ADD8-4F440013F7DA";
paths = (
{
closed = 1;
nodes = (
"64 0 OFFCURVE",
"260 -3 OFFCURVE",
"370 2 CURVE SMOOTH",
"545 10 OFFCURVE",
"731 103 OFFCURVE",
"731 363 CURVE SMOOTH",
"731 625 OFFCURVE",
"545 718 OFFCURVE",
"370 724 CURVE SMOOTH",
"260 728 OFFCURVE",
"64 726 OFFCURVE",
"64 726 CURVE",
"58 726 OFFCURVE",
"56 721 OFFCURVE",
"56 712 CURVE SMOOTH",
"56 702 OFFCURVE",
"58 697 OFFCURVE",
"64 697 CURVE SMOOTH",
"80 697 LINE SMOOTH",
"138 697 OFFCURVE",
"165 684 OFFCURVE",
"165 635 CURVE SMOOTH",
"165 90 LINE SMOOTH",
"165 42 OFFCURVE",
"138 28 OFFCURVE",
"80 28 CURVE SMOOTH",
"64 28 LINE SMOOTH",
"58 28 OFFCURVE",
"56 23 OFFCURVE",
"56 14 CURVE SMOOTH",
"56 5 OFFCURVE",
"58 0 OFFCURVE",
"64 0 CURVE"
);
},
{
closed = 1;
nodes = (
"271 30 OFFCURVE",
"246 46 OFFCURVE",
"246 92 CURVE SMOOTH",
"246 633 LINE SMOOTH",
"246 680 OFFCURVE",
"271 695 OFFCURVE",
"331 695 CURVE SMOOTH",
"351 695 LINE SMOOTH",
"440 695 OFFCURVE",
"639 645 OFFCURVE",
"639 363 CURVE SMOOTH",
"639 83 OFFCURVE",
"440 30 OFFCURVE",
"351 30 CURVE SMOOTH",
"331 30 LINE SMOOTH"
);
}
);
width = 794;
},
{
layerId = "3FC96813-E7C5-45AC-9F0B-5DBEB42CEC4B";
paths = (
{
closed = 1;
nodes = (
"48 0 OFFCURVE",
"336 -5 OFFCURVE",
"422 0 CURVE SMOOTH",
"555 8 OFFCURVE",
"773 104 OFFCURVE",
"773 372 CURVE SMOOTH",
"773 639 OFFCURVE",
"555 736 OFFCURVE",
"422 744 CURVE SMOOTH",
"336 749 OFFCURVE",
"48 744 OFFCURVE",
"48 744 CURVE",
"43 744 OFFCURVE",
"41 740 OFFCURVE",
"41 734 CURVE SMOOTH",
"41 727 OFFCURVE",
"42 723 OFFCURVE",
"48 723 CURVE SMOOTH",
"58 723 LINE SMOOTH",
"89 723 OFFCURVE",
"141 714 OFFCURVE",
"141 631 CURVE SMOOTH",
"141 113 LINE SMOOTH",
"141 30 OFFCURVE",
"89 21 OFFCURVE",
"58 21 CURVE SMOOTH",
"48 21 LINE SMOOTH",
"43 21 OFFCURVE",
"41 17 OFFCURVE",
"41 11 CURVE SMOOTH",
"41 4 OFFCURVE",
"42 0 OFFCURVE",
"48 0 CURVE"
);
},
{
closed = 1;
nodes = (
"325 30 OFFCURVE",
"297 44 OFFCURVE",
"297 93 CURVE SMOOTH",
"297 651 LINE SMOOTH",
"297 698 OFFCURVE",
"322 714 OFFCURVE",
"385 714 CURVE SMOOTH",
"391 714 LINE SMOOTH",
"482 714 OFFCURVE",
"603 659 OFFCURVE",
"603 372 CURVE SMOOTH",
"603 84 OFFCURVE",
"482 30 OFFCURVE",
"391 30 CURVE SMOOTH",
"385 30 LINE SMOOTH"
);
}
);
width = 816;
},
{
layerId = "17F3AB05-7131-4B64-9C58-864369A22196";
paths = (
{
closed = 1;
nodes = (
"51 0 OFFCURVE",
"321 -5 OFFCURVE",
"412 0 CURVE SMOOTH",
"553 8 OFFCURVE",
"765 104 OFFCURVE",
"765 370 CURVE SMOOTH",
"765 636 OFFCURVE",
"553 732 OFFCURVE",
"412 740 CURVE SMOOTH",
"321 745 OFFCURVE",
"51 740 OFFCURVE",
"51 740 CURVE",
"46 740 OFFCURVE",
"44 736 OFFCURVE",
"44 730 CURVE SMOOTH",
"44 722 OFFCURVE",
"45 718 OFFCURVE",
"51 718 CURVE SMOOTH",
"62 718 LINE SMOOTH",
"99 718 OFFCURVE",
"146 708 OFFCURVE",
"146 632 CURVE SMOOTH",
"146 108 LINE SMOOTH",
"146 32 OFFCURVE",
"99 22 OFFCURVE",
"62 22 CURVE SMOOTH",
"51 22 LINE SMOOTH",
"46 22 OFFCURVE",
"44 18 OFFCURVE",
"44 12 CURVE SMOOTH",
"44 4 OFFCURVE",
"45 0 OFFCURVE",
"51 0 CURVE"
);
},
{
closed = 1;
nodes = (
"314 30 OFFCURVE",
"287 44 OFFCURVE",
"287 93 CURVE SMOOTH",
"287 647 LINE SMOOTH",
"287 694 OFFCURVE",
"312 710 OFFCURVE",
"374 710 CURVE SMOOTH",
"383 710 LINE SMOOTH",
"474 710 OFFCURVE",
"610 656 OFFCURVE",
"610 370 CURVE SMOOTH",
"610 84 OFFCURVE",
"474 30 OFFCURVE",
"383 30 CURVE SMOOTH",
"374 30 LINE SMOOTH"
);
}
);
width = 812;
}
);
unicode = 0044;
},
{
glyphname = Eth;
lastChange = "2020-06-21 16:35:09 +0000";
layers = (
{
layerId = "69412919-AED9-45FB-ADD8-4F440013F7DA";
paths = (
{
closed = 1;
nodes = (
"440 357 LINE",
"440 395 LINE",
"38 395 LINE",
"38 357 LINE"
);
},
{
closed = 1;
nodes = (
"64 0 OFFCURVE",
"260 -3 OFFCURVE",
"370 2 CURVE SMOOTH",
"545 10 OFFCURVE",
"731 103 OFFCURVE",
"731 363 CURVE SMOOTH",
"731 625 OFFCURVE",
"545 718 OFFCURVE",
"370 724 CURVE SMOOTH",
"260 728 OFFCURVE",
"64 726 OFFCURVE",
"64 726 CURVE",
"58 726 OFFCURVE",
"56 721 OFFCURVE",
"56 712 CURVE SMOOTH",
"56 702 OFFCURVE",
"58 697 OFFCURVE",
"64 697 CURVE SMOOTH",
"80 697 LINE SMOOTH",
"138 697 OFFCURVE",
"165 684 OFFCURVE",
"165 635 CURVE SMOOTH",
"165 90 LINE SMOOTH",
"165 42 OFFCURVE",
"138 28 OFFCURVE",
"80 28 CURVE SMOOTH",
"64 28 LINE SMOOTH",
"58 28 OFFCURVE",
"56 23 OFFCURVE",
"56 14 CURVE SMOOTH",
"56 5 OFFCURVE",
"58 0 OFFCURVE",
"64 0 CURVE"
);
},
{
closed = 1;
nodes = (
"271 30 OFFCURVE",
"246 46 OFFCURVE",
"246 92 CURVE SMOOTH",
"246 633 LINE SMOOTH",
"246 680 OFFCURVE",
"271 695 OFFCURVE",
"331 695 CURVE SMOOTH",
"351 695 LINE SMOOTH",
"440 695 OFFCURVE",
"639 645 OFFCURVE",
"639 363 CURVE SMOOTH",
"639 83 OFFCURVE",
"440 30 OFFCURVE",
"351 30 CURVE SMOOTH",
"331 30 LINE SMOOTH"
);
}
);
width = 794;
},
{
layerId = "3FC96813-E7C5-45AC-9F0B-5DBEB42CEC4B";
paths = (
{
closed = 1;
nodes = (
"449 366 LINE",
"449 401 LINE",
"53 401 LINE",
"53 366 LINE"
);
},
{
closed = 1;
nodes = (
"48 0 OFFCURVE",
"336 -5 OFFCURVE",
"422 0 CURVE SMOOTH",
"555 8 OFFCURVE",
"773 104 OFFCURVE",
"773 372 CURVE SMOOTH",
"773 639 OFFCURVE",
"555 736 OFFCURVE",
"422 744 CURVE SMOOTH",
"336 749 OFFCURVE",
"48 744 OFFCURVE",
"48 744 CURVE",
"43 744 OFFCURVE",
"41 740 OFFCURVE",
"41 734 CURVE SMOOTH",
"41 727 OFFCURVE",
"42 723 OFFCURVE",
"48 723 CURVE SMOOTH",
"58 723 LINE SMOOTH",
"89 723 OFFCURVE",
"141 714 OFFCURVE",
"141 631 CURVE SMOOTH",
"141 113 LINE SMOOTH",
"141 30 OFFCURVE",
"89 21 OFFCURVE",
"58 21 CURVE SMOOTH",
"48 21 LINE SMOOTH",
"43 21 OFFCURVE",
"41 17 OFFCURVE",
"41 11 CURVE SMOOTH",
"41 4 OFFCURVE",
"42 0 OFFCURVE",
"48 0 CURVE"
);
},
{
closed = 1;
nodes = (
"325 30 OFFCURVE",
"297 44 OFFCURVE",
"297 93 CURVE SMOOTH",
"297 651 LINE SMOOTH",
"297 698 OFFCURVE",
"322 714 OFFCURVE",
"385 714 CURVE SMOOTH",
"391 714 LINE SMOOTH",
"482 714 OFFCURVE",
"603 659 OFFCURVE",
"603 372 CURVE SMOOTH",
"603 84 OFFCURVE",
"482 30 OFFCURVE",
"391 30 CURVE SMOOTH",
"385 30 LINE SMOOTH"
);
}
);
width = 816;
},
{
layerId = "17F3AB05-7131-4B64-9C58-864369A22196";
paths = (
{
closed = 1;
nodes = (
"447 364 LINE",
"447 400 LINE",
"50 400 LINE",
"50 364 LINE"
);
},
{
closed = 1;
nodes = (
"51 0 OFFCURVE",
"321 -5 OFFCURVE",
"412 0 CURVE SMOOTH",
"553 8 OFFCURVE",
"765 104 OFFCURVE",
"765 370 CURVE SMOOTH",
"765 636 OFFCURVE",
"553 732 OFFCURVE",
"412 740 CURVE SMOOTH",
"321 745 OFFCURVE",
"51 740 OFFCURVE",
"51 740 CURVE",
"46 740 OFFCURVE",
"44 736 OFFCURVE",
"44 730 CURVE SMOOTH",
"44 722 OFFCURVE",
"45 718 OFFCURVE",
"51 718 CURVE SMOOTH",
"62 718 LINE SMOOTH",
"99 718 OFFCURVE",
"146 708 OFFCURVE",
"146 632 CURVE SMOOTH",
"146 108 LINE SMOOTH",
"146 32 OFFCURVE",
"99 22 OFFCURVE",
"62 22 CURVE SMOOTH",
"51 22 LINE SMOOTH",
"46 22 OFFCURVE",
"44 18 OFFCURVE",
"44 12 CURVE SMOOTH",
"44 4 OFFCURVE",
"45 0 OFFCURVE",
"51 0 CURVE"
);
},
{
closed = 1;
nodes = (
"314 30 OFFCURVE",
"287 44 OFFCURVE",
"287 93 CURVE SMOOTH",
"287 647 LINE SMOOTH",
"287 694 OFFCURVE",
"312 710 OFFCURVE",
"374 710 CURVE SMOOTH",
"383 710 LINE SMOOTH",
"474 710 OFFCURVE",
"610 656 OFFCURVE",
"610 370 CURVE SMOOTH",
"610 84 OFFCURVE",
"474 30 OFFCURVE",
"383 30 CURVE SMOOTH",
"374 30 LINE SMOOTH"
);
}
);
width = 812;
}
);
unicode = 00D0;
},
{
glyphname = E;
lastChange = "2020-06-21 16:35:09 +0000";
layers = (
{
anchors = (
{
name = bottom;
position = "{360, 0}";
},
{
name = ogonek;
position = "{648, 10}";
},
{
name = top;
position = "{360, 726}";
},
{
name = topleft;
position = "{20, 726}";
}
);
layerId = "69412919-AED9-45FB-ADD8-4F440013F7DA";
paths = (
{
closed = 1;
nodes = (
"617 0 LINE",
"637 57 OFFCURVE",
"656 99 OFFCURVE",
"677 161 CURVE SMOOTH",
"679 167 OFFCURVE",
"676 174 OFFCURVE",
"669 177 CURVE SMOOTH",
"662 180 OFFCURVE",
"656 180 OFFCURVE",
"652 175 CURVE SMOOTH",
"599 109 OFFCURVE",
"542 41 OFFCURVE",
"410 30 CURVE SMOOTH",
"385 28 OFFCURVE",
"352 29 OFFCURVE",
"330 30 CURVE SMOOTH",
"277 32 OFFCURVE",
"244 42 OFFCURVE",
"244 91 CURVE SMOOTH",
"244 635 LINE SMOOTH",
"244 695 OFFCURVE",
"288 696 OFFCURVE",
"355 696 CURVE SMOOTH",
"380 696 LINE SMOOTH",
"482 696 OFFCURVE",
"567 656 OFFCURVE",
"623 600 CURVE SMOOTH",
"627 596 OFFCURVE",
"633 594 OFFCURVE",
"641 598 CURVE SMOOTH",
"647 601 OFFCURVE",
"651 605 OFFCURVE",
"648 613 CURVE SMOOTH",
"644 624 OFFCURVE",
"586 726 OFFCURVE",
"586 726 CURVE",
"62 726 LINE SMOOTH",
"57 726 OFFCURVE",
"55 721 OFFCURVE",
"55 712 CURVE SMOOTH",
"55 702 OFFCURVE",
"56 697 OFFCURVE",
"62 697 CURVE SMOOTH",
"78 697 LINE SMOOTH",
"132 697 OFFCURVE",
"164 684 OFFCURVE",
"164 635 CURVE SMOOTH",
"164 91 LINE SMOOTH",
"164 45 OFFCURVE",
"137 29 OFFCURVE",
"78 29 CURVE SMOOTH",
"62 29 LINE SMOOTH",
"57 29 OFFCURVE",
"55 24 OFFCURVE",
"55 15 CURVE SMOOTH",
"55 6 OFFCURVE",
"56 0 OFFCURVE",
"62 0 CURVE SMOOTH"
);
},
{
closed = 1;
nodes = (
"525 253 OFFCURVE",
"530 255 OFFCURVE",
"530 261 CURVE SMOOTH",
"530 490 LINE SMOOTH",
"530 496 OFFCURVE",
"525 497 OFFCURVE",
"516 497 CURVE SMOOTH",
"508 497 OFFCURVE",
"503 496 OFFCURVE",
"503 490 CURVE SMOOTH",
"503 437 OFFCURVE",
"472 394 OFFCURVE",
"414 393 CURVE SMOOTH",
"358 392 OFFCURVE",
"201 393 OFFCURVE",
"201 393 CURVE",
"201 358 LINE",
"201 358 OFFCURVE",
"358 359 OFFCURVE",
"414 358 CURVE SMOOTH",
"472 357 OFFCURVE",
"503 314 OFFCURVE",
"503 261 CURVE SMOOTH",
"503 255 OFFCURVE",
"508 253 OFFCURVE",
"516 253 CURVE SMOOTH"
);
}
);
width = 720;
},
{
anchors = (
{
name = bottom;
position = "{391, 0}";
},
{
name = ogonek;
position = "{704, 10}";
},
{
name = top;
position = "{391, 744}";
},
{
name = topleft;
position = "{20, 744}";
}
);
layerId = "3FC96813-E7C5-45AC-9F0B-5DBEB42CEC4B";
paths = (
{
closed = 1;
nodes = (
"666 0 LINE",
"687 59 OFFCURVE",
"721 152 OFFCURVE",
"741 202 CURVE SMOOTH",
"743 207 OFFCURVE",
"740 212 OFFCURVE",
"735 215 CURVE SMOOTH",
"729 218 OFFCURVE",
"725 217 OFFCURVE",
"720 213 CURVE",
"681 157 OFFCURVE",
"591 35 OFFCURVE",
"454 30 CURVE SMOOTH",
"428 29 OFFCURVE",
"419 28 OFFCURVE",
"398 30 CURVE SMOOTH",
"343 35 OFFCURVE",
"308 42 OFFCURVE",
"308 93 CURVE SMOOTH",
"308 652 LINE SMOOTH",
"308 712 OFFCURVE",
"352 715 OFFCURVE",
"420 715 CURVE SMOOTH",
"435 715 LINE SMOOTH",
"542 715 OFFCURVE",
"657 639 OFFCURVE",
"701 593 CURVE",
"705 590 OFFCURVE",
"710 590 OFFCURVE",
"716 592 CURVE SMOOTH",
"721 594 OFFCURVE",
"724 598 OFFCURVE",
"721 603 CURVE",
"718 612 OFFCURVE",
"646 744 OFFCURVE",
"646 744 CURVE",
"49 744 LINE SMOOTH",
"43 744 OFFCURVE",
"41 740 OFFCURVE",
"41 734 CURVE SMOOTH",
"41 727 OFFCURVE",
"43 723 OFFCURVE",
"49 723 CURVE SMOOTH",
"59 723 LINE SMOOTH",
"90 723 OFFCURVE",
"142 714 OFFCURVE",
"142 631 CURVE SMOOTH",
"142 113 LINE SMOOTH",
"142 30 OFFCURVE",
"90 21 OFFCURVE",
"59 21 CURVE SMOOTH",
"49 21 LINE SMOOTH",
"43 21 OFFCURVE",
"41 17 OFFCURVE",
"41 11 CURVE SMOOTH",
"41 4 OFFCURVE",
"43 0 OFFCURVE",
"49 0 CURVE SMOOTH"
);
},
{
closed = 1;
nodes = (
"566 260 OFFCURVE",
"570 261 OFFCURVE",
"570 267 CURVE SMOOTH",
"570 503 LINE SMOOTH",
"570 508 OFFCURVE",
"566 509 OFFCURVE",
"558 509 CURVE SMOOTH",
"551 509 OFFCURVE",
"547 508 OFFCURVE",
"547 503 CURVE SMOOTH",
"547 460 OFFCURVE",
"514 404 OFFCURVE",
"453 403 CURVE SMOOTH",
"396 402 OFFCURVE",
"276 403 OFFCURVE",
"276 403 CURVE",
"276 367 LINE",
"276 367 OFFCURVE",
"396 368 OFFCURVE",
"453 367 CURVE SMOOTH",
"514 366 OFFCURVE",
"547 310 OFFCURVE",
"547 267 CURVE SMOOTH",
"547 261 OFFCURVE",
"551 260 OFFCURVE",
"558 260 CURVE SMOOTH"
);
}
);
width = 782;
},
{
anchors = (
{
name = bottom;
position = "{385, 0}";
},
{
name = ogonek;
position = "{693, 10}";
},
{
name = top;
position = "{385, 740}";
},
{
name = topleft;
position = "{20, 740}";
}
);
layerId = "17F3AB05-7131-4B64-9C58-864369A22196";
paths = (
{
closed = 1;
nodes = (
"656 0 LINE",
"677 59 OFFCURVE",
"708 141 OFFCURVE",
"728 194 CURVE SMOOTH",
"730 199 OFFCURVE",
"727 204 OFFCURVE",
"722 207 CURVE SMOOTH",
"716 210 OFFCURVE",
"711 210 OFFCURVE",
"706 205 CURVE SMOOTH",
"665 147 OFFCURVE",
"581 36 OFFCURVE",
"445 30 CURVE SMOOTH",
"419 29 OFFCURVE",
"406 28 OFFCURVE",
"384 30 CURVE SMOOTH",
"330 34 OFFCURVE",
"295 42 OFFCURVE",
"295 93 CURVE SMOOTH",
"295 649 LINE SMOOTH",
"295 709 OFFCURVE",
"339 711 OFFCURVE",
"407 711 CURVE SMOOTH",
"424 711 LINE SMOOTH",
"530 711 OFFCURVE",
"639 642 OFFCURVE",
"685 594 CURVE SMOOTH",
"689 591 OFFCURVE",
"695 591 OFFCURVE",
"701 593 CURVE SMOOTH",
"706 595 OFFCURVE",
"709 599 OFFCURVE",
"706 605 CURVE SMOOTH",
"703 614 OFFCURVE",
"634 740 OFFCURVE",
"634 740 CURVE",
"52 740 LINE SMOOTH",
"46 740 OFFCURVE",
"44 736 OFFCURVE",
"44 730 CURVE SMOOTH",
"44 722 OFFCURVE",
"46 718 OFFCURVE",
"52 718 CURVE SMOOTH",
"63 718 LINE SMOOTH",
"98 718 OFFCURVE",
"146 708 OFFCURVE",
"146 632 CURVE SMOOTH",
"146 109 LINE SMOOTH",
"146 33 OFFCURVE",
"99 23 OFFCURVE",
"63 23 CURVE SMOOTH",
"52 23 LINE SMOOTH",
"46 23 OFFCURVE",
"44 18 OFFCURVE",
"44 12 CURVE SMOOTH",
"44 4 OFFCURVE",
"46 0 OFFCURVE",
"52 0 CURVE SMOOTH"
);
},
{
closed = 1;
nodes = (
"558 259 OFFCURVE",
"562 260 OFFCURVE",
"562 266 CURVE SMOOTH",
"562 500 LINE SMOOTH",
"562 506 OFFCURVE",
"558 507 OFFCURVE",
"550 507 CURVE SMOOTH",
"542 507 OFFCURVE",
"538 506 OFFCURVE",
"538 500 CURVE SMOOTH",
"538 455 OFFCURVE",
"506 402 OFFCURVE",
"445 401 CURVE SMOOTH",
"388 400 OFFCURVE",
"261 401 OFFCURVE",
"261 401 CURVE",
"261 365 LINE",
"261 365 OFFCURVE",
"388 366 OFFCURVE",
"445 365 CURVE SMOOTH",
"506 364 OFFCURVE",
"538 311 OFFCURVE",
"538 266 CURVE SMOOTH",
"538 260 OFFCURVE",
"542 259 OFFCURVE",
"550 259 CURVE SMOOTH"
);
}
);
width = 770;
}
);
unicode = 0045;
},
{
glyphname = F;
lastChange = "2020-06-21 16:35:09 +0000";
layers = (
{
layerId = "69412919-AED9-45FB-ADD8-4F440013F7DA";
paths = (
{
closed = 1;
nodes = (
"346 0 LINE SMOOTH",
"352 0 OFFCURVE",
"353 6 OFFCURVE",
"353 15 CURVE SMOOTH",
"353 24 OFFCURVE",
"351 29 OFFCURVE",
"346 29 CURVE SMOOTH",
"330 29 LINE SMOOTH",
"271 29 OFFCURVE",
"244 45 OFFCURVE",
"244 91 CURVE SMOOTH",
"244 635 LINE SMOOTH",
"244 695 OFFCURVE",
"288 696 OFFCURVE",
"355 696 CURVE SMOOTH",
"380 696 LINE SMOOTH",
"483 696 OFFCURVE",
"567 656 OFFCURVE",
"623 600 CURVE SMOOTH",
"627 596 OFFCURVE",
"633 594 OFFCURVE",
"641 598 CURVE SMOOTH",
"647 601 OFFCURVE",
"651 605 OFFCURVE",
"648 613 CURVE SMOOTH",
"644 624 OFFCURVE",
"586 726 OFFCURVE",
"586 726 CURVE",
"62 726 LINE SMOOTH",
"57 726 OFFCURVE",
"55 721 OFFCURVE",
"55 712 CURVE SMOOTH",
"55 702 OFFCURVE",
"56 697 OFFCURVE",
"62 697 CURVE SMOOTH",
"78 697 LINE SMOOTH",
"132 697 OFFCURVE",
"164 684 OFFCURVE",
"164 635 CURVE SMOOTH",
"164 91 LINE SMOOTH",
"164 45 OFFCURVE",
"137 29 OFFCURVE",
"78 29 CURVE SMOOTH",
"62 29 LINE SMOOTH",
"57 29 OFFCURVE",
"55 24 OFFCURVE",
"55 15 CURVE SMOOTH",
"55 6 OFFCURVE",
"56 0 OFFCURVE",
"62 0 CURVE SMOOTH"
);
},
{
closed = 1;
nodes = (
"525 253 OFFCURVE",
"530 255 OFFCURVE",
"530 261 CURVE SMOOTH",
"530 490 LINE SMOOTH",
"530 496 OFFCURVE",
"525 497 OFFCURVE",
"516 497 CURVE SMOOTH",
"508 497 OFFCURVE",
"503 496 OFFCURVE",
"503 490 CURVE SMOOTH",
"503 437 OFFCURVE",
"472 394 OFFCURVE",
"414 393 CURVE SMOOTH",
"358 392 OFFCURVE",
"201 393 OFFCURVE",
"201 393 CURVE",
"201 358 LINE",
"201 358 OFFCURVE",
"358 359 OFFCURVE",
"414 358 CURVE SMOOTH",
"472 357 OFFCURVE",
"503 314 OFFCURVE",
"503 261 CURVE SMOOTH",
"503 255 OFFCURVE",
"508 253 OFFCURVE",
"516 253 CURVE SMOOTH"
);
}
);
width = 686;
},
{
layerId = "3FC96813-E7C5-45AC-9F0B-5DBEB42CEC4B";
paths = (
{
closed = 1;
nodes = (
"403 0 LINE SMOOTH",
"409 0 OFFCURVE",
"410 6 OFFCURVE",
"410 11 CURVE SMOOTH",
"410 16 OFFCURVE",
"409 22 OFFCURVE",
"403 22 CURVE SMOOTH",
"393 22 LINE SMOOTH",
"362 22 OFFCURVE",
"310 30 OFFCURVE",
"310 114 CURVE SMOOTH",
"310 652 LINE SMOOTH",
"310 712 OFFCURVE",
"354 715 OFFCURVE",
"421 715 CURVE SMOOTH",
"436 715 LINE SMOOTH",
"543 715 OFFCURVE",
"658 639 OFFCURVE",
"702 593 CURVE",
"706 590 OFFCURVE",
"711 590 OFFCURVE",
"717 592 CURVE SMOOTH",
"722 594 OFFCURVE",
"725 598 OFFCURVE",
"723 603 CURVE SMOOTH",
"719 612 OFFCURVE",
"647 744 OFFCURVE",
"647 744 CURVE",
"50 744 LINE SMOOTH",
"45 744 OFFCURVE",
"43 740 OFFCURVE",
"43 734 CURVE SMOOTH",
"43 727 OFFCURVE",
"44 723 OFFCURVE",
"50 723 CURVE SMOOTH",
"60 723 LINE SMOOTH",
"91 723 OFFCURVE",
"143 714 OFFCURVE",
"143 631 CURVE SMOOTH",
"143 113 LINE SMOOTH",
"143 30 OFFCURVE",
"91 21 OFFCURVE",
"60 21 CURVE SMOOTH",
"50 21 LINE SMOOTH",
"45 21 OFFCURVE",
"43 17 OFFCURVE",
"43 11 CURVE SMOOTH",
"43 4 OFFCURVE",
"44 0 OFFCURVE",
"50 0 CURVE SMOOTH"
);
},
{
closed = 1;
nodes = (
"567 260 OFFCURVE",
"571 261 OFFCURVE",
"571 267 CURVE SMOOTH",
"571 503 LINE SMOOTH",
"571 508 OFFCURVE",
"567 509 OFFCURVE",
"559 509 CURVE SMOOTH",
"553 509 OFFCURVE",
"548 508 OFFCURVE",
"548 503 CURVE SMOOTH",
"548 460 OFFCURVE",
"515 404 OFFCURVE",
"454 403 CURVE SMOOTH",
"397 402 OFFCURVE",
"277 403 OFFCURVE",
"277 403 CURVE",
"277 367 LINE",
"277 367 OFFCURVE",
"397 368 OFFCURVE",
"454 367 CURVE SMOOTH",
"515 366 OFFCURVE",
"548 310 OFFCURVE",
"548 267 CURVE SMOOTH",
"548 261 OFFCURVE",
"553 260 OFFCURVE",
"559 260 CURVE SMOOTH"
);
}
);
width = 740;
},
{
layerId = "17F3AB05-7131-4B64-9C58-864369A22196";
paths = (
{
closed = 1;
nodes = (
"392 0 LINE SMOOTH",
"398 0 OFFCURVE",
"399 6 OFFCURVE",
"399 12 CURVE SMOOTH",
"399 18 OFFCURVE",
"397 23 OFFCURVE",
"392 23 CURVE SMOOTH",
"380 23 LINE SMOOTH",
"344 23 OFFCURVE",
"297 33 OFFCURVE",
"297 109 CURVE SMOOTH",
"297 649 LINE SMOOTH",
"297 709 OFFCURVE",
"341 711 OFFCURVE",
"408 711 CURVE SMOOTH",
"425 711 LINE SMOOTH",
"531 711 OFFCURVE",
"640 642 OFFCURVE",
"686 594 CURVE SMOOTH",
"690 591 OFFCURVE",
"695 591 OFFCURVE",
"702 593 CURVE SMOOTH",
"707 595 OFFCURVE",
"710 599 OFFCURVE",
"708 605 CURVE SMOOTH",
"704 614 OFFCURVE",
"635 740 OFFCURVE",
"635 740 CURVE",
"52 740 LINE SMOOTH",
"47 740 OFFCURVE",
"45 736 OFFCURVE",
"45 730 CURVE SMOOTH",
"45 722 OFFCURVE",
"46 718 OFFCURVE",
"52 718 CURVE SMOOTH",
"64 718 LINE SMOOTH",
"99 718 OFFCURVE",
"147 708 OFFCURVE",
"147 632 CURVE SMOOTH",
"147 109 LINE SMOOTH",
"147 33 OFFCURVE",
"100 23 OFFCURVE",
"64 23 CURVE SMOOTH",
"52 23 LINE SMOOTH",
"47 23 OFFCURVE",
"45 18 OFFCURVE",
"45 12 CURVE SMOOTH",
"45 4 OFFCURVE",
"46 0 OFFCURVE",
"52 0 CURVE SMOOTH"
);
},
{
closed = 1;
nodes = (
"559 259 OFFCURVE",
"563 260 OFFCURVE",
"563 266 CURVE SMOOTH",
"563 500 LINE SMOOTH",
"563 506 OFFCURVE",
"559 507 OFFCURVE",
"550 507 CURVE SMOOTH",
"544 507 OFFCURVE",
"539 506 OFFCURVE",
"539 500 CURVE SMOOTH",
"539 455 OFFCURVE",
"506 402 OFFCURVE",
"446 401 CURVE SMOOTH",
"389 400 OFFCURVE",
"262 401 OFFCURVE",
"262 401 CURVE",
"262 365 LINE",
"262 365 OFFCURVE",
"389 366 OFFCURVE",
"446 365 CURVE SMOOTH",
"506 364 OFFCURVE",
"539 311 OFFCURVE",
"539 266 CURVE SMOOTH",
"539 260 OFFCURVE",
"544 259 OFFCURVE",
"550 259 CURVE SMOOTH"
);
}
);
width = 729;
}
);
unicode = 0046;
},
{
glyphname = G;
lastChange = "2020-06-21 16:35:09 +0000";
layers = (
{
layerId = "69412919-AED9-45FB-ADD8-4F440013F7DA";
paths = (
{
closed = 1;
nodes = (
"487 -17 OFFCURVE",
"556 40 OFFCURVE",
"642 32 CURVE",
"642 32 OFFCURVE",
"637 191 OFFCURVE",
"641 216 CURVE",
"646 257 OFFCURVE",
"684 276 OFFCURVE",
"728 277 CURVE",
"734 277 OFFCURVE",
"736 282 OFFCURVE",
"736 291 CURVE",
"736 300 OFFCURVE",
"734 305 OFFCURVE",
"728 305 CURVE",
"466 305 LINE",
"460 305 OFFCURVE",
"458 300 OFFCURVE",
"458 291 CURVE",
"458 282 OFFCURVE",
"459 277 OFFCURVE",
"466 277 CURVE",
"556 276 OFFCURVE",
"562 242 OFFCURVE",
"565 219 CURVE SMOOTH",
"569 189 OFFCURVE",
"566 160 OFFCURVE",
"556 124 CURVE SMOOTH",
"543 76 OFFCURVE",
"502 17 OFFCURVE",
"390 24 CURVE SMOOTH",
"277 31 OFFCURVE",
"137 132 OFFCURVE",
"148 371 CURVE SMOOTH",
"155 526 OFFCURVE",
"232 706 OFFCURVE",
"390 699 CURVE",
"538 693 OFFCURVE",
"607 560 OFFCURVE",
"619 543 CURVE",
"623 536 OFFCURVE",
"631 535 OFFCURVE",
"636 537 CURVE",
"641 540 OFFCURVE",
"646 544 OFFCURVE",
"644 553 CURVE",
"641 566 OFFCURVE",
"603 722 OFFCURVE",
"603 722 CURVE",
"571 692 OFFCURVE",
"549 686 OFFCURVE",
"517 701 CURVE",
"473 721 OFFCURVE",
"437 735 OFFCURVE",
"381 735 CURVE SMOOTH",
"268 735 OFFCURVE",
"70 625 OFFCURVE",
"58 364 CURVE",
"48 113 OFFCURVE",
"237 -6 OFFCURVE",
"393 -13 CURVE SMOOTH"
);
}
);
width = 744;
},
{
layerId = "3FC96813-E7C5-45AC-9F0B-5DBEB42CEC4B";
paths = (
{
closed = 1;
nodes = (
"520 -13 OFFCURVE",
"534 38 OFFCURVE",
"685 33 CURVE",
"685 33 OFFCURVE",
"680 196 OFFCURVE",
"684 220 CURVE SMOOTH",
"691 263 OFFCURVE",
"728 283 OFFCURVE",
"774 283 CURVE SMOOTH",
"780 283 OFFCURVE",
"781 289 OFFCURVE",
"781 294 CURVE SMOOTH",
"781 299 OFFCURVE",
"780 304 OFFCURVE",
"774 304 CURVE SMOOTH",
"433 304 LINE SMOOTH",
"426 304 OFFCURVE",
"425 299 OFFCURVE",
"425 294 CURVE SMOOTH",
"425 289 OFFCURVE",
"426 283 OFFCURVE",
"433 283 CURVE SMOOTH",
"524 283 OFFCURVE",
"532 248 OFFCURVE",
"535 223 CURVE SMOOTH",
"538 197 OFFCURVE",
"538 154 OFFCURVE",
"531 116 CURVE SMOOTH",
"521 64 OFFCURVE",
"486 21 OFFCURVE",
"391 21 CURVE SMOOTH",
"288 21 OFFCURVE",
"206 133 OFFCURVE",
"217 377 CURVE SMOOTH",
"224 539 OFFCURVE",
"262 723 OFFCURVE",
"425 717 CURVE SMOOTH",
"576 711 OFFCURVE",
"653 572 OFFCURVE",
"662 559 CURVE SMOOTH",
"666 553 OFFCURVE",
"672 552 OFFCURVE",
"676 554 CURVE",
"681 555 OFFCURVE",
"684 559 OFFCURVE",
"683 566 CURVE SMOOTH",
"682 573 OFFCURVE",
"644 742 OFFCURVE",
"644 742 CURVE",
"611 717 OFFCURVE",
"591 725 OFFCURVE",
"552 731 CURVE SMOOTH",
"504 738 OFFCURVE",
"482 754 OFFCURVE",
"417 755 CURVE SMOOTH",
"257 757 OFFCURVE",
"55 643 OFFCURVE",
"43 374 CURVE SMOOTH",
"32 117 OFFCURVE",
"260 -13 OFFCURVE",
"394 -13 CURVE SMOOTH"
);
}
);
width = 797;
},
{
layerId = "17F3AB05-7131-4B64-9C58-864369A22196";
paths = (
{
closed = 1;
nodes = (
"513 -14 OFFCURVE",
"538 38 OFFCURVE",
"676 33 CURVE",
"676 33 OFFCURVE",
"671 195 OFFCURVE",
"675 219 CURVE",
"682 262 OFFCURVE",
"719 282 OFFCURVE",
"765 282 CURVE",
"771 282 OFFCURVE",
"772 288 OFFCURVE",
"772 293 CURVE",
"772 299 OFFCURVE",
"771 304 OFFCURVE",
"765 304 CURVE",
"440 304 LINE",
"433 304 OFFCURVE",
"432 299 OFFCURVE",
"432 293 CURVE",
"432 288 OFFCURVE",
"433 282 OFFCURVE",
"440 282 CURVE",
"530 282 OFFCURVE",
"538 247 OFFCURVE",
"541 222 CURVE SMOOTH",
"544 195 OFFCURVE",
"544 155 OFFCURVE",
"536 118 CURVE SMOOTH",
"525 66 OFFCURVE",
"489 20 OFFCURVE",
"391 22 CURVE SMOOTH",
"286 23 OFFCURVE",
"192 133 OFFCURVE",
"203 376 CURVE SMOOTH",
"210 536 OFFCURVE",
"256 720 OFFCURVE",
"418 713 CURVE",
"568 707 OFFCURVE",
"644 570 OFFCURVE",
"653 556 CURVE",
"657 550 OFFCURVE",
"664 549 OFFCURVE",
"668 551 CURVE",
"673 552 OFFCURVE",
"676 556 OFFCURVE",
"675 563 CURVE",
"674 572 OFFCURVE",
"636 738 OFFCURVE",
"636 738 CURVE",
"603 712 OFFCURVE",
"583 717 OFFCURVE",
"545 725 CURVE",
"498 735 OFFCURVE",
"473 750 OFFCURVE",
"410 751 CURVE SMOOTH",
"259 753 OFFCURVE",
"58 639 OFFCURVE",
"46 372 CURVE",
"35 116 OFFCURVE",
"255 -12 OFFCURVE",
"394 -13 CURVE SMOOTH"
);
}
);
width = 786;
}
);
unicode = 0047;
},
{
glyphname = H;
lastChange = "2020-06-21 16:35:09 +0000";
layers = (
{
layerId = "69412919-AED9-45FB-ADD8-4F440013F7DA";
paths = (
{
closed = 1;
nodes = (
"346 0 LINE SMOOTH",
"352 0 OFFCURVE",
"354 5 OFFCURVE",
"354 14 CURVE SMOOTH",
"354 24 OFFCURVE",
"352 29 OFFCURVE",
"346 29 CURVE SMOOTH",
"330 29 LINE SMOOTH",
"273 29 OFFCURVE",
"245 42 OFFCURVE",
"245 91 CURVE SMOOTH",
"245 635 LINE SMOOTH",
"245 681 OFFCURVE",
"270 697 OFFCURVE",
"330 697 CURVE SMOOTH",
"346 697 LINE SMOOTH",
"352 697 OFFCURVE",
"354 702 OFFCURVE",
"354 711 CURVE SMOOTH",
"354 719 OFFCURVE",
"352 726 OFFCURVE",
"346 726 CURVE SMOOTH",
"63 726 LINE SMOOTH",
"57 726 OFFCURVE",
"55 719 OFFCURVE",
"55 711 CURVE SMOOTH",
"55 702 OFFCURVE",
"57 697 OFFCURVE",
"63 697 CURVE SMOOTH",
"79 697 LINE SMOOTH",
"137 697 OFFCURVE",
"164 683 OFFCURVE",
"164 635 CURVE SMOOTH",
"164 91 LINE SMOOTH",
"164 44 OFFCURVE",
"140 29 OFFCURVE",
"79 29 CURVE SMOOTH",
"63 29 LINE SMOOTH",
"57 29 OFFCURVE",
"55 24 OFFCURVE",
"55 14 CURVE SMOOTH",
"55 5 OFFCURVE",
"57 0 OFFCURVE",
"63 0 CURVE SMOOTH"
);
},
{
closed = 1;
nodes = (
"827 0 LINE SMOOTH",
"832 0 OFFCURVE",
"834 5 OFFCURVE",
"834 14 CURVE SMOOTH",
"834 24 OFFCURVE",
"833 29 OFFCURVE",
"827 29 CURVE SMOOTH",
"812 29 LINE SMOOTH",
"757 29 OFFCURVE",
"725 42 OFFCURVE",
"725 91 CURVE SMOOTH",
"725 635 LINE SMOOTH",
"725 681 OFFCURVE",
"753 697 OFFCURVE",
"812 697 CURVE SMOOTH",
"827 697 LINE SMOOTH",
"832 697 OFFCURVE",
"834 702 OFFCURVE",
"834 711 CURVE SMOOTH",
"834 719 OFFCURVE",
"833 726 OFFCURVE",
"827 726 CURVE SMOOTH",
"544 726 LINE SMOOTH",
"539 726 OFFCURVE",
"537 719 OFFCURVE",
"537 711 CURVE SMOOTH",
"537 702 OFFCURVE",
"538 697 OFFCURVE",
"544 697 CURVE SMOOTH",
"559 697 LINE SMOOTH",
"614 697 OFFCURVE",
"646 684 OFFCURVE",
"646 635 CURVE SMOOTH",
"646 91 LINE SMOOTH",
"646 43 OFFCURVE",
"618 29 OFFCURVE",
"559 29 CURVE SMOOTH",
"544 29 LINE SMOOTH",
"539 29 OFFCURVE",
"537 24 OFFCURVE",
"537 14 CURVE SMOOTH",
"537 5 OFFCURVE",
"538 0 OFFCURVE",
"544 0 CURVE SMOOTH"
);
},
{
closed = 1;
nodes = (
"686 360 LINE",
"686 398 LINE",
"205 398 LINE",
"205 360 LINE"
);
}
);
width = 889;
},
{
layerId = "3FC96813-E7C5-45AC-9F0B-5DBEB42CEC4B";
paths = (
{
closed = 1;
nodes = (
"400 0 LINE",
"406 0 OFFCURVE",
"407 6 OFFCURVE",
"407 11 CURVE",
"407 16 OFFCURVE",
"406 21 OFFCURVE",
"400 21 CURVE",
"390 21 LINE",
"359 21 OFFCURVE",
"307 31 OFFCURVE",
"307 114 CURVE",
"308 630 LINE",
"308 713 OFFCURVE",
"359 722 OFFCURVE",
"390 722 CURVE",
"400 722 LINE",
"406 722 OFFCURVE",
"407 727 OFFCURVE",
"407 733 CURVE",
"407 738 OFFCURVE",
"406 744 OFFCURVE",
"400 744 CURVE",
"48 744 LINE",
"42 744 OFFCURVE",
"41 738 OFFCURVE",
"41 733 CURVE",
"41 727 OFFCURVE",
"42 722 OFFCURVE",
"48 722 CURVE",
"59 722 LINE",
"89 722 OFFCURVE",
"142 713 OFFCURVE",
"142 630 CURVE",
"141 114 LINE",
"141 31 OFFCURVE",
"89 21 OFFCURVE",
"59 21 CURVE",
"48 21 LINE",
"42 21 OFFCURVE",
"41 16 OFFCURVE",
"41 11 CURVE",
"41 6 OFFCURVE",
"42 0 OFFCURVE",
"48 0 CURVE"
);
},
{
closed = 1;
nodes = (
"832 0 LINE",
"838 0 OFFCURVE",
"839 6 OFFCURVE",
"839 11 CURVE",
"839 16 OFFCURVE",
"838 21 OFFCURVE",
"832 21 CURVE",
"822 21 LINE",
"791 21 OFFCURVE",
"739 31 OFFCURVE",
"739 114 CURVE",
"740 630 LINE",
"740 713 OFFCURVE",
"791 722 OFFCURVE",
"822 722 CURVE",
"832 722 LINE",
"838 722 OFFCURVE",
"839 727 OFFCURVE",
"839 733 CURVE",
"839 738 OFFCURVE",
"838 744 OFFCURVE",
"832 744 CURVE",
"480 744 LINE",
"474 744 OFFCURVE",
"473 738 OFFCURVE",
"473 733 CURVE",
"473 727 OFFCURVE",
"474 722 OFFCURVE",
"480 722 CURVE",
"490 722 LINE",
"521 722 OFFCURVE",
"573 713 OFFCURVE",
"573 630 CURVE",
"572 114 LINE",
"572 31 OFFCURVE",
"521 21 OFFCURVE",
"490 21 CURVE",
"480 21 LINE",
"474 21 OFFCURVE",
"473 16 OFFCURVE",
"473 11 CURVE",
"473 6 OFFCURVE",
"474 0 OFFCURVE",
"480 0 CURVE"
);
},
{
closed = 1;
nodes = (
"661 375 LINE",
"661 410 LINE",
"219 410 LINE",
"219 375 LINE"
);
}
);
width = 880;
},
{
layerId = "17F3AB05-7131-4B64-9C58-864369A22196";
paths = (
{
closed = 1;
nodes = (
"389 0 LINE SMOOTH",
"395 0 OFFCURVE",
"396 6 OFFCURVE",
"396 12 CURVE SMOOTH",
"396 18 OFFCURVE",
"395 23 OFFCURVE",
"389 23 CURVE SMOOTH",
"378 23 LINE SMOOTH",
"342 23 OFFCURVE",
"295 33 OFFCURVE",
"295 109 CURVE SMOOTH",
"295 631 LINE SMOOTH",
"295 707 OFFCURVE",
"341 717 OFFCURVE",
"378 717 CURVE SMOOTH",
"389 717 LINE SMOOTH",
"395 717 OFFCURVE",
"396 722 OFFCURVE",
"396 729 CURVE SMOOTH",
"396 734 OFFCURVE",
"395 740 OFFCURVE",
"389 740 CURVE SMOOTH",
"51 740 LINE SMOOTH",
"45 740 OFFCURVE",
"44 734 OFFCURVE",
"44 729 CURVE SMOOTH",
"44 722 OFFCURVE",
"45 717 OFFCURVE",
"51 717 CURVE SMOOTH",
"63 717 LINE SMOOTH",
"99 717 OFFCURVE",
"146 707 OFFCURVE",
"146 631 CURVE SMOOTH",
"146 109 LINE SMOOTH",
"146 34 OFFCURVE",
"99 23 OFFCURVE",
"63 23 CURVE SMOOTH",
"51 23 LINE SMOOTH",
"45 23 OFFCURVE",
"44 18 OFFCURVE",
"44 12 CURVE SMOOTH",
"44 6 OFFCURVE",
"45 0 OFFCURVE",
"51 0 CURVE SMOOTH"
);
},
{
closed = 1;
nodes = (
"831 0 LINE SMOOTH",
"837 0 OFFCURVE",
"838 6 OFFCURVE",
"838 12 CURVE SMOOTH",
"838 18 OFFCURVE",
"837 23 OFFCURVE",
"831 23 CURVE SMOOTH",
"820 23 LINE SMOOTH",
"784 23 OFFCURVE",
"736 33 OFFCURVE",
"736 109 CURVE SMOOTH",
"737 631 LINE SMOOTH",
"737 707 OFFCURVE",
"783 717 OFFCURVE",
"820 717 CURVE SMOOTH",
"831 717 LINE SMOOTH",
"837 717 OFFCURVE",
"838 722 OFFCURVE",
"838 729 CURVE SMOOTH",
"838 734 OFFCURVE",
"837 740 OFFCURVE",
"831 740 CURVE SMOOTH",
"493 740 LINE SMOOTH",
"487 740 OFFCURVE",
"486 734 OFFCURVE",
"486 729 CURVE SMOOTH",
"486 722 OFFCURVE",
"487 717 OFFCURVE",
"493 717 CURVE SMOOTH",
"504 717 LINE SMOOTH",
"540 717 OFFCURVE",
"588 707 OFFCURVE",
"588 631 CURVE SMOOTH",
"587 109 LINE SMOOTH",
"587 33 OFFCURVE",
"540 23 OFFCURVE",
"504 23 CURVE SMOOTH",
"493 23 LINE SMOOTH",
"487 23 OFFCURVE",
"486 18 OFFCURVE",
"486 12 CURVE SMOOTH",
"486 6 OFFCURVE",
"487 0 OFFCURVE",
"493 0 CURVE SMOOTH"
);
},
{
closed = 1;
nodes = (
"666 372 LINE",
"666 408 LINE",
"216 408 LINE",
"216 372 LINE"
);
}
);
width = 882;
}
);
unicode = 0048;
},
{
glyphname = I;
lastChange = "2020-06-21 16:35:09 +0000";
layers = (
{
anchors = (
{
name = bottom;
position = "{182, 0}";
},
{
name = ogonek;
position = "{327, 10}";
},
{
name = top;
position = "{182, 726}";
},
{
name = topleft;
position = "{20, 726}";
}
);
layerId = "69412919-AED9-45FB-ADD8-4F440013F7DA";
paths = (
{
closed = 1;
nodes = (
"345 0 LINE SMOOTH",
"351 0 OFFCURVE",
"353 5 OFFCURVE",
"353 14 CURVE SMOOTH",
"353 23 OFFCURVE",
"352 28 OFFCURVE",
"345 28 CURVE SMOOTH",
"330 28 LINE SMOOTH",
"271 28 OFFCURVE",
"244 42 OFFCURVE",
"244 90 CURVE SMOOTH",
"244 635 LINE SMOOTH",
"244 682 OFFCURVE",
"268 697 OFFCURVE",
"330 697 CURVE SMOOTH",
"345 697 LINE SMOOTH",
"351 697 OFFCURVE",
"353 702 OFFCURVE",
"353 712 CURVE SMOOTH",
"353 720 OFFCURVE",
"352 726 OFFCURVE",
"345 726 CURVE SMOOTH",
"62 726 LINE SMOOTH",
"57 726 OFFCURVE",
"55 720 OFFCURVE",
"55 712 CURVE SMOOTH",
"55 702 OFFCURVE",
"57 697 OFFCURVE",
"62 697 CURVE SMOOTH",
"78 697 LINE SMOOTH",
"135 697 OFFCURVE",
"164 683 OFFCURVE",
"164 635 CURVE SMOOTH",
"164 90 LINE SMOOTH",
"164 45 OFFCURVE",
"138 28 OFFCURVE",
"78 28 CURVE SMOOTH",
"62 28 LINE SMOOTH",
"57 28 OFFCURVE",
"55 23 OFFCURVE",
"55 14 CURVE SMOOTH",
"55 5 OFFCURVE",
"57 0 OFFCURVE",
"62 0 CURVE SMOOTH"
);
}
);
width = 363;
},
{
anchors = (
{
name = bottom;
position = "{225, 0}";
},
{
name = ogonek;
position = "{404, 10}";
},
{
name = top;
position = "{225, 744}";
},
{
name = topleft;
position = "{20, 744}";
}
);
layerId = "3FC96813-E7C5-45AC-9F0B-5DBEB42CEC4B";
paths = (
{
closed = 1;
nodes = (
"400 0 LINE SMOOTH",
"406 0 OFFCURVE",
"407 6 OFFCURVE",
"407 11 CURVE SMOOTH",
"407 16 OFFCURVE",
"406 22 OFFCURVE",
"400 22 CURVE SMOOTH",
"390 22 LINE SMOOTH",
"359 22 OFFCURVE",
"306 31 OFFCURVE",
"306 114 CURVE SMOOTH",
"308 630 LINE SMOOTH",
"308 713 OFFCURVE",
"359 722 OFFCURVE",
"390 722 CURVE SMOOTH",
"400 722 LINE SMOOTH",
"406 722 OFFCURVE",
"407 728 OFFCURVE",
"407 733 CURVE SMOOTH",
"407 738 OFFCURVE",
"406 744 OFFCURVE",
"400 744 CURVE SMOOTH",
"48 744 LINE SMOOTH",
"42 744 OFFCURVE",
"41 738 OFFCURVE",
"41 733 CURVE SMOOTH",
"41 728 OFFCURVE",
"42 722 OFFCURVE",
"48 722 CURVE SMOOTH",
"58 722 LINE SMOOTH",
"89 722 OFFCURVE",
"141 713 OFFCURVE",
"141 630 CURVE SMOOTH",
"140 114 LINE SMOOTH",
"140 31 OFFCURVE",
"89 22 OFFCURVE",
"58 22 CURVE SMOOTH",
"48 22 LINE SMOOTH",
"42 22 OFFCURVE",
"41 16 OFFCURVE",
"41 11 CURVE SMOOTH",
"41 6 OFFCURVE",
"42 0 OFFCURVE",
"48 0 CURVE SMOOTH"
);
}
);
width = 449;
},
{
anchors = (
{
name = bottom;
position = "{216, 0}";
},
{
name = ogonek;
position = "{389, 10}";
},
{
name = top;
position = "{216, 740}";
},
{
name = topleft;
position = "{20, 740}";
}
);
layerId = "17F3AB05-7131-4B64-9C58-864369A22196";
paths = (
{
closed = 1;
nodes = (
"389 0 LINE SMOOTH",
"395 0 OFFCURVE",
"396 6 OFFCURVE",
"396 12 CURVE SMOOTH",
"396 17 OFFCURVE",
"395 23 OFFCURVE",
"389 23 CURVE SMOOTH",
"378 23 LINE SMOOTH",
"341 23 OFFCURVE",
"294 33 OFFCURVE",
"294 109 CURVE SMOOTH",
"295 631 LINE SMOOTH",
"295 707 OFFCURVE",
"341 717 OFFCURVE",
"378 717 CURVE SMOOTH",
"389 717 LINE SMOOTH",
"395 717 OFFCURVE",
"396 723 OFFCURVE",
"396 729 CURVE SMOOTH",
"396 734 OFFCURVE",
"395 740 OFFCURVE",
"389 740 CURVE SMOOTH",
"51 740 LINE SMOOTH",
"45 740 OFFCURVE",
"44 734 OFFCURVE",
"44 729 CURVE SMOOTH",
"44 723 OFFCURVE",
"45 717 OFFCURVE",
"51 717 CURVE SMOOTH",
"62 717 LINE SMOOTH",
"98 717 OFFCURVE",
"146 707 OFFCURVE",
"146 631 CURVE SMOOTH",
"145 109 LINE SMOOTH",
"145 34 OFFCURVE",
"99 23 OFFCURVE",
"62 23 CURVE SMOOTH",
"51 23 LINE SMOOTH",
"45 23 OFFCURVE",
"44 17 OFFCURVE",
"44 12 CURVE SMOOTH",
"44 6 OFFCURVE",
"45 0 OFFCURVE",
"51 0 CURVE SMOOTH"
);
}
);
width = 432;
}
);
unicode = 0049;
},
{
glyphname = J;
lastChange = "2020-06-21 16:35:09 +0000";
layers = (
{
layerId = "69412919-AED9-45FB-ADD8-4F440013F7DA";
paths = (
{
closed = 1;
nodes = (
"168 -165 OFFCURVE",
"285 -128 OFFCURVE",
"287 54 CURVE SMOOTH",
"288 151 OFFCURVE",
"286 635 OFFCURVE",
"286 635 CURVE",
"286 682 OFFCURVE",
"314 697 OFFCURVE",
"373 697 CURVE SMOOTH",
"388 697 LINE SMOOTH",
"393 697 OFFCURVE",
"396 702 OFFCURVE",
"396 712 CURVE SMOOTH",
"396 720 OFFCURVE",
"394 726 OFFCURVE",
"388 726 CURVE SMOOTH",
"105 726 LINE SMOOTH",
"100 726 OFFCURVE",
"98 720 OFFCURVE",
"98 712 CURVE SMOOTH",
"98 702 OFFCURVE",
"100 697 OFFCURVE",
"105 697 CURVE SMOOTH",
"120 697 LINE SMOOTH",
"175 697 OFFCURVE",
"207 685 OFFCURVE",
"207 635 CURVE SMOOTH",
"207 40 LINE SMOOTH",
"207 -30 OFFCURVE",
"199 -118 OFFCURVE",
"152 -118 CURVE SMOOTH",
"140 -118 OFFCURVE",
"127 -112 OFFCURVE",
"116 -102 CURVE SMOOTH",
"108 -95 OFFCURVE",
"92 -78 OFFCURVE",
"83 -71 CURVE SMOOTH",
"62 -55 OFFCURVE",
"48 -50 OFFCURVE",
"33 -50 CURVE SMOOTH",
"16 -50 OFFCURVE",
"-8 -68 OFFCURVE",
"-3 -100 CURVE SMOOTH",
"2 -135 OFFCURVE",
"47 -165 OFFCURVE",
"102 -165 CURVE SMOOTH"
);
}
);
width = 437;
},
{
layerId = "3FC96813-E7C5-45AC-9F0B-5DBEB42CEC4B";
paths = (
{
closed = 1;
nodes = (
"204 -173 OFFCURVE",
"387 -108 OFFCURVE",
"390 147 CURVE SMOOTH",
"393 402 OFFCURVE",
"390 629 OFFCURVE",
"390 629 CURVE",
"390 712 OFFCURVE",
"442 721 OFFCURVE",
"472 721 CURVE SMOOTH",
"482 721 LINE SMOOTH",
"488 721 OFFCURVE",
"489 726 OFFCURVE",
"489 732 CURVE SMOOTH",
"489 737 OFFCURVE",
"488 743 OFFCURVE",
"482 743 CURVE SMOOTH",
"130 743 LINE SMOOTH",
"124 743 OFFCURVE",
"123 737 OFFCURVE",
"123 732 CURVE SMOOTH",
"123 726 OFFCURVE",
"124 721 OFFCURVE",
"130 721 CURVE SMOOTH",
"141 721 LINE SMOOTH",
"171 721 OFFCURVE",
"224 712 OFFCURVE",
"224 629 CURVE SMOOTH",
"224 166 LINE SMOOTH",
"224 -59 OFFCURVE",
"201 -116 OFFCURVE",
"162 -127 CURVE SMOOTH",
"144 -132 OFFCURVE",
"130 -111 OFFCURVE",
"111 -87 CURVE SMOOTH",
"100 -73 OFFCURVE",
"80 -48 OFFCURVE",
"68 -37 CURVE SMOOTH",
"48 -18 OFFCURVE",
"29 -12 OFFCURVE",
"11 -12 CURVE SMOOTH",
"-17 -12 OFFCURVE",
"-43 -32 OFFCURVE",
"-43 -69 CURVE SMOOTH",
"-43 -124 OFFCURVE",
"27 -173 OFFCURVE",
"111 -173 CURVE SMOOTH"
);
}
);
width = 522;
},
{
layerId = "17F3AB05-7131-4B64-9C58-864369A22196";
paths = (
{
closed = 1;
nodes = (
"197 -171 OFFCURVE",
"367 -112 OFFCURVE",
"369 128 CURVE SMOOTH",
"372 352 OFFCURVE",
"369 630 OFFCURVE",
"369 630 CURVE",
"369 706 OFFCURVE",
"416 716 OFFCURVE",
"452 716 CURVE SMOOTH",
"463 716 LINE SMOOTH",
"469 716 OFFCURVE",
"470 721 OFFCURVE",
"470 728 CURVE SMOOTH",
"470 734 OFFCURVE",
"469 740 OFFCURVE",
"463 740 CURVE SMOOTH",
"125 740 LINE SMOOTH",
"119 740 OFFCURVE",
"118 734 OFFCURVE",
"118 728 CURVE SMOOTH",
"118 721 OFFCURVE",
"119 716 OFFCURVE",
"125 716 CURVE SMOOTH",
"137 716 LINE SMOOTH",
"172 716 OFFCURVE",
"221 707 OFFCURVE",
"221 630 CURVE SMOOTH",
"221 141 LINE SMOOTH",
"221 -53 OFFCURVE",
"201 -116 OFFCURVE",
"160 -125 CURVE SMOOTH",
"143 -129 OFFCURVE",
"129 -111 OFFCURVE",
"112 -90 CURVE SMOOTH",
"102 -77 OFFCURVE",
"82 -54 OFFCURVE",
"71 -44 CURVE SMOOTH",
"51 -25 OFFCURVE",
"33 -20 OFFCURVE",
"15 -20 CURVE SMOOTH",
"-10 -20 OFFCURVE",
"-36 -39 OFFCURVE",
"-35 -75 CURVE SMOOTH",
"-34 -126 OFFCURVE",
"31 -171 OFFCURVE",
"109 -171 CURVE SMOOTH"
);
}
);
width = 505;
}
);
unicode = 004A;
},
{
glyphname = K;
lastChange = "2020-06-21 16:35:09 +0000";
layers = (
{
layerId = "69412919-AED9-45FB-ADD8-4F440013F7DA";
paths = (
{
closed = 1;
nodes = (
"325 360 OFFCURVE",
"590 619 OFFCURVE",
"607 634 CURVE",
"660 683 OFFCURVE",
"708 697 OFFCURVE",
"745 697 CURVE",
"751 697 OFFCURVE",
"753 702 OFFCURVE",
"753 712 CURVE",
"753 721 OFFCURVE",
"752 726 OFFCURVE",
"745 726 CURVE",
"486 726 LINE",
"481 726 OFFCURVE",
"478 721 OFFCURVE",
"478 712 CURVE",
"478 702 OFFCURVE",
"481 697 OFFCURVE",
"486 697 CURVE",
"552 697 OFFCURVE",
"572 662 OFFCURVE",
"540 628 CURVE",
"508 595 OFFCURVE",
"326 413 OFFCURVE",
"203 291 CURVE",
"203 239 LINE"
);
},
{
closed = 1;
nodes = (
"346 0 LINE",
"351 0 OFFCURVE",
"353 7 OFFCURVE",
"353 15 CURVE",
"353 24 OFFCURVE",
"351 29 OFFCURVE",
"346 29 CURVE",
"329 29 LINE",
"271 29 OFFCURVE",
"244 43 OFFCURVE",
"244 91 CURVE",
"244 635 LINE",
"244 682 OFFCURVE",
"268 697 OFFCURVE",
"329 697 CURVE",
"346 697 LINE",
"351 697 OFFCURVE",
"353 702 OFFCURVE",
"353 712 CURVE",
"353 721 OFFCURVE",
"351 726 OFFCURVE",
"346 726 CURVE",
"62 726 LINE",
"56 726 OFFCURVE",
"55 721 OFFCURVE",
"55 712 CURVE",
"55 702 OFFCURVE",
"56 697 OFFCURVE",
"62 697 CURVE",
"77 697 LINE",
"135 697 OFFCURVE",
"163 684 OFFCURVE",
"163 635 CURVE",
"163 91 LINE",
"163 45 OFFCURVE",
"138 29 OFFCURVE",
"77 29 CURVE",
"62 29 LINE",
"56 29 OFFCURVE",
"55 24 OFFCURVE",
"55 15 CURVE",
"55 7 OFFCURVE",
"56 0 OFFCURVE",
"62 0 CURVE"
);
},
{
closed = 1;
nodes = (
"795 0 LINE",
"801 0 OFFCURVE",
"802 7 OFFCURVE",
"802 15 CURVE",
"802 24 OFFCURVE",
"801 29 OFFCURVE",
"795 29 CURVE",
"736 29 OFFCURVE",
"704 48 OFFCURVE",
"651 110 CURVE",
"597 171 OFFCURVE",
"376 438 OFFCURVE",
"376 438 CURVE",
"319 378 LINE",
"319 378 OFFCURVE",
"522 138 OFFCURVE",
"562 90 CURVE",
"601 42 OFFCURVE",
"558 29 OFFCURVE",
"496 29 CURVE",
"491 29 OFFCURVE",
"489 24 OFFCURVE",
"489 15 CURVE",
"489 7 OFFCURVE",
"490 0 OFFCURVE",
"496 0 CURVE"
);
}
);
width = 812;
},
{
layerId = "3FC96813-E7C5-45AC-9F0B-5DBEB42CEC4B";
paths = (
{
closed = 1;
nodes = (
"219 206 OFFCURVE",
"572 590 OFFCURVE",
"624 639 CURVE",
"689 700 OFFCURVE",
"757 723 OFFCURVE",
"820 723 CURVE",
"826 723 OFFCURVE",
"828 727 OFFCURVE",
"828 734 CURVE",
"828 740 OFFCURVE",
"826 744 OFFCURVE",
"820 744 CURVE",
"501 744 LINE",
"495 744 OFFCURVE",
"494 738 OFFCURVE",
"494 734 CURVE",
"494 729 OFFCURVE",
"495 723 OFFCURVE",
"501 723 CURVE",
"569 723 OFFCURVE",
"608 693 OFFCURVE",
"570 644 CURVE",
"537 603 OFFCURVE",
"219 259 OFFCURVE",
"219 259 CURVE",
"219 206 LINE"
);
},
{
closed = 1;
nodes = (
"400 0 LINE",
"406 0 OFFCURVE",
"407 6 OFFCURVE",
"407 11 CURVE",
"407 16 OFFCURVE",
"406 21 OFFCURVE",
"400 21 CURVE",
"390 21 LINE",
"359 21 OFFCURVE",
"307 31 OFFCURVE",
"307 114 CURVE",
"308 630 LINE",
"308 713 OFFCURVE",
"359 722 OFFCURVE",
"390 722 CURVE",
"400 722 LINE",
"406 722 OFFCURVE",
"407 727 OFFCURVE",
"407 733 CURVE",
"407 738 OFFCURVE",
"406 744 OFFCURVE",
"400 744 CURVE",
"48 744 LINE",
"42 744 OFFCURVE",
"41 738 OFFCURVE",
"41 733 CURVE",
"41 727 OFFCURVE",
"42 722 OFFCURVE",
"48 722 CURVE",
"59 722 LINE",
"89 722 OFFCURVE",
"142 713 OFFCURVE",
"142 630 CURVE",
"141 114 LINE",
"141 31 OFFCURVE",
"89 21 OFFCURVE",
"59 21 CURVE",
"48 21 LINE",
"42 21 OFFCURVE",
"41 16 OFFCURVE",
"41 11 CURVE",
"41 6 OFFCURVE",
"42 0 OFFCURVE",
"48 0 CURVE"
);
},
{
closed = 1;
nodes = (
"859 0 LINE",
"864 0 OFFCURVE",
"866 6 OFFCURVE",
"866 10 CURVE",
"866 15 OFFCURVE",
"865 21 OFFCURVE",
"859 21 CURVE",
"785 21 OFFCURVE",
"768 57 OFFCURVE",
"716 122 CURVE",
"695 148 OFFCURVE",
"459 489 OFFCURVE",
"459 489 CURVE",
"343 366 LINE",
"343 366 OFFCURVE",
"509 137 OFFCURVE",
"525 114 CURVE",
"570 48 OFFCURVE",
"560 21 OFFCURVE",
"500 21 CURVE",
"494 21 OFFCURVE",
"492 17 OFFCURVE",
"492 10 CURVE",
"492 4 OFFCURVE",
"494 0 OFFCURVE",
"500 0 CURVE"
);
}
);
width = 857;
},
{
layerId = "17F3AB05-7131-4B64-9C58-864369A22196";
paths = (
{
closed = 1;
nodes = (
"240 237 OFFCURVE",
"576 596 OFFCURVE",
"621 638 CURVE",
"683 697 OFFCURVE",
"747 718 OFFCURVE",
"805 718 CURVE",
"811 718 OFFCURVE",
"813 722 OFFCURVE",
"813 730 CURVE",
"813 736 OFFCURVE",
"811 740 OFFCURVE",
"805 740 CURVE",
"498 740 LINE",
"492 740 OFFCURVE",
"491 735 OFFCURVE",
"491 730 CURVE",
"491 724 OFFCURVE",
"492 718 OFFCURVE",
"498 718 CURVE",
"566 718 OFFCURVE",
"601 687 OFFCURVE",
"564 641 CURVE",
"531 601 OFFCURVE",
"240 290 OFFCURVE",
"216 265 CURVE",
"216 213 LINE"
);
},
{
closed = 1;
nodes = (
"389 0 LINE",
"395 0 OFFCURVE",
"396 6 OFFCURVE",
"396 12 CURVE",
"396 18 OFFCURVE",
"395 23 OFFCURVE",
"389 23 CURVE",
"378 23 LINE",
"341 23 OFFCURVE",
"294 33 OFFCURVE",
"294 109 CURVE",
"295 631 LINE",
"295 707 OFFCURVE",
"341 717 OFFCURVE",
"378 717 CURVE",
"389 717 LINE",
"395 717 OFFCURVE",
"396 722 OFFCURVE",
"396 729 CURVE",
"396 735 OFFCURVE",
"395 740 OFFCURVE",
"389 740 CURVE",
"51 740 LINE",
"45 740 OFFCURVE",
"44 735 OFFCURVE",
"44 729 CURVE",
"44 722 OFFCURVE",
"45 717 OFFCURVE",
"51 717 CURVE",
"63 717 LINE",
"98 717 OFFCURVE",
"146 707 OFFCURVE",
"146 631 CURVE",
"145 109 LINE",
"145 34 OFFCURVE",
"99 23 OFFCURVE",
"63 23 CURVE",
"51 23 LINE",
"45 23 OFFCURVE",
"44 18 OFFCURVE",
"44 12 CURVE",
"44 6 OFFCURVE",
"45 0 OFFCURVE",
"51 0 CURVE"
);
},
{
closed = 1;
nodes = (
"846 0 LINE",
"851 0 OFFCURVE",
"853 6 OFFCURVE",
"853 11 CURVE",
"853 17 OFFCURVE",
"852 23 OFFCURVE",
"846 23 CURVE",
"775 23 OFFCURVE",
"755 55 OFFCURVE",
"703 120 CURVE",
"675 153 OFFCURVE",
"442 479 OFFCURVE",
"442 479 CURVE",
"338 368 LINE",
"338 368 OFFCURVE",
"512 137 OFFCURVE",
"532 109 CURVE",
"576 47 OFFCURVE",
"560 23 OFFCURVE",
"499 23 CURVE",
"493 23 OFFCURVE",
"491 18 OFFCURVE",
"491 11 CURVE",
"491 5 OFFCURVE",
"493 0 OFFCURVE",
"499 0 CURVE"
);
}
);
width = 848;
}
);
unicode = 004B;
},
{
glyphname = L;
lastChange = "2020-06-21 16:35:09 +0000";
layers = (
{
layerId = "69412919-AED9-45FB-ADD8-4F440013F7DA";
paths = (
{
closed = 1;
nodes = (
"602 0 LINE",
"622 57 OFFCURVE",
"640 100 OFFCURVE",
"662 161 CURVE",
"665 167 OFFCURVE",
"661 173 OFFCURVE",
"655 176 CURVE",
"647 180 OFFCURVE",
"642 179 OFFCURVE",
"638 174 CURVE",
"589 105 OFFCURVE",
"525 33 OFFCURVE",
"394 30 CURVE",
"355 29 OFFCURVE",
"346 29 OFFCURVE",
"331 30 CURVE",
"275 33 OFFCURVE",
"244 42 OFFCURVE",
"244 91 CURVE",
"244 635 LINE",
"244 681 OFFCURVE",
"272 697 OFFCURVE",
"331 697 CURVE",
"346 697 LINE",
"351 697 OFFCURVE",
"353 702 OFFCURVE",
"353 711 CURVE",
"353 720 OFFCURVE",
"352 726 OFFCURVE",
"346 726 CURVE",
"62 726 LINE",
"57 726 OFFCURVE",
"55 720 OFFCURVE",
"55 711 CURVE",
"55 702 OFFCURVE",
"56 697 OFFCURVE",
"62 697 CURVE",
"78 697 LINE",
"133 697 OFFCURVE",
"164 684 OFFCURVE",
"164 635 CURVE",
"164 91 LINE",
"164 43 OFFCURVE",
"137 29 OFFCURVE",
"78 29 CURVE",
"62 29 LINE",
"57 29 OFFCURVE",
"55 24 OFFCURVE",
"55 14 CURVE",
"55 5 OFFCURVE",
"56 0 OFFCURVE",
"62 0 CURVE"
);
}
);
width = 712;
},
{
layerId = "3FC96813-E7C5-45AC-9F0B-5DBEB42CEC4B";
paths = (
{
closed = 1;
nodes = (
"655 0 LINE",
"676 59 OFFCURVE",
"711 152 OFFCURVE",
"729 202 CURVE",
"732 207 OFFCURVE",
"729 212 OFFCURVE",
"724 215 CURVE",
"718 218 OFFCURVE",
"713 217 OFFCURVE",
"709 213 CURVE",
"670 157 OFFCURVE",
"579 37 OFFCURVE",
"443 30 CURVE",
"417 28 OFFCURVE",
"419 28 OFFCURVE",
"397 30 CURVE",
"343 33 OFFCURVE",
"308 42 OFFCURVE",
"308 93 CURVE",
"308 631 LINE",
"308 714 OFFCURVE",
"360 723 OFFCURVE",
"391 723 CURVE",
"401 723 LINE",
"407 723 OFFCURVE",
"408 727 OFFCURVE",
"408 733 CURVE",
"408 740 OFFCURVE",
"407 744 OFFCURVE",
"401 744 CURVE",
"48 744 LINE",
"43 744 OFFCURVE",
"41 740 OFFCURVE",
"41 734 CURVE",
"41 727 OFFCURVE",
"42 723 OFFCURVE",
"48 723 CURVE",
"59 723 LINE",
"89 723 OFFCURVE",
"142 714 OFFCURVE",
"142 631 CURVE",
"142 113 LINE",
"142 30 OFFCURVE",
"89 21 OFFCURVE",
"59 21 CURVE",
"48 21 LINE",
"43 21 OFFCURVE",
"41 17 OFFCURVE",
"41 11 CURVE",
"41 4 OFFCURVE",
"42 0 OFFCURVE",
"48 0 CURVE"
);
}
);
width = 762;
},
{
layerId = "17F3AB05-7131-4B64-9C58-864369A22196";
paths = (
{
closed = 1;
nodes = (
"644 0 LINE",
"665 59 OFFCURVE",
"697 142 OFFCURVE",
"716 194 CURVE",
"719 199 OFFCURVE",
"715 204 OFFCURVE",
"710 207 CURVE",
"704 210 OFFCURVE",
"699 209 OFFCURVE",
"695 205 CURVE",
"654 147 OFFCURVE",
"568 36 OFFCURVE",
"433 30 CURVE",
"405 28 OFFCURVE",
"404 28 OFFCURVE",
"384 30 CURVE",
"329 33 OFFCURVE",
"295 42 OFFCURVE",
"295 93 CURVE",
"295 632 LINE",
"295 707 OFFCURVE",
"342 718 OFFCURVE",
"379 718 CURVE",
"390 718 LINE",
"396 718 OFFCURVE",
"397 722 OFFCURVE",
"397 729 CURVE",
"397 736 OFFCURVE",
"396 740 OFFCURVE",
"390 740 CURVE",
"51 740 LINE",
"46 740 OFFCURVE",
"44 736 OFFCURVE",
"44 729 CURVE",
"44 722 OFFCURVE",
"45 718 OFFCURVE",
"51 718 CURVE",
"63 718 LINE",
"98 718 OFFCURVE",
"146 708 OFFCURVE",
"146 632 CURVE",
"146 109 LINE",
"146 33 OFFCURVE",
"99 23 OFFCURVE",
"63 23 CURVE",
"51 23 LINE",
"46 23 OFFCURVE",
"44 18 OFFCURVE",
"44 12 CURVE",
"44 4 OFFCURVE",
"45 0 OFFCURVE",
"51 0 CURVE"
);
}
);
width = 752;
}
);
unicode = 004C;
},
{
glyphname = M;
lastChange = "2020-06-21 16:35:09 +0000";
layers = (
{
layerId = "69412919-AED9-45FB-ADD8-4F440013F7DA";
paths = (
{
closed = 1;
nodes = (
"307.562 0 LINE",
"312.435 0 OFFCURVE",
"314.384 5.848 OFFCURVE",
"314.384 14.62 CURVE",
"314.384 23.392 OFFCURVE",
"312.435 28.265 OFFCURVE",
"307.562 28.265 CURVE",
"291.967 28.265 LINE",
"254.93 28.265 OFFCURVE",
"206.197 60.429 OFFCURVE",
"206.197 108.188 CURVE",
"206 633 LINE",
"474.229 0 LINE",
"485.924 0 LINE",
"761 632 LINE",
"760.779 90.644 LINE",
"760.779 44.834 OFFCURVE",
"735.437 28.265 OFFCURVE",
"675.008 28.265 CURVE",
"658.439 28.265 LINE",
"653.566 28.265 OFFCURVE",
"651.617 23.392 OFFCURVE",
"651.617 14.62 CURVE",
"651.617 5.848 OFFCURVE",
"653.566 0 OFFCURVE",
"658.439 0 CURVE",
"939.141 0 LINE",
"944.989 0 OFFCURVE",
"945.964 5.848 OFFCURVE",
"945.964 14.62 CURVE",
"945.964 23.392 OFFCURVE",
"944.989 28.265 OFFCURVE",
"939.141 28.265 CURVE",
"923.547 28.265 LINE",
"865.067 28.265 OFFCURVE",
"838.751 42.885 OFFCURVE",
"838.751 90.644 CURVE",
"839 636 LINE",
"839 682 OFFCURVE",
"862 697 OFFCURVE",
"924 697 CURVE",
"939 697 LINE",
"945 697 OFFCURVE",
"946 702 OFFCURVE",
"946 713 CURVE",
"946 721 OFFCURVE",
"945 726 OFFCURVE",
"939 726 CURVE",
"761 726 LINE",
"500.544 134.503 LINE",
"253 726 LINE",
"66 726 LINE",
"60 726 OFFCURVE",
"58 721 OFFCURVE",
"58 713 CURVE",
"58 702 OFFCURVE",
"60 697 OFFCURVE",
"66 697 CURVE",
"80 697 LINE",
"139 697 OFFCURVE",
"167 684 OFFCURVE",
"167 636 CURVE",
"167.211 108.188 LINE",
"167.211 61.404 OFFCURVE",
"121.402 28.265 OFFCURVE",
"80.466 28.265 CURVE",
"65.846 28.265 LINE",
"59.998 28.265 OFFCURVE",
"58.049 23.392 OFFCURVE",
"58.049 14.62 CURVE",
"58.049 5.848 OFFCURVE",
"59.998 0 OFFCURVE",
"65.846 0 CURVE"
);
}
);
width = 1013;
},
{
layerId = "3FC96813-E7C5-45AC-9F0B-5DBEB42CEC4B";
paths = (
{
closed = 1;
nodes = (
"257 0 LINE SMOOTH",
"263 0 OFFCURVE",
"264 6 OFFCURVE",
"264 11 CURVE SMOOTH",
"264 16 OFFCURVE",
"263 21 OFFCURVE",
"257 21 CURVE SMOOTH",
"250 21 LINE SMOOTH",
"212 21 OFFCURVE",
"164 48 OFFCURVE",
"164 119 CURVE SMOOTH",
"164 624 LINE",
"396 0 LINE",
"431 0 LINE",
"660 650 LINE",
"659 114 LINE SMOOTH",
"659 31 OFFCURVE",
"607 21 OFFCURVE",
"577 21 CURVE SMOOTH",
"566 21 LINE SMOOTH",
"560 21 OFFCURVE",
"559 16 OFFCURVE",
"559 11 CURVE SMOOTH",
"559 6 OFFCURVE",
"560 0 OFFCURVE",
"566 0 CURVE SMOOTH",
"916 0 LINE SMOOTH",
"922 0 OFFCURVE",
"923 6 OFFCURVE",
"923 11 CURVE SMOOTH",
"923 16 OFFCURVE",
"922 21 OFFCURVE",
"916 21 CURVE SMOOTH",
"906 21 LINE SMOOTH",
"875 21 OFFCURVE",
"823 31 OFFCURVE",
"823 114 CURVE SMOOTH",
"824 630 LINE SMOOTH",
"824 713 OFFCURVE",
"875 722 OFFCURVE",
"906 722 CURVE SMOOTH",
"916 722 LINE SMOOTH",
"922 722 OFFCURVE",
"923 727 OFFCURVE",
"923 733 CURVE SMOOTH",
"923 738 OFFCURVE",
"922 744 OFFCURVE",
"916 744 CURVE SMOOTH",
"650 744 LINE",
"485 264 LINE",
"299 744 LINE",
"30 744 LINE SMOOTH",
"24 744 OFFCURVE",
"23 738 OFFCURVE",
"23 733 CURVE SMOOTH",
"23 728 OFFCURVE",
"24 723 OFFCURVE",
"30 723 CURVE SMOOTH",
"38 723 LINE SMOOTH",
"75 723 OFFCURVE",
"123 713 OFFCURVE",
"123 666 CURVE SMOOTH",
"123 119 LINE SMOOTH",
"123 48 OFFCURVE",
"76 21 OFFCURVE",
"38 21 CURVE SMOOTH",
"30 21 LINE SMOOTH",
"24 21 OFFCURVE",
"23 16 OFFCURVE",
"23 11 CURVE SMOOTH",
"23 6 OFFCURVE",
"24 0 OFFCURVE",
"30 0 CURVE SMOOTH"
);
}
);
width = 964;
},
{
layerId = "17F3AB05-7131-4B64-9C58-864369A22196";
paths = (
{
closed = 1;
nodes = (
"267 0 LINE",
"273 0 OFFCURVE",
"274 6 OFFCURVE",
"274 12 CURVE",
"274 17 OFFCURVE",
"273 22 OFFCURVE",
"267 22 CURVE",
"258 22 LINE",
"221 22 OFFCURVE",
"172 50 OFFCURVE",
"172 117 CURVE",
"172 626 LINE",
"412 0 LINE",
"442 0 LINE",
"680 646 LINE",
"679 109 LINE",
"679 34 OFFCURVE",
"633 22 OFFCURVE",
"597 22 CURVE",
"584 22 LINE",
"579 22 OFFCURVE",
"578 17 OFFCURVE",
"578 12 CURVE",
"578 6 OFFCURVE",
"579 0 OFFCURVE",
"584 0 CURVE",
"921 0 LINE",
"927 0 OFFCURVE",
"928 6 OFFCURVE",
"928 12 CURVE",
"928 17 OFFCURVE",
"927 22 OFFCURVE",
"921 22 CURVE",
"910 22 LINE",
"873 22 OFFCURVE",
"826 33 OFFCURVE",
"826 109 CURVE",
"827 631 LINE",
"827 707 OFFCURVE",
"872 717 OFFCURVE",
"910 717 CURVE",
"921 717 LINE",
"927 717 OFFCURVE",
"928 722 OFFCURVE",
"928 729 CURVE",
"928 735 OFFCURVE",
"927 740 OFFCURVE",
"921 740 CURVE",
"672 740 LINE",
"488 238 LINE",
"290 740 LINE",
"37 740 LINE",
"31 740 OFFCURVE",
"30 735 OFFCURVE",
"30 729 CURVE",
"30 723 OFFCURVE",
"31 718 OFFCURVE",
"37 718 CURVE",
"46 718 LINE",
"88 718 OFFCURVE",
"132 707 OFFCURVE",
"132 660 CURVE",
"132 117 LINE",
"132 51 OFFCURVE",
"85 22 OFFCURVE",
"46 22 CURVE",
"37 22 LINE",
"31 22 OFFCURVE",
"30 17 OFFCURVE",
"30 12 CURVE",
"30 6 OFFCURVE",
"31 0 OFFCURVE",
"37 0 CURVE"
);
}
);
width = 974;
}
);
unicode = 004D;
},
{
glyphname = N;
lastChange = "2020-06-21 16:35:09 +0000";
layers = (
{
anchors = (
{
name = bottom;
position = "{413, 0}";
},
{
name = top;
position = "{413, 726}";
}
);
layerId = "69412919-AED9-45FB-ADD8-4F440013F7DA";
paths = (
{
closed = 1;
nodes = (
"298 0 LINE",
"303 0 OFFCURVE",
"305 5 OFFCURVE",
"305 14 CURVE",
"305 23 OFFCURVE",
"303 29 OFFCURVE",
"298 29 CURVE",
"282 29 LINE",
"245 29 OFFCURVE",
"196 59 OFFCURVE",
"196 108 CURVE",
"196 645 LINE",
"648 0 LINE",
"672 0 LINE",
"672 618 LINE",
"672 664 OFFCURVE",
"717 697 OFFCURVE",
"758 697 CURVE",
"773 697 LINE",
"778 697 OFFCURVE",
"780 703 OFFCURVE",
"780 712 CURVE",
"780 721 OFFCURVE",
"779 726 OFFCURVE",
"773 726 CURVE",
"531 726 LINE",
"525 726 OFFCURVE",
"523 721 OFFCURVE",
"523 712 CURVE",
"523 703 OFFCURVE",
"524 697 OFFCURVE",
"531 697 CURVE",
"546 697 LINE",
"583 697 OFFCURVE",
"633 665 OFFCURVE",
"633 618 CURVE",
"633 160 LINE",
"232 726 LINE",
"55 726 LINE",
"49 726 OFFCURVE",
"48 721 OFFCURVE",
"48 712 CURVE",
"48 703 OFFCURVE",
"49 697 OFFCURVE",
"55 697 CURVE",
"61 697 OFFCURVE",
"64 697 OFFCURVE",
"71 697 CURVE",
"129 697 OFFCURVE",
"156 682 OFFCURVE",
"156 636 CURVE",
"156 590 OFFCURVE",
"156 108 OFFCURVE",
"156 108 CURVE",
"156 61 OFFCURVE",
"111 29 OFFCURVE",
"71 29 CURVE",
"55 29 LINE",
"49 29 OFFCURVE",
"48 23 OFFCURVE",
"48 14 CURVE",
"48 5 OFFCURVE",
"49 0 OFFCURVE",
"55 0 CURVE"
);
}
);
width = 825;
},
{
anchors = (
{
name = bottom;
position = "{395, 0}";
},
{
name = top;
position = "{395, 744}";
}
);
layerId = "3FC96813-E7C5-45AC-9F0B-5DBEB42CEC4B";
paths = (
{
closed = 1;
nodes = (
"259 0 LINE",
"265 0 OFFCURVE",
"266 6 OFFCURVE",
"266 11 CURVE",
"266 16 OFFCURVE",
"265 21 OFFCURVE",
"259 21 CURVE",
"252 21 LINE",
"214 21 OFFCURVE",
"166 48 OFFCURVE",
"166 119 CURVE",
"166 586 LINE",
"566 0 LINE",
"656 0 LINE",
"656 625 LINE",
"656 696 OFFCURVE",
"703 722 OFFCURVE",
"741 723 CURVE",
"749 723 LINE",
"755 723 OFFCURVE",
"756 728 OFFCURVE",
"756 733 CURVE",
"756 738 OFFCURVE",
"755 744 OFFCURVE",
"749 744 CURVE",
"522 744 LINE",
"516 744 OFFCURVE",
"515 738 OFFCURVE",
"515 733 CURVE",
"515 728 OFFCURVE",
"516 723 OFFCURVE",
"522 723 CURVE",
"530 723 LINE",
"568 722 OFFCURVE",
"615 696 OFFCURVE",
"615 625 CURVE",
"615 222 LINE",
"259 744 LINE",
"33 744 LINE",
"27 744 OFFCURVE",
"26 738 OFFCURVE",
"26 733 CURVE",
"26 728 OFFCURVE",
"26 725 OFFCURVE",
"33 723 CURVE",
"37 722 OFFCURVE",
"40 721 OFFCURVE",
"43 720 CURVE",
"74 710 OFFCURVE",
"97 689 OFFCURVE",
"126 646 CURVE",
"126 631 OFFCURVE",
"126 119 OFFCURVE",
"126 119 CURVE",
"126 48 OFFCURVE",
"78 21 OFFCURVE",
"40 21 CURVE",
"33 21 LINE",
"27 21 OFFCURVE",
"26 16 OFFCURVE",
"26 11 CURVE",
"26 6 OFFCURVE",
"27 0 OFFCURVE",
"33 0 CURVE"
);
}
);
width = 789;
},
{
anchors = (
{
name = bottom;
position = "{399, 0}";
},
{
name = top;
position = "{399, 740}";
}
);
layerId = "17F3AB05-7131-4B64-9C58-864369A22196";
paths = (
{
closed = 1;
nodes = (
"267 0 LINE",
"273 0 OFFCURVE",
"274 6 OFFCURVE",
"274 12 CURVE",
"274 17 OFFCURVE",
"273 23 OFFCURVE",
"267 23 CURVE",
"258 23 LINE",
"220 23 OFFCURVE",
"172 50 OFFCURVE",
"172 117 CURVE",
"172 598 LINE",
"582 0 LINE",
"659 0 LINE",
"659 624 LINE",
"659 690 OFFCURVE",
"706 717 OFFCURVE",
"744 718 CURVE",
"754 718 LINE",
"760 718 OFFCURVE",
"761 723 OFFCURVE",
"761 729 CURVE",
"761 735 OFFCURVE",
"760 740 OFFCURVE",
"754 740 CURVE",
"524 740 LINE",
"518 740 OFFCURVE",
"517 735 OFFCURVE",
"517 729 CURVE",
"517 723 OFFCURVE",
"518 718 OFFCURVE",
"524 718 CURVE",
"533 718 LINE",
"571 717 OFFCURVE",
"619 690 OFFCURVE",
"619 624 CURVE",
"619 210 LINE",
"254 740 LINE",
"37 740 LINE",
"31 740 OFFCURVE",
"30 735 OFFCURVE",
"30 729 CURVE",
"30 723 OFFCURVE",
"31 719 OFFCURVE",
"37 718 CURVE",
"42 717 OFFCURVE",
"45 716 OFFCURVE",
"49 715 CURVE",
"85 707 OFFCURVE",
"109 688 OFFCURVE",
"132 644 CURVE",
"132 623 OFFCURVE",
"132 117 OFFCURVE",
"132 117 CURVE",
"132 51 OFFCURVE",
"85 23 OFFCURVE",
"46 23 CURVE",
"37 23 LINE",
"31 23 OFFCURVE",
"30 17 OFFCURVE",
"30 12 CURVE",
"30 6 OFFCURVE",
"31 0 OFFCURVE",
"37 0 CURVE"
);
}
);
width = 796;
}
);
unicode = 004E;
},
{
glyphname = O;
lastChange = "2020-06-21 16:35:09 +0000";
layers = (
{
anchors = (
{
name = bottom;
position = "{386, 0}";
},
{
name = center;
position = "{386, 363}";
},
{
name = ogonek;
position = "{694, 10}";
},
{
name = top;
position = "{386, 726}";
},
{
name = topleft;
position = "{20, 726}";
},
{
name = topright;
position = "{751, 726}";
}
);
layerId = "69412919-AED9-45FB-ADD8-4F440013F7DA";
paths = (
{
closed = 1;
nodes = (
"533 -14 OFFCURVE",
"711 111 OFFCURVE",
"711 361 CURVE SMOOTH",
"711 609 OFFCURVE",
"533 735 OFFCURVE",
"385 735 CURVE SMOOTH",
"236 735 OFFCURVE",
"58 609 OFFCURVE",
"58 361 CURVE SMOOTH",
"58 111 OFFCURVE",
"236 -14 OFFCURVE",
"385 -14 CURVE SMOOTH"
);
},
{
closed = 1;
nodes = (
"269 19 OFFCURVE",
"151 130 OFFCURVE",
"151 361 CURVE SMOOTH",
"151 590 OFFCURVE",
"269 701 OFFCURVE",
"385 701 CURVE SMOOTH",
"500 701 OFFCURVE",
"619 590 OFFCURVE",
"619 361 CURVE SMOOTH",
"619 130 OFFCURVE",
"500 19 OFFCURVE",
"385 19 CURVE SMOOTH"
);
}
);
width = 771;
},
{
anchors = (
{
name = bottom;
position = "{410, 0}";
},
{
name = center;
position = "{410, 372}";
},
{
name = ogonek;
position = "{737, 10}";
},
{
name = top;
position = "{410, 755}";
},
{
name = topleft;
position = "{20, 744}";
},
{
name = topright;
position = "{799, 744}";
}
);
layerId = "3FC96813-E7C5-45AC-9F0B-5DBEB42CEC4B";
paths = (
{
closed = 1;
nodes = (
"575 -13 OFFCURVE",
"776 115 OFFCURVE",
"776 371 CURVE SMOOTH",
"776 626 OFFCURVE",
"575 755 OFFCURVE",
"410 755 CURVE SMOOTH",
"244 755 OFFCURVE",
"43 626 OFFCURVE",
"43 371 CURVE SMOOTH",
"43 115 OFFCURVE",
"244 -13 OFFCURVE",
"410 -13 CURVE SMOOTH"
);
},
{
closed = 1;
nodes = (
"296 21 OFFCURVE",
"219 134 OFFCURVE",
"219 370 CURVE SMOOTH",
"219 606 OFFCURVE",
"297 719 OFFCURVE",
"411 719 CURVE SMOOTH",
"524 719 OFFCURVE",
"602 606 OFFCURVE",
"602 370 CURVE SMOOTH",
"602 134 OFFCURVE",
"523 21 OFFCURVE",
"410 21 CURVE SMOOTH"
);
}
);
width = 819;
},
{
anchors = (
{
name = bottom;
position = "{405, 0}";
},
{
name = center;
position = "{405, 370}";
},
{
name = ogonek;
position = "{728, 10}";
},
{
name = top;
position = "{405, 749}";
},
{
name = topleft;
position = "{20, 740}";
},
{
name = topright;
position = "{789, 740}";
}
);
layerId = "17F3AB05-7131-4B64-9C58-864369A22196";
paths = (
{
closed = 1;
nodes = (
"567 -13 OFFCURVE",
"763 114 OFFCURVE",
"763 369 CURVE SMOOTH",
"763 623 OFFCURVE",
"567 751 OFFCURVE",
"405 751 CURVE SMOOTH",
"242 751 OFFCURVE",
"46 623 OFFCURVE",
"46 369 CURVE SMOOTH",
"46 114 OFFCURVE",
"242 -13 OFFCURVE",
"405 -13 CURVE SMOOTH"
);
},
{
closed = 1;
nodes = (
"291 21 OFFCURVE",
"205 133 OFFCURVE",
"205 368 CURVE SMOOTH",
"205 603 OFFCURVE",
"291 715 OFFCURVE",
"406 715 CURVE SMOOTH",
"519 715 OFFCURVE",
"605 603 OFFCURVE",
"605 368 CURVE SMOOTH",
"605 133 OFFCURVE",
"518 21 OFFCURVE",
"405 21 CURVE SMOOTH"
);
}
);
width = 809;
}
);
unicode = 004F;
},
{
glyphname = Oslash;
lastChange = "2020-06-21 16:35:09 +0000";
layers = (
{
components = (
{
name = O;
},
{
name = slashlongcomb;
}
);
layerId = "69412919-AED9-45FB-ADD8-4F440013F7DA";
paths = (
{
closed = 1;
nodes = (
"674 724 LINE",
"652 741 LINE",
"95 1 LINE",
"117 -16 LINE"
);
}
);
width = 771;
},
{
components = (
{
name = O;
},
{
name = slashlongcomb;
}
);
layerId = "3FC96813-E7C5-45AC-9F0B-5DBEB42CEC4B";
paths = (
{
closed = 1;
nodes = (
"710 748 LINE",
"688 765 LINE",
"109 -6 LINE",
"131 -23 LINE"
);
}
);
width = 819;
},
{
components = (
{
alignment = -1;
name = O;
},
{
alignment = -1;
name = slashlongcomb;
}
);
layerId = "17F3AB05-7131-4B64-9C58-864369A22196";
paths = (
{
closed = 1;
nodes = (
"703 743 LINE",
"681 760 LINE",
"106 -5 LINE",
"128 -22 LINE"
);
}
);
width = 809;
}
);
unicode = 00D8;
},
{
glyphname = OE;
lastChange = "2020-06-21 16:35:09 +0000";
layers = (
{
layerId = "69412919-AED9-45FB-ADD8-4F440013F7DA";
paths = (
{
closed = 1;
nodes = (
"441 -14 OFFCURVE",
"495 -1 OFFCURVE",
"543 -1 CURVE SMOOTH",
"990 -1 LINE",
"1010 56 OFFCURVE",
"1029 98 OFFCURVE",
"1050 160 CURVE SMOOTH",
"1052 166 OFFCURVE",
"1049 173 OFFCURVE",
"1042 176 CURVE SMOOTH",
"1035 179 OFFCURVE",
"1029 179 OFFCURVE",
"1025 174 CURVE SMOOTH",
"972 108 OFFCURVE",
"915 40 OFFCURVE",
"783 29 CURVE SMOOTH",
"758 27 OFFCURVE",
"725 28 OFFCURVE",
"703 29 CURVE SMOOTH",
"650 31 OFFCURVE",
"617 41 OFFCURVE",
"617 90 CURVE SMOOTH",
"617 634 LINE SMOOTH",
"617 694 OFFCURVE",
"661 695 OFFCURVE",
"728 695 CURVE SMOOTH",
"753 695 LINE SMOOTH",
"855 695 OFFCURVE",
"940 655 OFFCURVE",
"996 599 CURVE SMOOTH",
"1000 595 OFFCURVE",
"1006 593 OFFCURVE",
"1014 597 CURVE SMOOTH",
"1020 600 OFFCURVE",
"1024 604 OFFCURVE",
"1021 612 CURVE SMOOTH",
"1017 623 OFFCURVE",
"959 725 OFFCURVE",
"959 725 CURVE",
"543 725 LINE",
"495 722 OFFCURVE",
"441 735 OFFCURVE",
"389 735 CURVE SMOOTH",
"240 735 OFFCURVE",
"60 609 OFFCURVE",
"60 360 CURVE SMOOTH",
"60 111 OFFCURVE",
"240 -14 OFFCURVE",
"389 -14 CURVE SMOOTH"
);
},
{
closed = 1;
nodes = (
"273 20 OFFCURVE",
"157 131 OFFCURVE",
"157 360 CURVE SMOOTH",
"157 590 OFFCURVE",
"273 701 OFFCURVE",
"389 701 CURVE SMOOTH",
"453 701 OFFCURVE",
"531 682 OFFCURVE",
"537 594 CURVE SMOOTH",
"539 566 OFFCURVE",
"540 468 OFFCURVE",
"540 363 CURVE SMOOTH",
"540 259 OFFCURVE",
"540 155 OFFCURVE",
"537 127 CURVE SMOOTH",
"528 39 OFFCURVE",
"453 20 OFFCURVE",
"389 20 CURVE SMOOTH"
);
},
{
closed = 1;
nodes = (
"898 252 OFFCURVE",
"903 254 OFFCURVE",
"903 260 CURVE SMOOTH",
"903 489 LINE SMOOTH",
"903 495 OFFCURVE",
"898 496 OFFCURVE",
"889 496 CURVE SMOOTH",
"881 496 OFFCURVE",
"876 495 OFFCURVE",
"876 489 CURVE SMOOTH",
"876 436 OFFCURVE",
"845 393 OFFCURVE",
"787 392 CURVE SMOOTH",
"731 391 OFFCURVE",
"574 392 OFFCURVE",
"574 392 CURVE",
"574 357 LINE",
"574 357 OFFCURVE",
"731 358 OFFCURVE",
"787 357 CURVE SMOOTH",
"845 356 OFFCURVE",
"876 313 OFFCURVE",
"876 260 CURVE SMOOTH",
"876 254 OFFCURVE",
"881 252 OFFCURVE",
"889 252 CURVE SMOOTH"
);
}
);
width = 1091;
},
{
layerId = "3FC96813-E7C5-45AC-9F0B-5DBEB42CEC4B";
paths = (
{
closed = 1;
nodes = (
"448 -13 OFFCURVE",
"492 -1 OFFCURVE",
"527 0 CURVE",
"1076 0 LINE",
"1097 59 OFFCURVE",
"1132 152 OFFCURVE",
"1151 202 CURVE",
"1153 207 OFFCURVE",
"1150 212 OFFCURVE",
"1145 215 CURVE",
"1139 218 OFFCURVE",
"1135 217 OFFCURVE",
"1130 213 CURVE",
"1091 157 OFFCURVE",
"1001 37 OFFCURVE",
"864 30 CURVE",
"838 28 OFFCURVE",
"829 28 OFFCURVE",
"808 30 CURVE",
"753 33 OFFCURVE",
"718 42 OFFCURVE",
"718 93 CURVE",
"718 652 LINE",
"718 712 OFFCURVE",
"762 715 OFFCURVE",
"830 715 CURVE",
"845 715 LINE",
"952 713 OFFCURVE",
"1067 639 OFFCURVE",
"1111 593 CURVE",
"1115 590 OFFCURVE",
"1120 589 OFFCURVE",
"1126 592 CURVE",
"1131 594 OFFCURVE",
"1134 598 OFFCURVE",
"1131 603 CURVE",
"1128 612 OFFCURVE",
"1056 744 OFFCURVE",
"1056 744 CURVE",
"527 744 LINE",
"492 743 OFFCURVE",
"448 755 OFFCURVE",
"410 755 CURVE",
"244 755 OFFCURVE",
"43 626 OFFCURVE",
"43 371 CURVE",
"43 116 OFFCURVE",
"244 -13 OFFCURVE",
"410 -13 CURVE"
);
},
{
closed = 1;
nodes = (
"297 21 OFFCURVE",
"219 134 OFFCURVE",
"219 370 CURVE",
"219 606 OFFCURVE",
"297 719 OFFCURVE",
"411 719 CURVE",
"473 719 OFFCURVE",
"557 673 OFFCURVE",
"559 614 CURVE",
"560 586 OFFCURVE",
"560 478 OFFCURVE",
"560 370 CURVE",
"560 262 OFFCURVE",
"560 154 OFFCURVE",
"559 126 CURVE",
"557 67 OFFCURVE",
"473 21 OFFCURVE",
"411 21 CURVE"
);
},
{
closed = 1;
nodes = (
"976 260 OFFCURVE",
"980 261 OFFCURVE",
"980 267 CURVE",
"980 503 LINE",
"980 508 OFFCURVE",
"976 509 OFFCURVE",
"968 509 CURVE",
"961 509 OFFCURVE",
"957 508 OFFCURVE",
"957 503 CURVE",
"956 460 OFFCURVE",
"924 404 OFFCURVE",
"863 403 CURVE",
"806 401 OFFCURVE",
"686 403 OFFCURVE",
"686 403 CURVE",
"686 367 LINE",
"686 367 OFFCURVE",
"806 368 OFFCURVE",
"863 367 CURVE",
"924 365 OFFCURVE",
"956 310 OFFCURVE",
"957 267 CURVE",
"957 261 OFFCURVE",
"961 260 OFFCURVE",
"968 260 CURVE"
);
}
);
width = 1192;
},
{
layerId = "17F3AB05-7131-4B64-9C58-864369A22196";
paths = (
{
closed = 1;
nodes = (
"447 -13 OFFCURVE",
"493 -1 OFFCURVE",
"530 0 CURVE SMOOTH",
"1059 0 LINE",
"1080 58 OFFCURVE",
"1111 141 OFFCURVE",
"1131 194 CURVE SMOOTH",
"1133 199 OFFCURVE",
"1130 204 OFFCURVE",
"1124 207 CURVE SMOOTH",
"1118 210 OFFCURVE",
"1114 209 OFFCURVE",
"1109 205 CURVE SMOOTH",
"1067 147 OFFCURVE",
"984 38 OFFCURVE",
"848 30 CURVE SMOOTH",
"822 28 OFFCURVE",
"808 28 OFFCURVE",
"787 30 CURVE SMOOTH",
"732 33 OFFCURVE",
"698 42 OFFCURVE",
"698 92 CURVE SMOOTH",
"698 648 LINE SMOOTH",
"698 708 OFFCURVE",
"742 711 OFFCURVE",
"810 711 CURVE SMOOTH",
"827 711 LINE SMOOTH",
"933 709 OFFCURVE",
"1042 642 OFFCURVE",
"1088 594 CURVE SMOOTH",
"1092 591 OFFCURVE",
"1097 590 OFFCURVE",
"1104 593 CURVE SMOOTH",
"1109 595 OFFCURVE",
"1112 599 OFFCURVE",
"1109 605 CURVE SMOOTH",
"1106 614 OFFCURVE",
"1037 740 OFFCURVE",
"1037 740 CURVE",
"530 740 LINE",
"493 739 OFFCURVE",
"447 751 OFFCURVE",
"406 751 CURVE SMOOTH",
"243 751 OFFCURVE",
"46 623 OFFCURVE",
"46 369 CURVE SMOOTH",
"46 115 OFFCURVE",
"243 -13 OFFCURVE",
"406 -13 CURVE SMOOTH"
);
},
{
closed = 1;
nodes = (
"292 21 OFFCURVE",
"207 133 OFFCURVE",
"207 368 CURVE SMOOTH",
"207 603 OFFCURVE",
"292 715 OFFCURVE",
"407 715 CURVE SMOOTH",
"469 715 OFFCURVE",
"552 675 OFFCURVE",
"555 610 CURVE SMOOTH",
"556 582 OFFCURVE",
"556 476 OFFCURVE",
"556 369 CURVE SMOOTH",
"556 261 OFFCURVE",
"556 154 OFFCURVE",
"555 126 CURVE SMOOTH",
"551 61 OFFCURVE",
"469 21 OFFCURVE",
"407 21 CURVE SMOOTH"
);
},
{
closed = 1;
nodes = (
"960 258 OFFCURVE",
"965 260 OFFCURVE",
"965 266 CURVE SMOOTH",
"965 500 LINE SMOOTH",
"965 505 OFFCURVE",
"960 506 OFFCURVE",
"952 506 CURVE SMOOTH",
"945 506 OFFCURVE",
"941 505 OFFCURVE",
"941 500 CURVE SMOOTH",
"940 455 OFFCURVE",
"908 402 OFFCURVE",
"848 401 CURVE SMOOTH",
"791 399 OFFCURVE",
"664 401 OFFCURVE",
"664 401 CURVE",
"664 365 LINE",
"664 365 OFFCURVE",
"791 366 OFFCURVE",
"848 365 CURVE SMOOTH",
"908 363 OFFCURVE",
"940 311 OFFCURVE",
"941 266 CURVE SMOOTH",
"941 260 OFFCURVE",
"945 258 OFFCURVE",
"952 258 CURVE SMOOTH"
);
}
);
width = 1172;
}
);
unicode = 0152;
},
{
glyphname = P;
lastChange = "2020-06-21 16:35:09 +0000";
layers = (
{
layerId = "69412919-AED9-45FB-ADD8-4F440013F7DA";
paths = (
{
closed = 1;
nodes = (
"346 0 LINE",
"351 0 OFFCURVE",
"353 5 OFFCURVE",
"353 15 CURVE",
"353 24 OFFCURVE",
"352 29 OFFCURVE",
"346 29 CURVE",
"330 29 LINE",
"271 29 OFFCURVE",
"244 43 OFFCURVE",
"244 91 CURVE",
"244 635 LINE",
"244 683 OFFCURVE",
"274 696 OFFCURVE",
"325 697 CURVE",
"458 700 OFFCURVE",
"526 635 OFFCURVE",
"526 538 CURVE",
"526 442 OFFCURVE",
"482 365 OFFCURVE",
"322 363 CURVE",
"299 363 OFFCURVE",
"205 363 OFFCURVE",
"205 363 CURVE",
"205 335 LINE",
"205 335 OFFCURVE",
"319 332 OFFCURVE",
"358 335 CURVE",
"474 343 OFFCURVE",
"619 372 OFFCURVE",
"619 534 CURVE",
"619 654 OFFCURVE",
"503 724 OFFCURVE",
"380 726 CURVE",
"322 727 OFFCURVE",
"62 726 OFFCURVE",
"62 726 CURVE",
"57 726 OFFCURVE",
"55 720 OFFCURVE",
"55 711 CURVE",
"55 702 OFFCURVE",
"56 697 OFFCURVE",
"62 697 CURVE",
"78 697 LINE",
"136 697 OFFCURVE",
"164 681 OFFCURVE",
"164 635 CURVE",
"164 91 LINE",
"164 42 OFFCURVE",
"132 29 OFFCURVE",
"78 29 CURVE",
"62 29 LINE",
"57 29 OFFCURVE",
"55 24 OFFCURVE",
"55 15 CURVE",
"55 5 OFFCURVE",
"56 0 OFFCURVE",
"62 0 CURVE"
);
}
);
width = 655;
},
{
layerId = "3FC96813-E7C5-45AC-9F0B-5DBEB42CEC4B";
paths = (
{
closed = 1;
nodes = (
"400 0 LINE SMOOTH",
"406 0 OFFCURVE",
"407 6 OFFCURVE",
"407 11 CURVE SMOOTH",
"407 16 OFFCURVE",
"406 21 OFFCURVE",
"400 21 CURVE SMOOTH",
"390 21 LINE SMOOTH",
"359 21 OFFCURVE",
"307 31 OFFCURVE",
"307 114 CURVE SMOOTH",
"307 651 LINE SMOOTH",
"307 700 OFFCURVE",
"338 715 OFFCURVE",
"390 715 CURVE SMOOTH",
"470 715 OFFCURVE",
"543 651 OFFCURVE",
"543 552 CURVE SMOOTH",
"543 453 OFFCURVE",
"509 377 OFFCURVE",
"380 372 CURVE SMOOTH",
"323 370 OFFCURVE",
"267 372 OFFCURVE",
"267 372 CURVE",
"267 344 LINE",
"267 344 OFFCURVE",
"315 342 OFFCURVE",
"424 344 CURVE SMOOTH",
"533 346 OFFCURVE",
"720 398 OFFCURVE",
"720 548 CURVE SMOOTH",
"720 671 OFFCURVE",
"586 733 OFFCURVE",
"446 744 CURVE SMOOTH",
"421 746 OFFCURVE",
"48 744 OFFCURVE",
"48 744 CURVE",
"42 744 OFFCURVE",
"41 738 OFFCURVE",
"41 733 CURVE SMOOTH",
"41 727 OFFCURVE",
"42 722 OFFCURVE",
"48 722 CURVE SMOOTH",
"59 722 LINE SMOOTH",
"89 722 OFFCURVE",
"142 713 OFFCURVE",
"142 630 CURVE SMOOTH",
"141 114 LINE SMOOTH",
"141 31 OFFCURVE",
"89 21 OFFCURVE",
"59 21 CURVE SMOOTH",
"48 21 LINE SMOOTH",
"42 21 OFFCURVE",
"41 16 OFFCURVE",
"41 11 CURVE SMOOTH",
"41 6 OFFCURVE",
"42 0 OFFCURVE",
"48 0 CURVE SMOOTH"
);
}
);
width = 746;
},
{
layerId = "17F3AB05-7131-4B64-9C58-864369A22196";
paths = (
{
closed = 1;
nodes = (
"389 0 LINE",
"395 0 OFFCURVE",
"396 6 OFFCURVE",
"396 12 CURVE",
"396 18 OFFCURVE",
"395 23 OFFCURVE",
"389 23 CURVE",
"378 23 LINE",
"341 23 OFFCURVE",
"294 33 OFFCURVE",
"294 109 CURVE",
"294 648 LINE",
"294 697 OFFCURVE",
"325 711 OFFCURVE",
"377 711 CURVE",
"468 712 OFFCURVE",
"540 648 OFFCURVE",
"540 549 CURVE",
"540 451 OFFCURVE",
"504 375 OFFCURVE",
"368 370 CURVE",
"318 369 OFFCURVE",
"255 370 OFFCURVE",
"255 370 CURVE",
"255 342 LINE",
"255 342 OFFCURVE",
"316 340 OFFCURVE",
"411 342 CURVE",
"521 345 OFFCURVE",
"700 393 OFFCURVE",
"700 545 CURVE",
"700 668 OFFCURVE",
"569 731 OFFCURVE",
"433 740 CURVE",
"401 742 OFFCURVE",
"51 740 OFFCURVE",
"51 740 CURVE",
"45 740 OFFCURVE",
"44 734 OFFCURVE",
"44 729 CURVE",
"44 722 OFFCURVE",
"45 717 OFFCURVE",
"51 717 CURVE",
"63 717 LINE",
"98 717 OFFCURVE",
"146 707 OFFCURVE",
"146 631 CURVE",
"146 109 LINE",
"146 33 OFFCURVE",
"98 23 OFFCURVE",
"63 23 CURVE",
"51 23 LINE",
"45 23 OFFCURVE",
"44 18 OFFCURVE",
"44 12 CURVE",
"44 6 OFFCURVE",
"45 0 OFFCURVE",
"51 0 CURVE"
);
}
);
width = 728;
}
);
unicode = 0050;
},
{
glyphname = Thorn;
lastChange = "2020-06-21 16:35:09 +0000";
layers = (
{
layerId = "69412919-AED9-45FB-ADD8-4F440013F7DA";
paths = (
{
closed = 1;
nodes = (
"342 0 LINE SMOOTH",
"348 0 OFFCURVE",
"350 5 OFFCURVE",
"350 14 CURVE SMOOTH",
"350 23 OFFCURVE",
"349 28 OFFCURVE",
"342 28 CURVE SMOOTH",
"327 28 LINE SMOOTH",
"268 28 OFFCURVE",
"241 42 OFFCURVE",
"241 90 CURVE SMOOTH",
"241 634 LINE SMOOTH",
"241 681 OFFCURVE",
"265 696 OFFCURVE",
"327 696 CURVE SMOOTH",
"342 696 LINE SMOOTH",
"348 696 OFFCURVE",
"350 701 OFFCURVE",
"350 711 CURVE SMOOTH",
"350 719 OFFCURVE",
"349 725 OFFCURVE",
"342 725 CURVE SMOOTH",
"59 725 LINE SMOOTH",
"54 725 OFFCURVE",
"52 719 OFFCURVE",
"52 711 CURVE SMOOTH",
"52 701 OFFCURVE",
"54 696 OFFCURVE",
"59 696 CURVE SMOOTH",
"75 696 LINE SMOOTH",
"132 696 OFFCURVE",
"161 682 OFFCURVE",
"161 634 CURVE SMOOTH",
"161 90 LINE SMOOTH",
"161 45 OFFCURVE",
"135 28 OFFCURVE",
"75 28 CURVE SMOOTH",
"59 28 LINE SMOOTH",
"54 28 OFFCURVE",
"52 23 OFFCURVE",
"52 14 CURVE SMOOTH",
"52 5 OFFCURVE",
"54 0 OFFCURVE",
"59 0 CURVE SMOOTH"
);
},
{
closed = 1;
nodes = (
"201 177 OFFCURVE",
"315 174 OFFCURVE",
"354 177 CURVE",
"470 185 OFFCURVE",
"615 214 OFFCURVE",
"615 376 CURVE",
"615 496 OFFCURVE",
"497 566 OFFCURVE",
"376 568 CURVE",
"255 570 OFFCURVE",
"201 567 OFFCURVE",
"201 567 CURVE",
"201 539 LINE",
"201 539 OFFCURVE",
"270 539 OFFCURVE",
"321 539 CURVE",
"459 539 OFFCURVE",
"522 477 OFFCURVE",
"522 380 CURVE",
"522 284 OFFCURVE",
"478 207 OFFCURVE",
"318 205 CURVE",
"295 205 OFFCURVE",
"201 205 OFFCURVE",
"201 205 CURVE",
"201 177 LINE"
);
}
);
width = 648;
},
{
layerId = "3FC96813-E7C5-45AC-9F0B-5DBEB42CEC4B";
paths = (
{
closed = 1;
nodes = (
"400 0 LINE SMOOTH",
"406 0 OFFCURVE",
"407 6 OFFCURVE",
"407 11 CURVE SMOOTH",
"407 16 OFFCURVE",
"406 22 OFFCURVE",
"400 22 CURVE SMOOTH",
"390 22 LINE SMOOTH",
"359 22 OFFCURVE",
"306 31 OFFCURVE",
"306 114 CURVE SMOOTH",
"308 630 LINE SMOOTH",
"308 713 OFFCURVE",
"359 722 OFFCURVE",
"390 722 CURVE SMOOTH",
"400 722 LINE SMOOTH",
"406 722 OFFCURVE",
"407 728 OFFCURVE",
"407 733 CURVE SMOOTH",
"407 738 OFFCURVE",
"406 744 OFFCURVE",
"400 744 CURVE SMOOTH",
"48 744 LINE SMOOTH",
"42 744 OFFCURVE",
"41 738 OFFCURVE",
"41 733 CURVE SMOOTH",
"41 728 OFFCURVE",
"42 722 OFFCURVE",
"48 722 CURVE SMOOTH",
"58 722 LINE SMOOTH",
"89 722 OFFCURVE",
"141 713 OFFCURVE",
"141 630 CURVE SMOOTH",
"140 114 LINE SMOOTH",
"140 31 OFFCURVE",
"89 22 OFFCURVE",
"58 22 CURVE SMOOTH",
"48 22 LINE SMOOTH",
"42 22 OFFCURVE",
"41 16 OFFCURVE",
"41 11 CURVE SMOOTH",
"41 6 OFFCURVE",
"42 0 OFFCURVE",
"48 0 CURVE SMOOTH"
);
},
{
closed = 1;
nodes = (
"267 181 OFFCURVE",
"315 179 OFFCURVE",
"424 181 CURVE SMOOTH",
"533 183 OFFCURVE",
"720 235 OFFCURVE",
"720 385 CURVE SMOOTH",
"720 508 OFFCURVE",
"586 570 OFFCURVE",
"446 581 CURVE SMOOTH",
"337 589 OFFCURVE",
"267 581 OFFCURVE",
"267 581 CURVE",
"267 553 LINE",
"267 553 OFFCURVE",
"309 558 OFFCURVE",
"390 552 CURVE SMOOTH",
"476 545 OFFCURVE",
"543 488 OFFCURVE",
"543 389 CURVE SMOOTH",
"543 290 OFFCURVE",
"509 214 OFFCURVE",
"380 209 CURVE SMOOTH",
"323 207 OFFCURVE",
"267 209 OFFCURVE",
"267 209 CURVE",
"267 181 LINE"
);
}
);
width = 745;
},
{
layerId = "17F3AB05-7131-4B64-9C58-864369A22196";
paths = (
{
closed = 1;
nodes = (
"388 0 LINE SMOOTH",
"394 0 OFFCURVE",
"396 6 OFFCURVE",
"396 12 CURVE SMOOTH",
"396 17 OFFCURVE",
"395 23 OFFCURVE",
"388 23 CURVE SMOOTH",
"377 23 LINE SMOOTH",
"341 23 OFFCURVE",
"293 33 OFFCURVE",
"293 109 CURVE SMOOTH",
"295 631 LINE SMOOTH",
"295 707 OFFCURVE",
"340 717 OFFCURVE",
"377 717 CURVE SMOOTH",
"388 717 LINE SMOOTH",
"394 717 OFFCURVE",
"396 723 OFFCURVE",
"396 729 CURVE SMOOTH",
"396 734 OFFCURVE",
"395 740 OFFCURVE",
"388 740 CURVE SMOOTH",
"50 740 LINE SMOOTH",
"44 740 OFFCURVE",
"43 734 OFFCURVE",
"43 729 CURVE SMOOTH",
"43 723 OFFCURVE",
"44 717 OFFCURVE",
"50 717 CURVE SMOOTH",
"61 717 LINE SMOOTH",
"98 717 OFFCURVE",
"145 707 OFFCURVE",
"145 631 CURVE SMOOTH",
"144 109 LINE SMOOTH",
"144 34 OFFCURVE",
"98 23 OFFCURVE",
"61 23 CURVE SMOOTH",
"50 23 LINE SMOOTH",
"44 23 OFFCURVE",
"43 17 OFFCURVE",
"43 12 CURVE SMOOTH",
"43 6 OFFCURVE",
"44 0 OFFCURVE",
"50 0 CURVE SMOOTH"
);
},
{
closed = 1;
nodes = (
"254 180 OFFCURVE",
"315 178 OFFCURVE",
"410 180 CURVE",
"520 183 OFFCURVE",
"699 231 OFFCURVE",
"699 383 CURVE",
"699 506 OFFCURVE",
"568 569 OFFCURVE",
"432 578 CURVE",
"321 585 OFFCURVE",
"254 578 OFFCURVE",
"254 578 CURVE",
"254 550 LINE",
"254 550 OFFCURVE",
"301 554 OFFCURVE",
"376 549 CURVE",
"473 544 OFFCURVE",
"539 486 OFFCURVE",
"539 387 CURVE",
"539 289 OFFCURVE",
"503 213 OFFCURVE",
"368 208 CURVE",
"317 207 OFFCURVE",
"254 208 OFFCURVE",
"254 208 CURVE",
"254 180 LINE"
);
}
);
width = 726;
}
);
unicode = 00DE;
},
{
glyphname = Q;
lastChange = "2020-06-21 16:35:09 +0000";
layers = (
{
layerId = "69412919-AED9-45FB-ADD8-4F440013F7DA";
paths = (
{
closed = 1;
nodes = (
"236 -14 OFFCURVE",
"58 111 OFFCURVE",
"58 361 CURVE SMOOTH",
"58 610 OFFCURVE",
"236 736 OFFCURVE",
"385 736 CURVE SMOOTH",
"533 736 OFFCURVE",
"711 610 OFFCURVE",
"711 361 CURVE SMOOTH",
"711 111 OFFCURVE",
"533 -14 OFFCURVE",
"385 -14 CURVE SMOOTH"
);
},
{
closed = 1;
nodes = (
"533 -128 OFFCURVE",
"497 -67 OFFCURVE",
"468 18 CURVE SMOOTH",
"422 154 OFFCURVE",
"377 176 OFFCURVE",
"330 176 CURVE SMOOTH",
"277 176 OFFCURVE",
"251 134 OFFCURVE",
"251 102 CURVE SMOOTH",
"251 69 OFFCURVE",
"310 19 OFFCURVE",
"385 19 CURVE SMOOTH",
"505 19 OFFCURVE",
"618 130 OFFCURVE",
"618 361 CURVE SMOOTH",
"618 591 OFFCURVE",
"498 701 OFFCURVE",
"385 701 CURVE SMOOTH",
"271 701 OFFCURVE",
"151 591 OFFCURVE",
"151 361 CURVE SMOOTH",
"151 232 OFFCURVE",
"192 141 OFFCURVE",
"243 85 CURVE",
"230 55 LINE",
"230 55 OFFCURVE",
"217 69 OFFCURVE",
"217 98 CURVE SMOOTH",
"217 158 OFFCURVE",
"263 210 OFFCURVE",
"333 210 CURVE SMOOTH",
"407 210 OFFCURVE",
"470 161 OFFCURVE",
"528 54 CURVE SMOOTH",
"579 -41 OFFCURVE",
"630 -62 OFFCURVE",
"670 -62 CURVE SMOOTH",
"691 -62 OFFCURVE",
"703 -56 OFFCURVE",
"719 -45 CURVE SMOOTH",
"725 -41 OFFCURVE",
"731 -39 OFFCURVE",
"738 -46 CURVE SMOOTH",
"744 -52 OFFCURVE",
"744 -58 OFFCURVE",
"738 -64 CURVE SMOOTH",
"733 -69 OFFCURVE",
"678 -128 OFFCURVE",
"614 -128 CURVE SMOOTH"
);
}
);
width = 800;
},
{
layerId = "3FC96813-E7C5-45AC-9F0B-5DBEB42CEC4B";
paths = (
{
closed = 1;
nodes = (
"244 -13 OFFCURVE",
"43 115 OFFCURVE",
"43 371 CURVE SMOOTH",
"43 626 OFFCURVE",
"244 755 OFFCURVE",
"410 755 CURVE SMOOTH",
"575 755 OFFCURVE",
"776 626 OFFCURVE",
"776 371 CURVE SMOOTH",
"776 115 OFFCURVE",
"575 -13 OFFCURVE",
"410 -13 CURVE SMOOTH"
);
},
{
closed = 1;
nodes = (
"532 -129 OFFCURVE",
"477 -91 OFFCURVE",
"470 11 CURVE SMOOTH",
"463 118 OFFCURVE",
"440 181 OFFCURVE",
"375 181 CURVE SMOOTH",
"320 181 OFFCURVE",
"301 139 OFFCURVE",
"301 106 CURVE SMOOTH",
"301 72 OFFCURVE",
"348 21 OFFCURVE",
"410 21 CURVE SMOOTH",
"523 21 OFFCURVE",
"602 134 OFFCURVE",
"602 370 CURVE SMOOTH",
"602 606 OFFCURVE",
"524 719 OFFCURVE",
"411 719 CURVE SMOOTH",
"297 719 OFFCURVE",
"219 606 OFFCURVE",
"219 370 CURVE SMOOTH",
"219 221 OFFCURVE",
"249 122 OFFCURVE",
"300 68 CURVE",
"282 57 LINE",
"282 57 OFFCURVE",
"273 74 OFFCURVE",
"271 102 CURVE SMOOTH",
"267 164 OFFCURVE",
"314 217 OFFCURVE",
"386 217 CURVE SMOOTH",
"462 217 OFFCURVE",
"542 184 OFFCURVE",
"591 64 CURVE SMOOTH",
"637 -50 OFFCURVE",
"658 -64 OFFCURVE",
"699 -64 CURVE SMOOTH",
"721 -64 OFFCURVE",
"746 -53 OFFCURVE",
"760 -39 CURVE SMOOTH",
"765 -34 OFFCURVE",
"770 -34 OFFCURVE",
"776 -40 CURVE SMOOTH",
"781 -45 OFFCURVE",
"780 -49 OFFCURVE",
"776 -54 CURVE SMOOTH",
"762 -72 OFFCURVE",
"729 -129 OFFCURVE",
"638 -129 CURVE SMOOTH"
);
}
);
width = 822;
},
{
layerId = "17F3AB05-7131-4B64-9C58-864369A22196";
paths = (
{
closed = 1;
nodes = (
"242 -13 OFFCURVE",
"46 114 OFFCURVE",
"46 369 CURVE SMOOTH",
"46 623 OFFCURVE",
"242 751 OFFCURVE",
"405 751 CURVE SMOOTH",
"567 751 OFFCURVE",
"763 623 OFFCURVE",
"763 369 CURVE SMOOTH",
"763 114 OFFCURVE",
"567 -13 OFFCURVE",
"405 -13 CURVE SMOOTH"
);
},
{
closed = 1;
nodes = (
"532 -129 OFFCURVE",
"481 -86 OFFCURVE",
"470 12 CURVE SMOOTH",
"455 125 OFFCURVE",
"427 180 OFFCURVE",
"366 180 CURVE SMOOTH",
"311 180 OFFCURVE",
"291 138 OFFCURVE",
"291 105 CURVE SMOOTH",
"291 71 OFFCURVE",
"340 21 OFFCURVE",
"405 21 CURVE SMOOTH",
"519 21 OFFCURVE",
"605 133 OFFCURVE",
"605 368 CURVE SMOOTH",
"605 603 OFFCURVE",
"519 715 OFFCURVE",
"406 715 CURVE SMOOTH",
"292 715 OFFCURVE",
"205 603 OFFCURVE",
"205 368 CURVE SMOOTH",
"205 223 OFFCURVE",
"238 126 OFFCURVE",
"289 71 CURVE",
"272 57 LINE",
"272 57 OFFCURVE",
"262 73 OFFCURVE",
"260 101 CURVE SMOOTH",
"257 163 OFFCURVE",
"304 216 OFFCURVE",
"375 216 CURVE SMOOTH",
"451 216 OFFCURVE",
"528 179 OFFCURVE",
"578 62 CURVE SMOOTH",
"625 -48 OFFCURVE",
"652 -64 OFFCURVE",
"693 -64 CURVE SMOOTH",
"715 -64 OFFCURVE",
"737 -54 OFFCURVE",
"752 -40 CURVE SMOOTH",
"757 -35 OFFCURVE",
"762 -35 OFFCURVE",
"768 -41 CURVE SMOOTH",
"774 -46 OFFCURVE",
"773 -51 OFFCURVE",
"768 -56 CURVE SMOOTH",
"756 -71 OFFCURVE",
"719 -129 OFFCURVE",
"633 -129 CURVE SMOOTH"
);
}
);
width = 818;
}
);
unicode = 0051;
},
{
glyphname = R;
lastChange = "2020-06-21 16:35:09 +0000";
layers = (
{
layerId = "69412919-AED9-45FB-ADD8-4F440013F7DA";
paths = (
{
closed = 1;
nodes = (
"346 0 LINE SMOOTH",
"351 0 OFFCURVE",
"353 5 OFFCURVE",
"353 14 CURVE SMOOTH",
"353 24 OFFCURVE",
"352 29 OFFCURVE",
"346 29 CURVE SMOOTH",
"330 29 LINE SMOOTH",
"276 29 OFFCURVE",
"244 42 OFFCURVE",
"244 91 CURVE SMOOTH",
"244 635 LINE SMOOTH",
"244 680 OFFCURVE",
"270 696 OFFCURVE",
"325 697 CURVE SMOOTH",
"458 699 OFFCURVE",
"529 641 OFFCURVE",
"529 545 CURVE SMOOTH",
"529 463 OFFCURVE",
"483 376 OFFCURVE",
"274 376 CURVE SMOOTH",
"204 376 LINE",
"204 348 LINE",
"309 348 LINE SMOOTH",
"441 348 OFFCURVE",
"621 404 OFFCURVE",
"621 540 CURVE SMOOTH",
"621 657 OFFCURVE",
"508 726 OFFCURVE",
"382 727 CURVE SMOOTH",
"233 728 OFFCURVE",
"62 726 OFFCURVE",
"62 726 CURVE",
"57 726 OFFCURVE",
"55 720 OFFCURVE",
"55 711 CURVE SMOOTH",
"55 702 OFFCURVE",
"57 697 OFFCURVE",
"62 697 CURVE SMOOTH",
"78 697 LINE SMOOTH",
"132 697 OFFCURVE",
"164 684 OFFCURVE",
"164 635 CURVE SMOOTH",
"164 91 LINE SMOOTH",
"164 43 OFFCURVE",
"136 29 OFFCURVE",
"78 29 CURVE SMOOTH",
"62 29 LINE SMOOTH",
"57 29 OFFCURVE",
"55 24 OFFCURVE",
"55 14 CURVE SMOOTH",
"55 5 OFFCURVE",
"57 0 OFFCURVE",
"62 0 CURVE SMOOTH"
);
},
{
closed = 1;
nodes = (
"733 0 LINE",
"739 0 OFFCURVE",
"740 5 OFFCURVE",
"740 14 CURVE",
"740 24 OFFCURVE",
"739 29 OFFCURVE",
"733 29 CURVE",
"667 29 OFFCURVE",
"637 54 OFFCURVE",
"618 81 CURVE",
"560 168 OFFCURVE",
"466 331 OFFCURVE",
"427 376 CURVE",
"340 366 LINE",
"399 286 OFFCURVE",
"527 60 OFFCURVE",
"560 0 CURVE"
);
}
);
width = 758;
},
{
layerId = "3FC96813-E7C5-45AC-9F0B-5DBEB42CEC4B";
paths = (
{
closed = 1;
nodes = (
"395 0 LINE SMOOTH",
"401 0 OFFCURVE",
"402 6 OFFCURVE",
"402 11 CURVE SMOOTH",
"402 16 OFFCURVE",
"401 21 OFFCURVE",
"395 21 CURVE SMOOTH",
"385 21 LINE SMOOTH",
"354 21 OFFCURVE",
"302 31 OFFCURVE",
"302 114 CURVE SMOOTH",
"302 651 LINE SMOOTH",
"302 697 OFFCURVE",
"329 715 OFFCURVE",
"385 715 CURVE SMOOTH",
"496 715 OFFCURVE",
"535 625 OFFCURVE",
"535 559 CURVE SMOOTH",
"535 507 OFFCURVE",
"533 385 OFFCURVE",
"333 385 CURVE SMOOTH",
"261 385 LINE",
"261 357 LINE",
"369 357 LINE SMOOTH",
"467 357 OFFCURVE",
"710 391 OFFCURVE",
"710 554 CURVE SMOOTH",
"710 673 OFFCURVE",
"575 741 OFFCURVE",
"443 745 CURVE SMOOTH",
"306 749 OFFCURVE",
"48 744 OFFCURVE",
"48 744 CURVE",
"42 744 OFFCURVE",
"41 738 OFFCURVE",
"41 733 CURVE SMOOTH",
"41 727 OFFCURVE",
"42 722 OFFCURVE",
"48 722 CURVE SMOOTH",
"59 722 LINE SMOOTH",
"89 722 OFFCURVE",
"142 713 OFFCURVE",
"142 630 CURVE SMOOTH",
"141 114 LINE SMOOTH",
"141 31 OFFCURVE",
"89 21 OFFCURVE",
"59 21 CURVE SMOOTH",
"48 21 LINE SMOOTH",
"42 21 OFFCURVE",
"41 16 OFFCURVE",
"41 11 CURVE SMOOTH",
"41 6 OFFCURVE",
"42 0 OFFCURVE",
"48 0 CURVE SMOOTH"
);
},
{
closed = 1;
nodes = (
"804 0 LINE",
"810 0 OFFCURVE",
"811 6 OFFCURVE",
"811 11 CURVE",
"811 16 OFFCURVE",
"810 21 OFFCURVE",
"804 21 CURVE",
"727 21 OFFCURVE",
"726 40 OFFCURVE",
"695 83 CURVE",
"625 181 OFFCURVE",
"553 332 OFFCURVE",
"503 386 CURVE",
"332 375 LINE",
"400 292 OFFCURVE",
"515 63 OFFCURVE",
"545 0 CURVE"
);
}
);
width = 817;
},
{
layerId = "17F3AB05-7131-4B64-9C58-864369A22196";
paths = (
{
closed = 1;
nodes = (
"385 0 LINE SMOOTH",
"391 0 OFFCURVE",
"392 6 OFFCURVE",
"392 12 CURVE SMOOTH",
"392 18 OFFCURVE",
"391 23 OFFCURVE",
"385 23 CURVE SMOOTH",
"374 23 LINE SMOOTH",
"338 23 OFFCURVE",
"290 33 OFFCURVE",
"290 109 CURVE SMOOTH",
"290 648 LINE SMOOTH",
"290 694 OFFCURVE",
"317 711 OFFCURVE",
"373 711 CURVE SMOOTH",
"488 712 OFFCURVE",
"534 628 OFFCURVE",
"534 556 CURVE SMOOTH",
"534 498 OFFCURVE",
"523 383 OFFCURVE",
"321 383 CURVE SMOOTH",
"250 383 LINE",
"250 355 LINE",
"357 355 LINE SMOOTH",
"462 355 OFFCURVE",
"692 394 OFFCURVE",
"692 551 CURVE SMOOTH",
"692 670 OFFCURVE",
"562 738 OFFCURVE",
"431 741 CURVE SMOOTH",
"291 745 OFFCURVE",
"51 740 OFFCURVE",
"51 740 CURVE",
"45 740 OFFCURVE",
"44 734 OFFCURVE",
"44 729 CURVE SMOOTH",
"44 722 OFFCURVE",
"45 717 OFFCURVE",
"51 717 CURVE SMOOTH",
"63 717 LINE SMOOTH",
"98 717 OFFCURVE",
"146 707 OFFCURVE",
"146 631 CURVE SMOOTH",
"146 109 LINE SMOOTH",
"146 33 OFFCURVE",
"98 23 OFFCURVE",
"63 23 CURVE SMOOTH",
"51 23 LINE SMOOTH",
"45 23 OFFCURVE",
"44 18 OFFCURVE",
"44 12 CURVE SMOOTH",
"44 6 OFFCURVE",
"45 0 OFFCURVE",
"51 0 CURVE SMOOTH"
);
},
{
closed = 1;
nodes = (
"790 0 LINE",
"796 0 OFFCURVE",
"797 6 OFFCURVE",
"797 12 CURVE",
"797 18 OFFCURVE",
"796 23 OFFCURVE",
"790 23 CURVE",
"715 23 OFFCURVE",
"708 43 OFFCURVE",
"680 83 CURVE",
"612 178 OFFCURVE",
"536 332 OFFCURVE",
"488 384 CURVE",
"334 373 LINE",
"400 291 OFFCURVE",
"517 62 OFFCURVE",
"548 0 CURVE"
);
}
);
width = 805;
}
);
unicode = 0052;
},
{
glyphname = S;
lastChange = "2020-06-21 16:35:09 +0000";
layers = (
{
layerId = "69412919-AED9-45FB-ADD8-4F440013F7DA";
paths = (
{
closed = 1;
nodes = (
"509 -13 OFFCURVE",
"601 71 OFFCURVE",
"601 181 CURVE",
"601 222 OFFCURVE",
"595 309 OFFCURVE",
"485 367 CURVE",
"401 410 OFFCURVE",
"306 422 OFFCURVE",
"236 457 CURVE",
"175 487 OFFCURVE",
"148 528 OFFCURVE",
"151 578 CURVE",
"153 617 OFFCURVE",
"183 702 OFFCURVE",
"295 702 CURVE",
"438 702 OFFCURVE",
"527 571 OFFCURVE",
"537 554 CURVE",
"542 546 OFFCURVE",
"548 547 OFFCURVE",
"556 550 CURVE",
"562 552 OFFCURVE",
"565 557 OFFCURVE",
"563 566 CURVE",
"513 736 LINE",
"485 702 OFFCURVE",
"462 698 OFFCURVE",
"431 709 CURVE",
"378 727 OFFCURVE",
"341 737 OFFCURVE",
"291 735 CURVE",
"193 734 OFFCURVE",
"99 669 OFFCURVE",
"93 551 CURVE",
"91 487 OFFCURVE",
"111 420 OFFCURVE",
"227 366 CURVE",
"291 337 OFFCURVE",
"363 329 OFFCURVE",
"446 287 CURVE",
"498 260 OFFCURVE",
"524 212 OFFCURVE",
"524 166 CURVE",
"524 87 OFFCURVE",
"467 29 OFFCURVE",
"366 23 CURVE SMOOTH",
"214 14 OFFCURVE",
"128 101 OFFCURVE",
"77 193 CURVE SMOOTH",
"72 202 OFFCURVE",
"67 202 OFFCURVE",
"60 200 CURVE",
"49 197 OFFCURVE",
"50 192 OFFCURVE",
"51 185 CURVE",
"97 -10 LINE",
"132 22 OFFCURVE",
"150 31 OFFCURVE",
"184 20 CURVE",
"233 1 OFFCURVE",
"306 -13 OFFCURVE",
"355 -13 CURVE"
);
}
);
width = 651;
},
{
layerId = "3FC96813-E7C5-45AC-9F0B-5DBEB42CEC4B";
paths = (
{
closed = 1;
nodes = (
"521 -13 OFFCURVE",
"628 77 OFFCURVE",
"633 214 CURVE SMOOTH",
"637 318 OFFCURVE",
"576 376 OFFCURVE",
"494 412 CURVE SMOOTH",
"422 444 OFFCURVE",
"294 477 OFFCURVE",
"238 508 CURVE",
"199 531 OFFCURVE",
"179 571 OFFCURVE",
"188 620 CURVE",
"196 666 OFFCURVE",
"232 718 OFFCURVE",
"323 718 CURVE",
"469 718 OFFCURVE",
"558 585 OFFCURVE",
"568 568 CURVE",
"574 559 OFFCURVE",
"579 560 OFFCURVE",
"587 563 CURVE",
"595 566 OFFCURVE",
"596 574 OFFCURVE",
"594 580 CURVE",
"543 754 LINE",
"513 718 OFFCURVE",
"491 712 OFFCURVE",
"457 725 CURVE",
"401 746 OFFCURVE",
"359 758 OFFCURVE",
"301 754 CURVE",
"159 745 OFFCURVE",
"84 653 OFFCURVE",
"74 551 CURVE",
"65 458 OFFCURVE",
"105 384 OFFCURVE",
"180 345 CURVE SMOOTH",
"245 311 OFFCURVE",
"323 291 OFFCURVE",
"399 262 CURVE SMOOTH",
"466 236 OFFCURVE",
"492 196 OFFCURVE",
"484 132 CURVE SMOOTH",
"475 63 OFFCURVE",
"422 31 OFFCURVE",
"354 32 CURVE SMOOTH",
"202 34 OFFCURVE",
"111 158 OFFCURVE",
"79 200 CURVE",
"72 209 OFFCURVE",
"69 209 OFFCURVE",
"62 207 CURVE",
"51 204 OFFCURVE",
"50 199 OFFCURVE",
"52 192 CURVE",
"100 -8 LINE",
"137 29 OFFCURVE",
"157 44 OFFCURVE",
"193 29 CURVE SMOOTH",
"248 6 OFFCURVE",
"306 -13 OFFCURVE",
"364 -13 CURVE SMOOTH"
);
}
);
width = 672;
},
{
layerId = "17F3AB05-7131-4B64-9C58-864369A22196";
paths = (
{
closed = 1;
nodes = (
"519 -13 OFFCURVE",
"623 76 OFFCURVE",
"627 207 CURVE",
"630 299 OFFCURVE",
"580 363 OFFCURVE",
"492 403 CURVE",
"418 437 OFFCURVE",
"296 466 OFFCURVE",
"238 498 CURVE",
"194 522 OFFCURVE",
"173 562 OFFCURVE",
"181 612 CURVE",
"187 656 OFFCURVE",
"222 715 OFFCURVE",
"317 715 CURVE",
"463 715 OFFCURVE",
"552 582 OFFCURVE",
"562 565 CURVE",
"568 556 OFFCURVE",
"573 557 OFFCURVE",
"581 560 CURVE",
"588 563 OFFCURVE",
"590 571 OFFCURVE",
"588 577 CURVE",
"537 750 LINE",
"507 715 OFFCURVE",
"485 709 OFFCURVE",
"452 722 CURVE",
"396 742 OFFCURVE",
"355 754 OFFCURVE",
"299 750 CURVE",
"166 743 OFFCURVE",
"87 656 OFFCURVE",
"78 551 CURVE",
"70 464 OFFCURVE",
"106 391 OFFCURVE",
"189 349 CURVE",
"254 316 OFFCURVE",
"331 299 OFFCURVE",
"408 267 CURVE",
"472 241 OFFCURVE",
"498 199 OFFCURVE",
"492 139 CURVE",
"485 68 OFFCURVE",
"431 31 OFFCURVE",
"356 30 CURVE SMOOTH",
"204 30 OFFCURVE",
"114 147 OFFCURVE",
"79 199 CURVE SMOOTH",
"72 208 OFFCURVE",
"69 208 OFFCURVE",
"62 206 CURVE",
"51 203 OFFCURVE",
"50 198 OFFCURVE",
"52 191 CURVE",
"99 -8 LINE",
"136 28 OFFCURVE",
"156 41 OFFCURVE",
"191 27 CURVE",
"245 5 OFFCURVE",
"306 -13 OFFCURVE",
"362 -13 CURVE"
);
}
);
width = 668;
}
);
unicode = 0053;
},
{
glyphname = T;
lastChange = "2020-06-21 16:35:09 +0000";
layers = (
{
layerId = "69412919-AED9-45FB-ADD8-4F440013F7DA";
paths = (
{
closed = 1;
nodes = (
"520 0 LINE SMOOTH",
"527 0 OFFCURVE",
"528 6 OFFCURVE",
"528 15 CURVE SMOOTH",
"528 24 OFFCURVE",
"525 29 OFFCURVE",
"520 29 CURVE SMOOTH",
"505 29 LINE SMOOTH",
"450 29 OFFCURVE",
"418 42 OFFCURVE",
"418 91 CURVE SMOOTH",
"418 635 LINE SMOOTH",
"418 669 OFFCURVE",
"434 694 OFFCURVE",
"471 696 CURVE SMOOTH",
"489 697 OFFCURVE",
"501 697 OFFCURVE",
"520 696 CURVE SMOOTH",
"574 693 OFFCURVE",
"656 647 OFFCURVE",
"699 589 CURVE SMOOTH",
"705 581 OFFCURVE",
"710 581 OFFCURVE",
"717 584 CURVE SMOOTH",
"722 586 OFFCURVE",
"728 591 OFFCURVE",
"725 598 CURVE",
"722 610 OFFCURVE",
"677 726 OFFCURVE",
"677 726 CURVE",
"80 726 LINE",
"80 726 OFFCURVE",
"35 610 OFFCURVE",
"32 598 CURVE",
"29 591 OFFCURVE",
"35 587 OFFCURVE",
"41 584 CURVE SMOOTH",
"47 581 OFFCURVE",
"53 581 OFFCURVE",
"59 589 CURVE SMOOTH",
"102 647 OFFCURVE",
"183 693 OFFCURVE",
"237 696 CURVE SMOOTH",
"256 697 OFFCURVE",
"268 697 OFFCURVE",
"286 696 CURVE SMOOTH",
"323 694 OFFCURVE",
"339 669 OFFCURVE",
"339 635 CURVE SMOOTH",
"339 91 LINE SMOOTH",
"339 44 OFFCURVE",
"311 29 OFFCURVE",
"252 29 CURVE SMOOTH",
"237 29 LINE SMOOTH",
"232 29 OFFCURVE",
"230 24 OFFCURVE",
"230 15 CURVE SMOOTH",
"230 6 OFFCURVE",
"231 0 OFFCURVE",
"237 0 CURVE SMOOTH"
);
}
);
width = 743;
},
{
layerId = "3FC96813-E7C5-45AC-9F0B-5DBEB42CEC4B";
paths = (
{
closed = 1;
nodes = (
"581 0 LINE SMOOTH",
"587 0 OFFCURVE",
"588 6 OFFCURVE",
"588 11 CURVE SMOOTH",
"588 16 OFFCURVE",
"587 21 OFFCURVE",
"581 21 CURVE SMOOTH",
"571 21 LINE SMOOTH",
"540 21 OFFCURVE",
"489 31 OFFCURVE",
"489 114 CURVE SMOOTH",
"488 650 LINE SMOOTH",
"488 685 OFFCURVE",
"512 710 OFFCURVE",
"539 713 CURVE SMOOTH",
"555 715 OFFCURVE",
"567 715 OFFCURVE",
"577 713 CURVE SMOOTH",
"652 698 OFFCURVE",
"737 624 OFFCURVE",
"765 582 CURVE SMOOTH",
"769 576 OFFCURVE",
"774 576 OFFCURVE",
"780 578 CURVE SMOOTH",
"785 580 OFFCURVE",
"788 582 OFFCURVE",
"787 588 CURVE SMOOTH",
"785 598 OFFCURVE",
"728 743 OFFCURVE",
"728 743 CURVE",
"82 743 LINE",
"82 743 OFFCURVE",
"25 598 OFFCURVE",
"23 588 CURVE SMOOTH",
"22 582 OFFCURVE",
"25 580 OFFCURVE",
"30 578 CURVE SMOOTH",
"36 576 OFFCURVE",
"41 576 OFFCURVE",
"45 582 CURVE SMOOTH",
"73 624 OFFCURVE",
"158 698 OFFCURVE",
"233 713 CURVE SMOOTH",
"243 715 OFFCURVE",
"255 715 OFFCURVE",
"271 713 CURVE SMOOTH",
"298 710 OFFCURVE",
"322 685 OFFCURVE",
"322 650 CURVE SMOOTH",
"321 114 LINE SMOOTH",
"321 31 OFFCURVE",
"269 21 OFFCURVE",
"239 21 CURVE SMOOTH",
"228 21 LINE SMOOTH",
"222 21 OFFCURVE",
"221 16 OFFCURVE",
"221 11 CURVE SMOOTH",
"221 6 OFFCURVE",
"222 0 OFFCURVE",
"228 0 CURVE SMOOTH"
);
}
);
width = 810;
},
{
layerId = "17F3AB05-7131-4B64-9C58-864369A22196";
paths = (
{
closed = 1;
nodes = (
"569 0 LINE SMOOTH",
"575 0 OFFCURVE",
"576 6 OFFCURVE",
"576 12 CURVE SMOOTH",
"576 18 OFFCURVE",
"575 23 OFFCURVE",
"569 23 CURVE SMOOTH",
"558 23 LINE SMOOTH",
"522 23 OFFCURVE",
"475 33 OFFCURVE",
"475 109 CURVE SMOOTH",
"474 647 LINE SMOOTH",
"474 682 OFFCURVE",
"496 707 OFFCURVE",
"525 710 CURVE SMOOTH",
"542 711 OFFCURVE",
"554 711 OFFCURVE",
"566 710 CURVE SMOOTH",
"636 697 OFFCURVE",
"721 629 OFFCURVE",
"752 583 CURVE SMOOTH",
"756 577 OFFCURVE",
"761 577 OFFCURVE",
"767 579 CURVE SMOOTH",
"772 581 OFFCURVE",
"776 584 OFFCURVE",
"775 590 CURVE",
"772 600 OFFCURVE",
"718 740 OFFCURVE",
"718 740 CURVE",
"82 740 LINE",
"82 740 OFFCURVE",
"27 600 OFFCURVE",
"25 590 CURVE",
"23 584 OFFCURVE",
"27 581 OFFCURVE",
"32 579 CURVE SMOOTH",
"38 577 OFFCURVE",
"43 577 OFFCURVE",
"48 583 CURVE SMOOTH",
"79 629 OFFCURVE",
"163 697 OFFCURVE",
"234 710 CURVE SMOOTH",
"246 711 OFFCURVE",
"258 711 OFFCURVE",
"274 710 CURVE SMOOTH",
"303 707 OFFCURVE",
"325 682 OFFCURVE",
"325 647 CURVE SMOOTH",
"325 109 LINE SMOOTH",
"325 34 OFFCURVE",
"277 23 OFFCURVE",
"242 23 CURVE SMOOTH",
"230 23 LINE SMOOTH",
"224 23 OFFCURVE",
"223 18 OFFCURVE",
"223 12 CURVE SMOOTH",
"223 6 OFFCURVE",
"224 0 OFFCURVE",
"230 0 CURVE SMOOTH"
);
}
);
width = 797;
}
);
unicode = 0054;
},
{
glyphname = U;
lastChange = "2020-06-21 16:35:09 +0000";
layers = (
{
anchors = (
{
name = bottom;
position = "{408, 0}";
},
{
name = ogonek;
position = "{734, 10}";
},
{
name = top;
position = "{408, 726}";
},
{
name = topright;
position = "{795, 726}";
}
);
layerId = "69412919-AED9-45FB-ADD8-4F440013F7DA";
paths = (
{
closed = 1;
nodes = (
"580 -14 OFFCURVE",
"660 86 OFFCURVE",
"664 234 CURVE SMOOTH",
"666 300 OFFCURVE",
"666 534 OFFCURVE",
"666 618 CURVE SMOOTH",
"666 666 OFFCURVE",
"715 697 OFFCURVE",
"752 697 CURVE SMOOTH",
"767 697 LINE SMOOTH",
"772 697 OFFCURVE",
"774 703 OFFCURVE",
"774 712 CURVE SMOOTH",
"774 721 OFFCURVE",
"772 726 OFFCURVE",
"767 726 CURVE SMOOTH",
"524 726 LINE SMOOTH",
"519 726 OFFCURVE",
"517 720 OFFCURVE",
"517 711 CURVE SMOOTH",
"517 702 OFFCURVE",
"519 697 OFFCURVE",
"524 697 CURVE SMOOTH",
"539 697 LINE SMOOTH",
"576 697 OFFCURVE",
"625 666 OFFCURVE",
"625 618 CURVE SMOOTH",
"625 263 LINE SMOOTH",
"625 146 OFFCURVE",
"597 24 OFFCURVE",
"421 24 CURVE SMOOTH",
"255 24 OFFCURVE",
"237 166 OFFCURVE",
"235 263 CURVE SMOOTH",
"233 359 OFFCURVE",
"235 636 OFFCURVE",
"235 636 CURVE",
"235 684 OFFCURVE",
"263 697 OFFCURVE",
"321 697 CURVE SMOOTH",
"336 697 LINE SMOOTH",
"341 697 OFFCURVE",
"343 703 OFFCURVE",
"343 712 CURVE SMOOTH",
"343 721 OFFCURVE",
"341 726 OFFCURVE",
"336 726 CURVE SMOOTH",
"54 726 LINE SMOOTH",
"49 726 OFFCURVE",
"47 720 OFFCURVE",
"47 711 CURVE SMOOTH",
"47 702 OFFCURVE",
"49 697 OFFCURVE",
"54 697 CURVE SMOOTH",
"69 697 LINE SMOOTH",
"127 697 OFFCURVE",
"155 684 OFFCURVE",
"155 636 CURVE SMOOTH",
"155 219 LINE SMOOTH",
"155 81 OFFCURVE",
"246 -14 OFFCURVE",
"421 -14 CURVE SMOOTH"
);
}
);
width = 815;
},
{
anchors = (
{
name = bottom;
position = "{416, 0}";
},
{
name = ogonek;
position = "{748, 10}";
},
{
name = top;
position = "{416, 744}";
},
{
name = topright;
position = "{811, 744}";
}
);
layerId = "3FC96813-E7C5-45AC-9F0B-5DBEB42CEC4B";
paths = (
{
closed = 1;
nodes = (
"608 -13 OFFCURVE",
"702 86 OFFCURVE",
"702 284 CURVE",
"702 352 OFFCURVE",
"704 538 OFFCURVE",
"704 624 CURVE",
"704 695 OFFCURVE",
"751 721 OFFCURVE",
"789 722 CURVE",
"797 722 LINE",
"803 722 OFFCURVE",
"804 727 OFFCURVE",
"804 732 CURVE",
"804 737 OFFCURVE",
"803 743 OFFCURVE",
"797 743 CURVE",
"570 743 LINE",
"564 743 OFFCURVE",
"563 737 OFFCURVE",
"563 732 CURVE",
"563 727 OFFCURVE",
"564 722 OFFCURVE",
"570 722 CURVE",
"578 722 LINE",
"616 721 OFFCURVE",
"663 695 OFFCURVE",
"663 624 CURVE",
"663 313 LINE",
"663 187 OFFCURVE",
"634 26 OFFCURVE",
"474 26 CURVE",
"304 26 OFFCURVE",
"302 180 OFFCURVE",
"301 278 CURVE",
"300 377 OFFCURVE",
"301 629 OFFCURVE",
"301 629 CURVE",
"301 712 OFFCURVE",
"352 721 OFFCURVE",
"383 721 CURVE",
"393 721 LINE",
"399 721 OFFCURVE",
"400 726 OFFCURVE",
"400 732 CURVE",
"400 737 OFFCURVE",
"399 743 OFFCURVE",
"393 743 CURVE",
"43 743 LINE",
"37 743 OFFCURVE",
"36 737 OFFCURVE",
"36 732 CURVE",
"36 726 OFFCURVE",
"37 721 OFFCURVE",
"43 721 CURVE",
"54 721 LINE",
"84 721 OFFCURVE",
"137 712 OFFCURVE",
"137 629 CURVE",
"137 241 LINE",
"137 75 OFFCURVE",
"214 -13 OFFCURVE",
"456 -13 CURVE"
);
}
);
width = 831;
},
{
anchors = (
{
name = bottom;
position = "{414, 0}";
},
{
name = ogonek;
position = "{745, 10}";
},
{
name = top;
position = "{414, 740}";
},
{
name = topright;
position = "{808, 740}";
}
);
layerId = "17F3AB05-7131-4B64-9C58-864369A22196";
paths = (
{
closed = 1;
nodes = (
"602 -13 OFFCURVE",
"694 86 OFFCURVE",
"694 274 CURVE SMOOTH",
"695 342 OFFCURVE",
"696 537 OFFCURVE",
"696 623 CURVE SMOOTH",
"696 689 OFFCURVE",
"744 716 OFFCURVE",
"782 717 CURVE SMOOTH",
"791 717 LINE SMOOTH",
"797 717 OFFCURVE",
"798 722 OFFCURVE",
"798 728 CURVE SMOOTH",
"798 734 OFFCURVE",
"797 740 OFFCURVE",
"791 740 CURVE SMOOTH",
"561 740 LINE SMOOTH",
"555 740 OFFCURVE",
"554 734 OFFCURVE",
"554 728 CURVE SMOOTH",
"554 722 OFFCURVE",
"555 717 OFFCURVE",
"561 717 CURVE SMOOTH",
"570 717 LINE SMOOTH",
"608 716 OFFCURVE",
"655 689 OFFCURVE",
"655 623 CURVE SMOOTH",
"655 303 LINE SMOOTH",
"655 179 OFFCURVE",
"627 26 OFFCURVE",
"463 26 CURVE SMOOTH",
"294 26 OFFCURVE",
"289 177 OFFCURVE",
"288 275 CURVE SMOOTH",
"287 373 OFFCURVE",
"288 630 OFFCURVE",
"288 630 CURVE",
"288 706 OFFCURVE",
"334 716 OFFCURVE",
"371 716 CURVE SMOOTH",
"382 716 LINE SMOOTH",
"387 716 OFFCURVE",
"389 721 OFFCURVE",
"389 728 CURVE SMOOTH",
"389 734 OFFCURVE",
"387 740 OFFCURVE",
"382 740 CURVE SMOOTH",
"45 740 LINE SMOOTH",
"39 740 OFFCURVE",
"38 734 OFFCURVE",
"38 728 CURVE SMOOTH",
"38 721 OFFCURVE",
"39 716 OFFCURVE",
"45 716 CURVE SMOOTH",
"57 716 LINE SMOOTH",
"93 716 OFFCURVE",
"141 706 OFFCURVE",
"141 630 CURVE SMOOTH",
"141 237 LINE SMOOTH",
"141 76 OFFCURVE",
"220 -13 OFFCURVE",
"449 -13 CURVE SMOOTH"
);
}
);
width = 828;
}
);
unicode = 0055;
},
{
glyphname = V;
lastChange = "2020-06-21 16:35:09 +0000";
layers = (
{
layerId = "69412919-AED9-45FB-ADD8-4F440013F7DA";
paths = (
{
closed = 1;
nodes = (
"411 -14 LINE",
"411 -14 OFFCURVE",
"607 561 OFFCURVE",
"628 617 CURVE",
"648 668 OFFCURVE",
"695 697 OFFCURVE",
"736 697 CURVE",
"752 697 LINE",
"757 697 OFFCURVE",
"759 702 OFFCURVE",
"759 711 CURVE",
"759 720 OFFCURVE",
"758 726 OFFCURVE",
"752 726 CURVE",
"515 726 LINE",
"510 726 OFFCURVE",
"508 720 OFFCURVE",
"508 711 CURVE",
"508 702 OFFCURVE",
"510 697 OFFCURVE",
"515 697 CURVE",
"531 697 LINE",
"564 697 OFFCURVE",
"606 682 OFFCURVE",
"586 617 CURVE",
"566 552 OFFCURVE",
"406 93 OFFCURVE",
"406 93 CURVE",
"406 93 OFFCURVE",
"232 591 OFFCURVE",
"217 635 CURVE",
"202 679 OFFCURVE",
"235 697 OFFCURVE",
"286 697 CURVE",
"302 697 LINE",
"307 697 OFFCURVE",
"309 702 OFFCURVE",
"309 711 CURVE",
"309 720 OFFCURVE",
"308 726 OFFCURVE",
"302 726 CURVE",
"23 726 LINE",
"18 726 OFFCURVE",
"16 720 OFFCURVE",
"16 711 CURVE",
"16 702 OFFCURVE",
"18 697 OFFCURVE",
"23 697 CURVE",
"40 697 LINE",
"61 697 OFFCURVE",
"112 687 OFFCURVE",
"133 635 CURVE",
"156 579 OFFCURVE",
"360 -14 OFFCURVE",
"356 -14 CURVE"
);
}
);
width = 769;
},
{
layerId = "3FC96813-E7C5-45AC-9F0B-5DBEB42CEC4B";
paths = (
{
closed = 1;
nodes = (
"442 -13 LINE",
"442 -13 OFFCURVE",
"629 563 OFFCURVE",
"650 619 CURVE",
"673 681 OFFCURVE",
"735 722 OFFCURVE",
"773 722 CURVE",
"781 722 LINE",
"787 722 OFFCURVE",
"788 727 OFFCURVE",
"788 733 CURVE",
"788 738 OFFCURVE",
"787 744 OFFCURVE",
"781 744 CURVE",
"539 744 LINE",
"533 744 OFFCURVE",
"532 738 OFFCURVE",
"532 733 CURVE",
"532 727 OFFCURVE",
"533 722 OFFCURVE",
"539 722 CURVE",
"546 722 LINE",
"584 722 OFFCURVE",
"628 686 OFFCURVE",
"609 619 CURVE",
"597 577 OFFCURVE",
"463 168 OFFCURVE",
"463 168 CURVE",
"463 168 OFFCURVE",
"305 591 OFFCURVE",
"293 630 CURVE",
"272 699 OFFCURVE",
"318 722 OFFCURVE",
"349 722 CURVE",
"359 722 LINE",
"365 722 OFFCURVE",
"366 727 OFFCURVE",
"366 733 CURVE",
"366 738 OFFCURVE",
"365 744 OFFCURVE",
"359 744 CURVE",
"13 744 LINE",
"7 744 OFFCURVE",
"6 738 OFFCURVE",
"6 733 CURVE",
"6 727 OFFCURVE",
"7 722 OFFCURVE",
"13 722 CURVE",
"24 722 LINE",
"54 722 OFFCURVE",
"98 710 OFFCURVE",
"129 630 CURVE",
"160 550 OFFCURVE",
"365 -13 OFFCURVE",
"365 -13 CURVE"
);
}
);
width = 792;
},
{
layerId = "17F3AB05-7131-4B64-9C58-864369A22196";
paths = (
{
closed = 1;
nodes = (
"436 -13 LINE",
"436 -13 OFFCURVE",
"625 563 OFFCURVE",
"646 619 CURVE",
"668 678 OFFCURVE",
"727 717 OFFCURVE",
"766 717 CURVE",
"775 717 LINE",
"781 717 OFFCURVE",
"782 722 OFFCURVE",
"782 729 CURVE",
"782 734 OFFCURVE",
"781 740 OFFCURVE",
"775 740 CURVE",
"534 740 LINE",
"528 740 OFFCURVE",
"527 734 OFFCURVE",
"527 729 CURVE",
"527 722 OFFCURVE",
"528 717 OFFCURVE",
"534 717 CURVE",
"543 717 LINE",
"580 717 OFFCURVE",
"624 685 OFFCURVE",
"604 619 CURVE",
"591 572 OFFCURVE",
"452 153 OFFCURVE",
"452 153 CURVE",
"452 153 OFFCURVE",
"290 591 OFFCURVE",
"278 631 CURVE",
"258 695 OFFCURVE",
"301 717 OFFCURVE",
"336 717 CURVE",
"348 717 LINE",
"353 717 OFFCURVE",
"355 722 OFFCURVE",
"355 729 CURVE",
"355 734 OFFCURVE",
"354 740 OFFCURVE",
"348 740 CURVE",
"15 740 LINE",
"9 740 OFFCURVE",
"8 734 OFFCURVE",
"8 729 CURVE",
"8 722 OFFCURVE",
"9 717 OFFCURVE",
"15 717 CURVE",
"27 717 LINE",
"55 717 OFFCURVE",
"101 705 OFFCURVE",
"130 631 CURVE",
"159 556 OFFCURVE",
"364 -13 OFFCURVE",
"363 -13 CURVE"
);
}
);
width = 787;
}
);
unicode = 0056;
},
{
glyphname = W;
lastChange = "2020-06-21 16:35:09 +0000";
layers = (
{
layerId = "69412919-AED9-45FB-ADD8-4F440013F7DA";
paths = (
{
closed = 1;
nodes = (
"710 -14 LINE",
"710 -14 OFFCURVE",
"874 576 OFFCURVE",
"888 617 CURVE SMOOTH",
"908 676 OFFCURVE",
"953 697 OFFCURVE",
"983 697 CURVE SMOOTH",
"998 697 LINE SMOOTH",
"1003 697 OFFCURVE",
"1005 703 OFFCURVE",
"1005 712 CURVE SMOOTH",
"1005 720 OFFCURVE",
"1004 726 OFFCURVE",
"998 726 CURVE SMOOTH",
"761 726 LINE SMOOTH",
"756 726 OFFCURVE",
"754 720 OFFCURVE",
"754 712 CURVE SMOOTH",
"754 703 OFFCURVE",
"756 697 OFFCURVE",
"761 697 CURVE SMOOTH",
"778 697 LINE SMOOTH",
"824 697 OFFCURVE",
"858 665 OFFCURVE",
"846 618 CURVE SMOOTH",
"834 571 OFFCURVE",
"702 107 OFFCURVE",
"702 107 CURVE",
"702 107 OFFCURVE",
"573 598 OFFCURVE",
"564 636 CURVE SMOOTH",
"555 674 OFFCURVE",
"590 697 OFFCURVE",
"628 697 CURVE SMOOTH",
"643 697 LINE SMOOTH",
"649 697 OFFCURVE",
"651 703 OFFCURVE",
"651 712 CURVE SMOOTH",
"651 720 OFFCURVE",
"650 726 OFFCURVE",
"643 726 CURVE SMOOTH",
"371 726 LINE SMOOTH",
"366 726 OFFCURVE",
"364 720 OFFCURVE",
"364 712 CURVE SMOOTH",
"364 703 OFFCURVE",
"366 697 OFFCURVE",
"371 697 CURVE SMOOTH",
"388 697 LINE SMOOTH",
"433 697 OFFCURVE",
"466 685 OFFCURVE",
"482 636 CURVE SMOOTH",
"498 586 OFFCURVE",
"660 -14 OFFCURVE",
"660 -14 CURVE"
);
},
{
closed = 1;
nodes = (
"349 -14 LINE",
"544 697 LINE",
"502 697 LINE",
"340 110 LINE",
"340 110 OFFCURVE",
"220 593 OFFCURVE",
"211 635 CURVE SMOOTH",
"202 677 OFFCURVE",
"237 697 OFFCURVE",
"289 697 CURVE SMOOTH",
"304 697 LINE SMOOTH",
"309 697 OFFCURVE",
"311 703 OFFCURVE",
"311 712 CURVE SMOOTH",
"311 720 OFFCURVE",
"310 726 OFFCURVE",
"304 726 CURVE SMOOTH",
"26 726 LINE SMOOTH",
"20 726 OFFCURVE",
"18 720 OFFCURVE",
"18 712 CURVE SMOOTH",
"18 703 OFFCURVE",
"20 697 OFFCURVE",
"26 697 CURVE SMOOTH",
"42 697 LINE SMOOTH",
"75 697 OFFCURVE",
"112 687 OFFCURVE",
"129 636 CURVE SMOOTH",
"145 587 OFFCURVE",
"298 -14 OFFCURVE",
"298 -14 CURVE"
);
}
);
width = 1022;
},
{
layerId = "3FC96813-E7C5-45AC-9F0B-5DBEB42CEC4B";
paths = (
{
closed = 1;
nodes = (
"753 -13 LINE",
"753 -13 OFFCURVE",
"943 563 OFFCURVE",
"964 619 CURVE",
"988 682 OFFCURVE",
"1036 722 OFFCURVE",
"1074 722 CURVE",
"1082 722 LINE",
"1088 722 OFFCURVE",
"1089 727 OFFCURVE",
"1089 733 CURVE",
"1089 738 OFFCURVE",
"1088 744 OFFCURVE",
"1082 744 CURVE",
"841 744 LINE",
"835 744 OFFCURVE",
"834 738 OFFCURVE",
"834 733 CURVE",
"834 727 OFFCURVE",
"835 722 OFFCURVE",
"841 722 CURVE",
"849 722 LINE",
"887 722 OFFCURVE",
"942 686 OFFCURVE",
"921 619 CURVE",
"909 580 OFFCURVE",
"787 205 OFFCURVE",
"787 205 CURVE",
"787 205 OFFCURVE",
"676 558 OFFCURVE",
"656 630 CURVE",
"636 702 OFFCURVE",
"675 722 OFFCURVE",
"706 722 CURVE",
"716 722 LINE",
"722 722 OFFCURVE",
"723 727 OFFCURVE",
"723 733 CURVE",
"723 738 OFFCURVE",
"722 744 OFFCURVE",
"716 744 CURVE",
"394 744 LINE",
"388 744 OFFCURVE",
"387 738 OFFCURVE",
"387 733 CURVE",
"387 727 OFFCURVE",
"388 722 OFFCURVE",
"394 722 CURVE",
"405 722 LINE",
"435 722 OFFCURVE",
"461 710 OFFCURVE",
"492 630 CURVE",
"523 550 OFFCURVE",
"687 -13 OFFCURVE",
"687 -13 CURVE"
);
},
{
closed = 1;
nodes = (
"369 -13 LINE",
"612 717 LINE",
"569 717 LINE",
"402 207 LINE",
"402 207 OFFCURVE",
"293 560 OFFCURVE",
"272 630 CURVE",
"251 700 OFFCURVE",
"291 722 OFFCURVE",
"322 722 CURVE",
"332 722 LINE",
"338 722 OFFCURVE",
"339 727 OFFCURVE",
"339 733 CURVE",
"339 738 OFFCURVE",
"338 744 OFFCURVE",
"332 744 CURVE",
"16 744 LINE",
"10 744 OFFCURVE",
"9 738 OFFCURVE",
"9 733 CURVE",
"9 727 OFFCURVE",
"10 722 OFFCURVE",
"16 722 CURVE",
"27 722 LINE",
"57 722 OFFCURVE",
"77 710 OFFCURVE",
"108 630 CURVE",
"139 550 OFFCURVE",
"303 -13 OFFCURVE",
"303 -13 CURVE"
);
}
);
width = 1101;
},
{
layerId = "17F3AB05-7131-4B64-9C58-864369A22196";
paths = (
{
closed = 1;
nodes = (
"744 -13 LINE",
"744 -13 OFFCURVE",
"929 566 OFFCURVE",
"949 619 CURVE SMOOTH",
"972 681 OFFCURVE",
"1019 717 OFFCURVE",
"1056 717 CURVE SMOOTH",
"1065 717 LINE SMOOTH",
"1071 717 OFFCURVE",
"1072 722 OFFCURVE",
"1072 729 CURVE SMOOTH",
"1072 734 OFFCURVE",
"1071 740 OFFCURVE",
"1065 740 CURVE SMOOTH",
"825 740 LINE SMOOTH",
"819 740 OFFCURVE",
"818 734 OFFCURVE",
"818 729 CURVE SMOOTH",
"818 722 OFFCURVE",
"819 717 OFFCURVE",
"825 717 CURVE SMOOTH",
"835 717 LINE SMOOTH",
"874 717 OFFCURVE",
"925 682 OFFCURVE",
"906 619 CURVE SMOOTH",
"894 578 OFFCURVE",
"770 185 OFFCURVE",
"770 185 CURVE",
"770 185 OFFCURVE",
"655 566 OFFCURVE",
"638 631 CURVE SMOOTH",
"620 696 OFFCURVE",
"658 717 OFFCURVE",
"690 717 CURVE SMOOTH",
"701 717 LINE SMOOTH",
"707 717 OFFCURVE",
"709 722 OFFCURVE",
"709 729 CURVE SMOOTH",
"709 734 OFFCURVE",
"708 740 OFFCURVE",
"701 740 CURVE SMOOTH",
"389 740 LINE SMOOTH",
"384 740 OFFCURVE",
"382 734 OFFCURVE",
"382 729 CURVE SMOOTH",
"382 722 OFFCURVE",
"384 717 OFFCURVE",
"389 717 CURVE SMOOTH",
"402 717 LINE SMOOTH",
"435 717 OFFCURVE",
"462 705 OFFCURVE",
"490 631 CURVE SMOOTH",
"518 557 OFFCURVE",
"682 -13 OFFCURVE",
"682 -13 CURVE"
);
},
{
closed = 1;
nodes = (
"365 -13 LINE",
"598 713 LINE",
"556 713 LINE",
"390 188 LINE",
"390 188 OFFCURVE",
"278 567 OFFCURVE",
"260 631 CURVE SMOOTH",
"241 695 OFFCURVE",
"280 717 OFFCURVE",
"315 717 CURVE SMOOTH",
"326 717 LINE SMOOTH",
"332 717 OFFCURVE",
"333 722 OFFCURVE",
"333 729 CURVE SMOOTH",
"333 734 OFFCURVE",
"332 740 OFFCURVE",
"326 740 CURVE SMOOTH",
"18 740 LINE SMOOTH",
"12 740 OFFCURVE",
"11 734 OFFCURVE",
"11 729 CURVE SMOOTH",
"11 722 OFFCURVE",
"12 717 OFFCURVE",
"18 717 CURVE SMOOTH",
"30 717 LINE SMOOTH",
"61 717 OFFCURVE",
"84 705 OFFCURVE",
"112 631 CURVE SMOOTH",
"140 557 OFFCURVE",
"302 -13 OFFCURVE",
"302 -13 CURVE"
);
}
);
width = 1085;
}
);
unicode = 0057;
},
{
glyphname = X;
lastChange = "2020-06-21 16:35:09 +0000";
layers = (
{
layerId = "69412919-AED9-45FB-ADD8-4F440013F7DA";
paths = (
{
closed = 1;
nodes = (
"729 0 LINE SMOOTH",
"736 0 OFFCURVE",
"737 7 OFFCURVE",
"737 15 CURVE SMOOTH",
"737 24 OFFCURVE",
"735 29 OFFCURVE",
"729 29 CURVE SMOOTH",
"714 29 LINE SMOOTH",
"670 29 OFFCURVE",
"637 43 OFFCURVE",
"603 91 CURVE SMOOTH",
"569 141 OFFCURVE",
"277 605 OFFCURVE",
"258 635 CURVE SMOOTH",
"242 661 OFFCURVE",
"251 697 OFFCURVE",
"301 697 CURVE SMOOTH",
"316 697 LINE SMOOTH",
"321 697 OFFCURVE",
"323 702 OFFCURVE",
"323 711 CURVE SMOOTH",
"323 720 OFFCURVE",
"322 726 OFFCURVE",
"316 726 CURVE SMOOTH",
"44 726 LINE SMOOTH",
"39 726 OFFCURVE",
"37 720 OFFCURVE",
"37 711 CURVE SMOOTH",
"37 702 OFFCURVE",
"39 697 OFFCURVE",
"44 697 CURVE SMOOTH",
"53 697 OFFCURVE",
"63 696 OFFCURVE",
"74 694 CURVE SMOOTH",
"108 687 OFFCURVE",
"151 670 OFFCURVE",
"173 635 CURVE SMOOTH",
"202 590 OFFCURVE",
"485 126 OFFCURVE",
"506 92 CURVE SMOOTH",
"527 58 OFFCURVE",
"511 29 OFFCURVE",
"452 29 CURVE SMOOTH",
"436 29 LINE SMOOTH",
"430 29 OFFCURVE",
"428 24 OFFCURVE",
"428 15 CURVE SMOOTH",
"428 7 OFFCURVE",
"430 0 OFFCURVE",
"436 0 CURVE SMOOTH"
);
},
{
closed = 1;
nodes = (
"280 0 LINE SMOOTH",
"285 0 OFFCURVE",
"287 7 OFFCURVE",
"287 15 CURVE SMOOTH",
"287 24 OFFCURVE",
"285 29 OFFCURVE",
"280 29 CURVE SMOOTH",
"263 29 LINE SMOOTH",
"217 29 OFFCURVE",
"175 56 OFFCURVE",
"211 110 CURVE SMOOTH",
"316 261 OFFCURVE",
"535 579 OFFCURVE",
"559 617 CURVE SMOOTH",
"593 666 OFFCURVE",
"638 697 OFFCURVE",
"675 697 CURVE SMOOTH",
"690 697 LINE SMOOTH",
"695 697 OFFCURVE",
"697 702 OFFCURVE",
"697 711 CURVE SMOOTH",
"697 720 OFFCURVE",
"696 726 OFFCURVE",
"690 726 CURVE SMOOTH",
"457 726 LINE SMOOTH",
"452 726 OFFCURVE",
"450 720 OFFCURVE",
"450 711 CURVE SMOOTH",
"450 702 OFFCURVE",
"452 697 OFFCURVE",
"457 697 CURVE SMOOTH",
"465 697 OFFCURVE",
"473 696 OFFCURVE",
"481 694 CURVE SMOOTH",
"516 686 OFFCURVE",
"539 657 OFFCURVE",
"513 617 CURVE SMOOTH",
"487 575 OFFCURVE",
"271 264 OFFCURVE",
"166 113 CURVE SMOOTH",
"133 62 OFFCURVE",
"71 29 OFFCURVE",
"38 29 CURVE SMOOTH",
"22 29 LINE SMOOTH",
"17 29 OFFCURVE",
"15 24 OFFCURVE",
"15 15 CURVE SMOOTH",
"15 7 OFFCURVE",
"16 0 OFFCURVE",
"22 0 CURVE SMOOTH"
);
}
);
width = 745;
},
{
layerId = "3FC96813-E7C5-45AC-9F0B-5DBEB42CEC4B";
paths = (
{
closed = 1;
nodes = (
"797 0 LINE",
"803 0 OFFCURVE",
"804 6 OFFCURVE",
"804 11 CURVE",
"804 17 OFFCURVE",
"803 22 OFFCURVE",
"797 22 CURVE",
"786 22 LINE",
"753 22 OFFCURVE",
"733 36 OFFCURVE",
"676 114 CURVE",
"658 141 OFFCURVE",
"351 600 OFFCURVE",
"334 630 CURVE",
"297 694 OFFCURVE",
"330 722 OFFCURVE",
"361 722 CURVE",
"371 722 LINE",
"377 722 OFFCURVE",
"378 727 OFFCURVE",
"378 733 CURVE",
"378 738 OFFCURVE",
"377 744 OFFCURVE",
"371 744 CURVE",
"26 744 LINE",
"20 744 OFFCURVE",
"19 738 OFFCURVE",
"19 733 CURVE",
"19 727 OFFCURVE",
"20 722 OFFCURVE",
"26 722 CURVE",
"30 722 OFFCURVE",
"33 722 OFFCURVE",
"37 722 CURVE",
"64 722 OFFCURVE",
"93 706 OFFCURVE",
"145 630 CURVE",
"157 612 OFFCURVE",
"472 145 OFFCURVE",
"488 114 CURVE",
"527 43 OFFCURVE",
"485 22 OFFCURVE",
"454 22 CURVE",
"444 22 LINE",
"438 22 OFFCURVE",
"437 17 OFFCURVE",
"437 11 CURVE",
"437 6 OFFCURVE",
"438 0 OFFCURVE",
"444 0 CURVE"
);
},
{
closed = 1;
nodes = (
"293 0 LINE",
"299 0 OFFCURVE",
"300 6 OFFCURVE",
"300 11 CURVE",
"300 16 OFFCURVE",
"299 21 OFFCURVE",
"293 21 CURVE",
"285 21 LINE",
"240 21 OFFCURVE",
"178 62 OFFCURVE",
"218 125 CURVE",
"242 163 OFFCURVE",
"570 590 OFFCURVE",
"593 619 CURVE",
"653 696 OFFCURVE",
"697 722 OFFCURVE",
"734 723 CURVE",
"742 723 LINE",
"748 723 OFFCURVE",
"749 728 OFFCURVE",
"749 733 CURVE",
"749 738 OFFCURVE",
"748 744 OFFCURVE",
"742 744 CURVE",
"482 744 LINE",
"476 744 OFFCURVE",
"475 738 OFFCURVE",
"475 733 CURVE",
"475 728 OFFCURVE",
"476 723 OFFCURVE",
"482 723 CURVE",
"488 723 OFFCURVE",
"487 723 OFFCURVE",
"490 723 CURVE",
"536 723 OFFCURVE",
"588 681 OFFCURVE",
"548 619 CURVE",
"524 582 OFFCURVE",
"200 157 OFFCURVE",
"173 125 CURVE",
"117 58 OFFCURVE",
"79 22 OFFCURVE",
"41 21 CURVE",
"33 21 LINE",
"27 21 OFFCURVE",
"26 16 OFFCURVE",
"26 11 CURVE",
"26 6 OFFCURVE",
"27 0 OFFCURVE",
"33 0 CURVE"
);
}
);
width = 820;
},
{
layerId = "17F3AB05-7131-4B64-9C58-864369A22196";
paths = (
{
closed = 1;
nodes = (
"783 0 LINE SMOOTH",
"790 0 OFFCURVE",
"791 6 OFFCURVE",
"791 12 CURVE SMOOTH",
"791 18 OFFCURVE",
"789 23 OFFCURVE",
"783 23 CURVE SMOOTH",
"772 23 LINE SMOOTH",
"736 23 OFFCURVE",
"714 37 OFFCURVE",
"661 109 CURVE SMOOTH",
"640 141 OFFCURVE",
"336 601 OFFCURVE",
"319 631 CURVE SMOOTH",
"286 687 OFFCURVE",
"314 717 OFFCURVE",
"349 717 CURVE SMOOTH",
"360 717 LINE SMOOTH",
"366 717 OFFCURVE",
"367 722 OFFCURVE",
"367 729 CURVE SMOOTH",
"367 734 OFFCURVE",
"366 740 OFFCURVE",
"360 740 CURVE SMOOTH",
"30 740 LINE SMOOTH",
"24 740 OFFCURVE",
"23 734 OFFCURVE",
"23 729 CURVE SMOOTH",
"23 722 OFFCURVE",
"24 717 OFFCURVE",
"30 717 CURVE SMOOTH",
"35 717 OFFCURVE",
"39 717 OFFCURVE",
"44 716 CURVE SMOOTH",
"73 715 OFFCURVE",
"105 699 OFFCURVE",
"151 631 CURVE SMOOTH",
"166 608 OFFCURVE",
"475 141 OFFCURVE",
"492 110 CURVE SMOOTH",
"527 46 OFFCURVE",
"490 23 OFFCURVE",
"454 23 CURVE SMOOTH",
"442 23 LINE SMOOTH",
"436 23 OFFCURVE",
"435 18 OFFCURVE",
"435 12 CURVE SMOOTH",
"435 6 OFFCURVE",
"436 0 OFFCURVE",
"442 0 CURVE SMOOTH"
);
},
{
closed = 1;
nodes = (
"290 0 LINE SMOOTH",
"296 0 OFFCURVE",
"297 6 OFFCURVE",
"297 12 CURVE SMOOTH",
"297 18 OFFCURVE",
"296 23 OFFCURVE",
"290 23 CURVE SMOOTH",
"281 23 LINE SMOOTH",
"235 23 OFFCURVE",
"177 61 OFFCURVE",
"217 122 CURVE SMOOTH",
"257 183 OFFCURVE",
"563 588 OFFCURVE",
"586 619 CURVE SMOOTH",
"641 690 OFFCURVE",
"685 717 OFFCURVE",
"722 718 CURVE SMOOTH",
"732 718 LINE SMOOTH",
"737 718 OFFCURVE",
"739 723 OFFCURVE",
"739 729 CURVE SMOOTH",
"739 734 OFFCURVE",
"738 740 OFFCURVE",
"732 740 CURVE SMOOTH",
"477 740 LINE SMOOTH",
"471 740 OFFCURVE",
"470 734 OFFCURVE",
"470 729 CURVE SMOOTH",
"470 723 OFFCURVE",
"471 718 OFFCURVE",
"477 718 CURVE SMOOTH",
"483 718 OFFCURVE",
"484 718 OFFCURVE",
"488 717 CURVE SMOOTH",
"532 716 OFFCURVE",
"578 676 OFFCURVE",
"541 619 CURVE SMOOTH",
"517 581 OFFCURVE",
"214 178 OFFCURVE",
"172 123 CURVE SMOOTH",
"120 59 OFFCURVE",
"77 23 OFFCURVE",
"40 23 CURVE SMOOTH",
"31 23 LINE SMOOTH",
"25 23 OFFCURVE",
"24 18 OFFCURVE",
"24 12 CURVE SMOOTH",
"24 6 OFFCURVE",
"25 0 OFFCURVE",
"31 0 CURVE SMOOTH"
);
}
);
width = 805;
}
);
unicode = 0058;
},
{
glyphname = Y;
lastChange = "2020-06-21 16:35:09 +0000";
layers = (
{
anchors = (
{
name = bottom;
position = "{377, 0}";
},
{
name = top;
position = "{377, 726}";
},
{
name = topleft;
position = "{20, 726}";
}
);
layerId = "69412919-AED9-45FB-ADD8-4F440013F7DA";
paths = (
{
closed = 1;
nodes = (
"522 0 LINE SMOOTH",
"528 0 OFFCURVE",
"530 6 OFFCURVE",
"530 14 CURVE SMOOTH",
"530 23 OFFCURVE",
"528 28 OFFCURVE",
"522 28 CURVE SMOOTH",
"507 28 LINE SMOOTH",
"452 28 OFFCURVE",
"421 43 OFFCURVE",
"421 91 CURVE SMOOTH",
"421 265 LINE",
"421 265 OFFCURVE",
"583 566 OFFCURVE",
"611 617 CURVE SMOOTH",
"639 668 OFFCURVE",
"685 697 OFFCURVE",
"718 697 CURVE SMOOTH",
"733 697 LINE SMOOTH",
"739 697 OFFCURVE",
"741 702 OFFCURVE",
"741 712 CURVE SMOOTH",
"741 720 OFFCURVE",
"740 726 OFFCURVE",
"733 726 CURVE SMOOTH",
"483 726 LINE SMOOTH",
"478 726 OFFCURVE",
"476 720 OFFCURVE",
"476 712 CURVE SMOOTH",
"476 702 OFFCURVE",
"478 697 OFFCURVE",
"483 697 CURVE SMOOTH",
"500 697 LINE SMOOTH",
"525 697 OFFCURVE",
"595 677 OFFCURVE",
"564 615 CURVE SMOOTH",
"533 553 OFFCURVE",
"400 303 OFFCURVE",
"400 303 CURVE",
"400 303 OFFCURVE",
"235 607 OFFCURVE",
"221 635 CURVE SMOOTH",
"200 678 OFFCURVE",
"223 697 OFFCURVE",
"291 697 CURVE SMOOTH",
"307 697 LINE SMOOTH",
"312 697 OFFCURVE",
"314 702 OFFCURVE",
"314 712 CURVE SMOOTH",
"314 720 OFFCURVE",
"313 726 OFFCURVE",
"307 726 CURVE SMOOTH",
"34 726 LINE SMOOTH",
"29 726 OFFCURVE",
"26 720 OFFCURVE",
"26 712 CURVE SMOOTH",
"26 702 OFFCURVE",
"29 697 OFFCURVE",
"34 697 CURVE SMOOTH",
"50 697 LINE SMOOTH",
"71 697 OFFCURVE",
"105 692 OFFCURVE",
"135 636 CURVE SMOOTH",
"148 612 OFFCURVE",
"340 244 OFFCURVE",
"340 244 CURVE",
"340 91 LINE SMOOTH",
"340 46 OFFCURVE",
"313 28 OFFCURVE",
"254 28 CURVE SMOOTH",
"239 28 LINE SMOOTH",
"233 28 OFFCURVE",
"231 23 OFFCURVE",
"231 14 CURVE SMOOTH",
"231 6 OFFCURVE",
"233 0 OFFCURVE",
"239 0 CURVE SMOOTH"
);
}
);
width = 754;
},
{
anchors = (
{
name = bottom;
position = "{386, 0}";
},
{
name = top;
position = "{386, 744}";
},
{
name = topleft;
position = "{20, 744}";
}
);
layerId = "3FC96813-E7C5-45AC-9F0B-5DBEB42CEC4B";
paths = (
{
closed = 1;
nodes = (
"560 0 LINE SMOOTH",
"566 0 OFFCURVE",
"567 6 OFFCURVE",
"567 11 CURVE SMOOTH",
"567 17 OFFCURVE",
"566 22 OFFCURVE",
"560 22 CURVE SMOOTH",
"549 22 LINE SMOOTH",
"519 22 OFFCURVE",
"466 31 OFFCURVE",
"466 114 CURVE SMOOTH",
"467 282 LINE",
"467 282 OFFCURVE",
"606 587 OFFCURVE",
"626 619 CURVE SMOOTH",
"672 693 OFFCURVE",
"721 723 OFFCURVE",
"758 723 CURVE SMOOTH",
"766 723 LINE SMOOTH",
"772 723 OFFCURVE",
"773 728 OFFCURVE",
"773 733 CURVE SMOOTH",
"773 738 OFFCURVE",
"772 744 OFFCURVE",
"766 744 CURVE SMOOTH",
"506 744 LINE SMOOTH",
"500 744 OFFCURVE",
"499 738 OFFCURVE",
"499 733 CURVE SMOOTH",
"499 728 OFFCURVE",
"500 723 OFFCURVE",
"506 723 CURVE SMOOTH",
"514 723 LINE SMOOTH",
"560 723 OFFCURVE",
"614 686 OFFCURVE",
"581 619 CURVE SMOOTH",
"564 584 OFFCURVE",
"435 296 OFFCURVE",
"435 296 CURVE",
"435 296 OFFCURVE",
"301 607 OFFCURVE",
"293 630 CURVE SMOOTH",
"268 702 OFFCURVE",
"313 722 OFFCURVE",
"344 722 CURVE SMOOTH",
"354 722 LINE SMOOTH",
"360 722 OFFCURVE",
"361 727 OFFCURVE",
"361 733 CURVE SMOOTH",
"361 738 OFFCURVE",
"360 744 OFFCURVE",
"354 744 CURVE SMOOTH",
"21 744 LINE SMOOTH",
"15 744 OFFCURVE",
"14 738 OFFCURVE",
"14 733 CURVE SMOOTH",
"14 727 OFFCURVE",
"15 722 OFFCURVE",
"21 722 CURVE SMOOTH",
"32 722 LINE SMOOTH",
"61 722 OFFCURVE",
"81 710 OFFCURVE",
"125 630 CURVE SMOOTH",
"147 590 OFFCURVE",
"303 245 OFFCURVE",
"303 245 CURVE",
"302 114 LINE SMOOTH",
"301 31 OFFCURVE",
"251 22 OFFCURVE",
"220 22 CURVE SMOOTH",
"210 22 LINE SMOOTH",
"204 22 OFFCURVE",
"203 17 OFFCURVE",
"203 11 CURVE SMOOTH",
"203 6 OFFCURVE",
"204 0 OFFCURVE",
"210 0 CURVE SMOOTH"
);
}
);
width = 772;
},
{
anchors = (
{
name = bottom;
position = "{384, 0}";
},
{
name = top;
position = "{384, 740}";
},
{
name = topleft;
position = "{20, 740}";
}
);
layerId = "17F3AB05-7131-4B64-9C58-864369A22196";
paths = (
{
closed = 1;
nodes = (
"552 0 LINE SMOOTH",
"558 0 OFFCURVE",
"560 6 OFFCURVE",
"560 12 CURVE SMOOTH",
"560 18 OFFCURVE",
"558 23 OFFCURVE",
"552 23 CURVE SMOOTH",
"541 23 LINE SMOOTH",
"506 23 OFFCURVE",
"457 33 OFFCURVE",
"457 109 CURVE SMOOTH",
"458 279 LINE",
"458 279 OFFCURVE",
"601 583 OFFCURVE",
"623 619 CURVE SMOOTH",
"665 688 OFFCURVE",
"714 718 OFFCURVE",
"750 718 CURVE SMOOTH",
"759 718 LINE SMOOTH",
"765 718 OFFCURVE",
"767 723 OFFCURVE",
"767 729 CURVE SMOOTH",
"767 734 OFFCURVE",
"766 740 OFFCURVE",
"759 740 CURVE SMOOTH",
"501 740 LINE SMOOTH",
"496 740 OFFCURVE",
"494 734 OFFCURVE",
"494 729 CURVE SMOOTH",
"494 723 OFFCURVE",
"496 718 OFFCURVE",
"501 718 CURVE SMOOTH",
"511 718 LINE SMOOTH",
"553 718 OFFCURVE",
"610 684 OFFCURVE",
"578 618 CURVE SMOOTH",
"558 578 OFFCURVE",
"428 297 OFFCURVE",
"428 297 CURVE",
"428 297 OFFCURVE",
"288 607 OFFCURVE",
"279 631 CURVE SMOOTH",
"254 697 OFFCURVE",
"295 717 OFFCURVE",
"333 717 CURVE SMOOTH",
"345 717 LINE SMOOTH",
"350 717 OFFCURVE",
"352 722 OFFCURVE",
"352 729 CURVE SMOOTH",
"352 734 OFFCURVE",
"351 740 OFFCURVE",
"345 740 CURVE SMOOTH",
"24 740 LINE SMOOTH",
"18 740 OFFCURVE",
"16 734 OFFCURVE",
"16 729 CURVE SMOOTH",
"16 722 OFFCURVE",
"18 717 OFFCURVE",
"24 717 CURVE SMOOTH",
"36 717 LINE SMOOTH",
"63 717 OFFCURVE",
"86 706 OFFCURVE",
"127 631 CURVE SMOOTH",
"147 594 OFFCURVE",
"310 245 OFFCURVE",
"310 245 CURVE",
"310 109 LINE SMOOTH",
"309 34 OFFCURVE",
"263 23 OFFCURVE",
"227 23 CURVE SMOOTH",
"216 23 LINE SMOOTH",
"210 23 OFFCURVE",
"209 18 OFFCURVE",
"209 12 CURVE SMOOTH",
"209 6 OFFCURVE",
"210 0 OFFCURVE",
"216 0 CURVE SMOOTH"
);
}
);
width = 768;
}
);
unicode = 0059;
},
{
glyphname = Z;
lastChange = "2020-06-21 16:35:09 +0000";
layers = (
{
layerId = "69412919-AED9-45FB-ADD8-4F440013F7DA";
paths = (
{
closed = 1;
nodes = (
"40 0 OFFCURVE",
"509 0 OFFCURVE",
"509 0 CURVE",
"533 54 OFFCURVE",
"553 97 OFFCURVE",
"580 156 CURVE",
"583 162 OFFCURVE",
"580 168 OFFCURVE",
"574 172 CURVE",
"566 176 OFFCURVE",
"560 176 OFFCURVE",
"556 171 CURVE",
"504 105 OFFCURVE",
"429 30 OFFCURVE",
"302 28 CURVE",
"279 28 OFFCURVE",
"126 28 OFFCURVE",
"126 28 CURVE",
"126 28 OFFCURVE",
"569 696 OFFCURVE",
"571 699 CURVE",
"573 702 OFFCURVE",
"576 708 OFFCURVE",
"573 715 CURVE",
"570 722 OFFCURVE",
"566 726 OFFCURVE",
"560 726 CURVE",
"553 726 OFFCURVE",
"127 726 OFFCURVE",
"127 726 CURVE",
"127 726 OFFCURVE",
"70 624 OFFCURVE",
"65 612 CURVE",
"63 606 OFFCURVE",
"67 601 OFFCURVE",
"73 598 CURVE",
"81 594 OFFCURVE",
"86 596 OFFCURVE",
"91 600 CURVE",
"145 656 OFFCURVE",
"228 696 OFFCURVE",
"334 697 CURVE",
"362 697 OFFCURVE",
"475 697 OFFCURVE",
"475 697 CURVE",
"475 697 OFFCURVE",
"29 30 OFFCURVE",
"27 27 CURVE",
"25 24 OFFCURVE",
"22 18 OFFCURVE",
"25 10 CURVE",
"28 3 OFFCURVE",
"32 0 OFFCURVE",
"36 0 CURVE"
);
}
);
width = 593;
},
{
layerId = "3FC96813-E7C5-45AC-9F0B-5DBEB42CEC4B";
paths = (
{
closed = 1;
nodes = (
"41 0 OFFCURVE",
"552 0 OFFCURVE",
"552 0 CURVE",
"572 59 OFFCURVE",
"619 148 OFFCURVE",
"642 196 CURVE",
"645 201 OFFCURVE",
"642 206 OFFCURVE",
"637 209 CURVE",
"632 212 OFFCURVE",
"627 212 OFFCURVE",
"623 208 CURVE",
"587 165 OFFCURVE",
"480 30 OFFCURVE",
"339 30 CURVE",
"316 30 OFFCURVE",
"211 28 OFFCURVE",
"211 28 CURVE",
"211 28 OFFCURVE",
"627 712 OFFCURVE",
"629 716 CURVE",
"631 720 OFFCURVE",
"634 726 OFFCURVE",
"631 733 CURVE",
"628 741 OFFCURVE",
"622 743 OFFCURVE",
"618 743 CURVE",
"614 743 OFFCURVE",
"120 743 OFFCURVE",
"120 743 CURVE",
"120 743 OFFCURVE",
"47 612 OFFCURVE",
"44 603 CURVE",
"42 597 OFFCURVE",
"45 594 OFFCURVE",
"50 591 CURVE",
"56 588 OFFCURVE",
"61 589 OFFCURVE",
"65 593 CURVE",
"109 638 OFFCURVE",
"229 710 OFFCURVE",
"331 715 CURVE",
"348 715 OFFCURVE",
"442 715 OFFCURVE",
"442 715 CURVE",
"442 715 OFFCURVE",
"30 31 OFFCURVE",
"28 27 CURVE",
"26 23 OFFCURVE",
"24 16 OFFCURVE",
"26 10 CURVE",
"28 4 OFFCURVE",
"33 0 OFFCURVE",
"37 0 CURVE"
);
}
);
width = 674;
},
{
layerId = "17F3AB05-7131-4B64-9C58-864369A22196";
paths = (
{
closed = 1;
nodes = (
"41 0 OFFCURVE",
"543 0 OFFCURVE",
"543 0 CURVE",
"564 58 OFFCURVE",
"606 138 OFFCURVE",
"630 188 CURVE",
"633 193 OFFCURVE",
"630 198 OFFCURVE",
"624 202 CURVE",
"619 205 OFFCURVE",
"614 205 OFFCURVE",
"610 201 CURVE",
"570 153 OFFCURVE",
"470 30 OFFCURVE",
"332 30 CURVE",
"309 30 OFFCURVE",
"194 28 OFFCURVE",
"194 28 CURVE",
"194 28 OFFCURVE",
"615 709 OFFCURVE",
"617 713 CURVE",
"619 716 OFFCURVE",
"622 722 OFFCURVE",
"619 729 CURVE",
"616 737 OFFCURVE",
"611 740 OFFCURVE",
"606 740 CURVE",
"602 740 OFFCURVE",
"121 740 OFFCURVE",
"121 740 CURVE",
"121 740 OFFCURVE",
"52 614 OFFCURVE",
"48 605 CURVE",
"46 599 OFFCURVE",
"49 595 OFFCURVE",
"55 592 CURVE",
"61 589 OFFCURVE",
"66 590 OFFCURVE",
"70 594 CURVE",
"116 642 OFFCURVE",
"229 707 OFFCURVE",
"332 711 CURVE",
"351 711 OFFCURVE",
"449 711 OFFCURVE",
"449 711 CURVE",
"449 711 OFFCURVE",
"30 31 OFFCURVE",
"28 27 CURVE",
"26 23 OFFCURVE",
"24 16 OFFCURVE",
"26 10 CURVE",
"28 4 OFFCURVE",
"33 0 OFFCURVE",
"37 0 CURVE"
);
}
);
width = 658;
}
);
unicode = 005A;
},
{
glyphname = A.full;
lastChange = "2020-06-21 16:35:09 +0000";
layers = (
{
anchors = (
{
name = LSB;
position = "{58, 380}";
},
{
name = RSB;
position = "{942, 380}";
},
{
name = bottom;
position = "{504, 0}";
},
{
name = ogonek;
position = "{809, 10}";
},
{
name = top;
position = "{504, 726}";
}
);
layerId = "69412919-AED9-45FB-ADD8-4F440013F7DA";
paths = (
{
closed = 1;
nodes = (
"865 1 LINE",
"871 1 OFFCURVE",
"872 9 OFFCURVE",
"872 15 CURVE",
"872 22 OFFCURVE",
"871 30 OFFCURVE",
"865 30 CURVE",
"824 30 OFFCURVE",
"777 44 OFFCURVE",
"751 114 CURVE",
"727 178 OFFCURVE",
"537 726 OFFCURVE",
"534 734 CURVE SMOOTH",
"531 742 OFFCURVE",
"522 745 OFFCURVE",
"515 743 CURVE SMOOTH",
"507 741 OFFCURVE",
"474 730 OFFCURVE",
"474 730 CURVE",
"474 730 OFFCURVE",
"252 139 OFFCURVE",
"243 118 CURVE",
"216 48 OFFCURVE",
"167 28 OFFCURVE",
"135 28 CURVE",
"129 28 OFFCURVE",
"128 23 OFFCURVE",
"128 14 CURVE",
"128 5 OFFCURVE",
"129 0 OFFCURVE",
"135 0 CURVE",
"381 0 LINE",
"386 0 OFFCURVE",
"387 7 OFFCURVE",
"387 14 CURVE",
"387 21 OFFCURVE",
"387 28 OFFCURVE",
"381 28 CURVE",
"320 28 OFFCURVE",
"264 46 OFFCURVE",
"295 134 CURVE",
"322 216 OFFCURVE",
"482 650 OFFCURVE",
"482 650 CURVE",
"482 650 OFFCURVE",
"664 123 OFFCURVE",
"671 104 CURVE",
"692 40 OFFCURVE",
"626 30 OFFCURVE",
"581 30 CURVE",
"576 30 OFFCURVE",
"574 25 OFFCURVE",
"574 15 CURVE",
"574 6 OFFCURVE",
"576 1 OFFCURVE",
"581 1 CURVE"
);
},
{
closed = 1;
nodes = (
"657 262 LINE",
"643 300 LINE",
"331 300 LINE",
"318 262 LINE"
);
}
);
width = 1000;
},
{
anchors = (
{
name = LSB;
position = "{35, 380}";
},
{
name = RSB;
position = "{966, 380}";
},
{
name = bottom;
position = "{499, 0}";
},
{
name = ogonek;
position = "{826, 10}";
},
{
name = top;
position = "{499, 744}";
}
);
layerId = "3FC96813-E7C5-45AC-9F0B-5DBEB42CEC4B";
paths = (
{
closed = 1;
nodes = (
"890 0 LINE",
"895 0 OFFCURVE",
"896 6 OFFCURVE",
"896 10 CURVE",
"896 15 OFFCURVE",
"896 21 OFFCURVE",
"890 21 CURVE",
"814 21 OFFCURVE",
"808 27 OFFCURVE",
"773 115 CURVE",
"742 195 OFFCURVE",
"558 735 OFFCURVE",
"555 744 CURVE SMOOTH",
"552 754 OFFCURVE",
"546 757 OFFCURVE",
"536 754 CURVE SMOOTH",
"526 751 OFFCURVE",
"462 732 OFFCURVE",
"462 732 CURVE",
"462 732 OFFCURVE",
"247 161 OFFCURVE",
"225 105 CURVE",
"200 40 OFFCURVE",
"155 21 OFFCURVE",
"112 21 CURVE",
"107 21 OFFCURVE",
"105 17 OFFCURVE",
"105 10 CURVE",
"105 4 OFFCURVE",
"106 0 OFFCURVE",
"112 0 CURVE",
"370 0 LINE",
"376 0 OFFCURVE",
"377 6 OFFCURVE",
"377 10 CURVE",
"377 15 OFFCURVE",
"376 21 OFFCURVE",
"370 21 CURVE",
"311 22 OFFCURVE",
"251 37 OFFCURVE",
"272 104 CURVE",
"292 172 OFFCURVE",
"442 573 OFFCURVE",
"442 573 CURVE",
"442 573 OFFCURVE",
"573 191 OFFCURVE",
"600 114 CURVE",
"623 50 OFFCURVE",
"633 26 OFFCURVE",
"530 21 CURVE",
"525 21 OFFCURVE",
"523 17 OFFCURVE",
"523 10 CURVE",
"523 4 OFFCURVE",
"524 0 OFFCURVE",
"530 0 CURVE"
);
},
{
closed = 1;
nodes = (
"625 247 LINE",
"615 282 LINE",
"310 282 LINE",
"300 247 LINE"
);
}
);
width = 1000;
},
{
anchors = (
{
name = LSB;
position = "{40, 380}";
},
{
name = RSB;
position = "{961, 380}";
},
{
name = bottom;
position = "{500, 0}";
},
{
name = ogonek;
position = "{823, 10}";
},
{
name = top;
position = "{500, 740}";
}
);
layerId = "17F3AB05-7131-4B64-9C58-864369A22196";
paths = (
{
closed = 1;
nodes = (
"885 0 LINE",
"890 0 OFFCURVE",
"891 7 OFFCURVE",
"891 11 CURVE",
"891 16 OFFCURVE",
"891 23 OFFCURVE",
"885 23 CURVE",
"816 23 OFFCURVE",
"802 30 OFFCURVE",
"769 115 CURVE",
"739 192 OFFCURVE",
"554 733 OFFCURVE",
"551 742 CURVE SMOOTH",
"548 752 OFFCURVE",
"541 755 OFFCURVE",
"532 752 CURVE SMOOTH",
"522 749 OFFCURVE",
"464 732 OFFCURVE",
"464 732 CURVE",
"464 732 OFFCURVE",
"248 157 OFFCURVE",
"229 108 CURVE",
"203 42 OFFCURVE",
"157 22 OFFCURVE",
"117 22 CURVE",
"111 22 OFFCURVE",
"110 18 OFFCURVE",
"110 11 CURVE",
"110 4 OFFCURVE",
"111 0 OFFCURVE",
"117 0 CURVE",
"372 0 LINE",
"378 0 OFFCURVE",
"379 6 OFFCURVE",
"379 11 CURVE",
"379 16 OFFCURVE",
"378 22 OFFCURVE",
"372 22 CURVE",
"313 23 OFFCURVE",
"254 39 OFFCURVE",
"277 110 CURVE",
"298 181 OFFCURVE",
"450 588 OFFCURVE",
"450 588 CURVE",
"450 588 OFFCURVE",
"591 177 OFFCURVE",
"614 112 CURVE",
"637 48 OFFCURVE",
"632 27 OFFCURVE",
"540 23 CURVE",
"535 23 OFFCURVE",
"533 19 OFFCURVE",
"533 11 CURVE",
"533 4 OFFCURVE",
"534 0 OFFCURVE",
"540 0 CURVE"
);
},
{
closed = 1;
nodes = (
"631 250 LINE",
"621 286 LINE",
"314 286 LINE",
"304 250 LINE"
);
}
);
width = 1000;
}
);
unicode = FF21;
},
{
glyphname = B.full;
lastChange = "2020-06-21 16:35:09 +0000";
layers = (
{
anchors = (
{
name = LSB;
position = "{127, 380}";
},
{
name = RSB;
position = "{873, 380}";
}
);
layerId = "69412919-AED9-45FB-ADD8-4F440013F7DA";
paths = (
{
closed = 1;
nodes = (
"205 0 OFFCURVE",
"389 -1 OFFCURVE",
"534 0 CURVE SMOOTH",
"679 1 OFFCURVE",
"803 72 OFFCURVE",
"803 200 CURVE SMOOTH",
"803 310 OFFCURVE",
"681 365 OFFCURVE",
"572 388 CURVE",
"666 410 OFFCURVE",
"762 459 OFFCURVE",
"762 555 CURVE SMOOTH",
"762 661 OFFCURVE",
"656 723 OFFCURVE",
"522 726 CURVE SMOOTH",
"387 728 OFFCURVE",
"205 726 OFFCURVE",
"205 726 CURVE",
"199 726 OFFCURVE",
"197 720 OFFCURVE",
"197 711 CURVE SMOOTH",
"197 702 OFFCURVE",
"199 697 OFFCURVE",
"205 697 CURVE SMOOTH",
"221 697 LINE SMOOTH",
"278 697 OFFCURVE",
"306 683 OFFCURVE",
"306 635 CURVE SMOOTH",
"306 91 LINE SMOOTH",
"306 44 OFFCURVE",
"281 29 OFFCURVE",
"221 29 CURVE SMOOTH",
"205 29 LINE SMOOTH",
"199 29 OFFCURVE",
"197 24 OFFCURVE",
"197 14 CURVE SMOOTH",
"197 5 OFFCURVE",
"199 0 OFFCURVE",
"205 0 CURVE"
);
},
{
closed = 1;
nodes = (
"414 29 OFFCURVE",
"387 42 OFFCURVE",
"387 91 CURVE SMOOTH",
"387 373 LINE",
"413 373 LINE SMOOTH",
"650 373 OFFCURVE",
"709 291 OFFCURVE",
"709 201 CURVE SMOOTH",
"709 79 OFFCURVE",
"600 29 OFFCURVE",
"475 29 CURVE SMOOTH",
"472 29 LINE SMOOTH"
);
},
{
closed = 1;
nodes = (
"387 635 LINE SMOOTH",
"387 680 OFFCURVE",
"410 696 OFFCURVE",
"467 697 CURVE SMOOTH",
"600 695 OFFCURVE",
"669 639 OFFCURVE",
"669 559 CURVE SMOOTH",
"669 474 OFFCURVE",
"623 402 OFFCURVE",
"413 402 CURVE SMOOTH",
"387 402 LINE"
);
}
);
width = 1000;
},
{
anchors = (
{
name = LSB;
position = "{71, 380}";
},
{
name = RSB;
position = "{929, 380}";
}
);
layerId = "3FC96813-E7C5-45AC-9F0B-5DBEB42CEC4B";
paths = (
{
closed = 1;
nodes = (
"148 0 OFFCURVE",
"421 -2 OFFCURVE",
"571 0 CURVE SMOOTH",
"721 2 OFFCURVE",
"859 74 OFFCURVE",
"859 205 CURVE SMOOTH",
"859 319 OFFCURVE",
"732 374 OFFCURVE",
"620 397 CURVE",
"717 420 OFFCURVE",
"817 470 OFFCURVE",
"817 569 CURVE SMOOTH",
"817 677 OFFCURVE",
"697 742 OFFCURVE",
"569 744 CURVE SMOOTH",
"440 745 OFFCURVE",
"148 744 OFFCURVE",
"148 744 CURVE",
"142 744 OFFCURVE",
"141 740 OFFCURVE",
"141 733 CURVE SMOOTH",
"141 727 OFFCURVE",
"142 723 OFFCURVE",
"148 723 CURVE SMOOTH",
"158 723 LINE SMOOTH",
"189 723 OFFCURVE",
"241 714 OFFCURVE",
"241 631 CURVE SMOOTH",
"241 113 LINE SMOOTH",
"241 30 OFFCURVE",
"189 21 OFFCURVE",
"158 21 CURVE SMOOTH",
"148 21 LINE SMOOTH",
"142 21 OFFCURVE",
"141 17 OFFCURVE",
"141 10 CURVE SMOOTH",
"141 4 OFFCURVE",
"142 0 OFFCURVE",
"148 0 CURVE"
);
},
{
closed = 1;
nodes = (
"430 30 OFFCURVE",
"407 44 OFFCURVE",
"407 93 CURVE SMOOTH",
"407 382 LINE",
"429 382 LINE SMOOTH",
"638 382 OFFCURVE",
"676 298 OFFCURVE",
"676 206 CURVE SMOOTH",
"676 89 OFFCURVE",
"619 30 OFFCURVE",
"522 30 CURVE SMOOTH",
"489 30 LINE SMOOTH"
);
},
{
closed = 1;
nodes = (
"407 651 LINE SMOOTH",
"407 697 OFFCURVE",
"432 714 OFFCURVE",
"490 714 CURVE SMOOTH",
"601 714 OFFCURVE",
"634 645 OFFCURVE",
"634 573 CURVE SMOOTH",
"634 494 OFFCURVE",
"611 412 OFFCURVE",
"429 412 CURVE SMOOTH",
"407 412 LINE"
);
}
);
width = 1000;
},
{
anchors = (
{
name = LSB;
position = "{82, 380}";
},
{
name = RSB;
position = "{918, 380}";
}
);
layerId = "17F3AB05-7131-4B64-9C58-864369A22196";
paths = (
{
closed = 1;
nodes = (
"159 0 OFFCURVE",
"415 -2 OFFCURVE",
"564 0 CURVE SMOOTH",
"713 2 OFFCURVE",
"848 74 OFFCURVE",
"848 204 CURVE SMOOTH",
"848 317 OFFCURVE",
"722 372 OFFCURVE",
"610 395 CURVE",
"707 418 OFFCURVE",
"806 468 OFFCURVE",
"806 566 CURVE SMOOTH",
"806 674 OFFCURVE",
"689 738 OFFCURVE",
"560 740 CURVE SMOOTH",
"429 742 OFFCURVE",
"159 740 OFFCURVE",
"159 740 CURVE",
"153 740 OFFCURVE",
"152 736 OFFCURVE",
"152 729 CURVE SMOOTH",
"152 722 OFFCURVE",
"153 718 OFFCURVE",
"159 718 CURVE SMOOTH",
"171 718 LINE SMOOTH",
"207 718 OFFCURVE",
"254 708 OFFCURVE",
"254 632 CURVE SMOOTH",
"254 109 LINE SMOOTH",
"254 33 OFFCURVE",
"207 23 OFFCURVE",
"171 23 CURVE SMOOTH",
"159 23 LINE SMOOTH",
"153 23 OFFCURVE",
"152 18 OFFCURVE",
"152 11 CURVE SMOOTH",
"152 4 OFFCURVE",
"153 0 OFFCURVE",
"159 0 CURVE"
);
},
{
closed = 1;
nodes = (
"427 30 OFFCURVE",
"403 44 OFFCURVE",
"403 93 CURVE SMOOTH",
"403 380 LINE",
"426 380 LINE SMOOTH",
"640 380 OFFCURVE",
"683 297 OFFCURVE",
"683 205 CURVE SMOOTH",
"683 87 OFFCURVE",
"615 30 OFFCURVE",
"513 30 CURVE SMOOTH",
"486 30 LINE SMOOTH"
);
},
{
closed = 1;
nodes = (
"403 648 LINE SMOOTH",
"403 694 OFFCURVE",
"428 710 OFFCURVE",
"485 711 CURVE SMOOTH",
"601 710 OFFCURVE",
"641 644 OFFCURVE",
"641 570 CURVE SMOOTH",
"641 490 OFFCURVE",
"613 410 OFFCURVE",
"426 410 CURVE SMOOTH",
"403 410 LINE"
);
}
);
width = 1000;
}
);
unicode = FF22;
},
{
glyphname = C.full;
lastChange = "2020-06-21 16:35:09 +0000";
layers = (
{
anchors = (
{
name = LSB;
position = "{126.324, 380}";
},
{
name = RSB;
position = "{874.454, 380}";
}
);
layerId = "69412919-AED9-45FB-ADD8-4F440013F7DA";
paths = (
{
closed = 1;
nodes = (
"687 -14 OFFCURVE",
"765 101 OFFCURVE",
"803 170 CURVE SMOOTH",
"807 179 OFFCURVE",
"802 186 OFFCURVE",
"797 189 CURVE SMOOTH",
"791 192 OFFCURVE",
"784 194 OFFCURVE",
"779 186 CURVE SMOOTH",
"725 105 OFFCURVE",
"659 34 OFFCURVE",
"550 34 CURVE SMOOTH",
"436 34 OFFCURVE",
"277 130 OFFCURVE",
"287 389 CURVE SMOOTH",
"293 561 OFFCURVE",
"383 706 OFFCURVE",
"542 697 CURVE SMOOTH",
"690 690 OFFCURVE",
"749 560 OFFCURVE",
"760 544 CURVE SMOOTH",
"765 537 OFFCURVE",
"772 536 OFFCURVE",
"777 538 CURVE SMOOTH",
"783 540 OFFCURVE",
"787 544 OFFCURVE",
"786 553 CURVE",
"744 723 LINE",
"725 702 OFFCURVE",
"691 688 OFFCURVE",
"659 701 CURVE SMOOTH",
"632 713 OFFCURVE",
"599 729 OFFCURVE",
"534 734 CURVE SMOOTH",
"425 743 OFFCURVE",
"219 643 OFFCURVE",
"198 384 CURVE SMOOTH",
"175 104 OFFCURVE",
"394 -14 OFFCURVE",
"535 -14 CURVE SMOOTH"
);
}
);
width = 1000;
},
{
anchors = (
{
name = LSB;
position = "{95.549, 380}";
},
{
name = RSB;
position = "{903.081, 380}";
}
);
layerId = "3FC96813-E7C5-45AC-9F0B-5DBEB42CEC4B";
paths = (
{
closed = 1;
nodes = (
"715 -13 OFFCURVE",
"799 112 OFFCURVE",
"831 178 CURVE SMOOTH",
"835 185 OFFCURVE",
"833 189 OFFCURVE",
"827 193 CURVE SMOOTH",
"821 197 OFFCURVE",
"816 197 OFFCURVE",
"812 191 CURVE SMOOTH",
"770 122 OFFCURVE",
"709 36 OFFCURVE",
"575 36 CURVE SMOOTH",
"451 36 OFFCURVE",
"335 155 OFFCURVE",
"345 389 CURVE SMOOTH",
"353 567 OFFCURVE",
"419 723 OFFCURVE",
"549 718 CURVE SMOOTH",
"699 711 OFFCURVE",
"776 572 OFFCURVE",
"785 559 CURVE SMOOTH",
"789 553 OFFCURVE",
"794 552 OFFCURVE",
"799 554 CURVE SMOOTH",
"804 556 OFFCURVE",
"808 559 OFFCURVE",
"806 567 CURVE SMOOTH",
"767 742 LINE",
"734 717 OFFCURVE",
"714 724 OFFCURVE",
"675 732 CURVE SMOOTH",
"627 740 OFFCURVE",
"606 752 OFFCURVE",
"540 755 CURVE SMOOTH",
"413 760 OFFCURVE",
"178 654 OFFCURVE",
"166 382 CURVE SMOOTH",
"154 93 OFFCURVE",
"384 -13 OFFCURVE",
"559 -13 CURVE SMOOTH"
);
}
);
width = 1000;
},
{
anchors = (
{
name = LSB;
position = "{102, 380}";
},
{
name = RSB;
position = "{897, 380}";
}
);
layerId = "17F3AB05-7131-4B64-9C58-864369A22196";
paths = (
{
closed = 1;
nodes = (
"709 -13 OFFCURVE",
"792 110 OFFCURVE",
"825 176 CURVE SMOOTH",
"829 184 OFFCURVE",
"827 188 OFFCURVE",
"821 192 CURVE SMOOTH",
"815 196 OFFCURVE",
"810 196 OFFCURVE",
"805 190 CURVE SMOOTH",
"761 119 OFFCURVE",
"699 36 OFFCURVE",
"570 36 CURVE SMOOTH",
"448 36 OFFCURVE",
"323 150 OFFCURVE",
"333 389 CURVE SMOOTH",
"341 566 OFFCURVE",
"412 720 OFFCURVE",
"548 714 CURVE SMOOTH",
"697 707 OFFCURVE",
"771 570 OFFCURVE",
"780 556 CURVE SMOOTH",
"784 550 OFFCURVE",
"790 549 OFFCURVE",
"795 551 CURVE SMOOTH",
"800 553 OFFCURVE",
"804 556 OFFCURVE",
"802 564 CURVE",
"762 738 LINE",
"732 714 OFFCURVE",
"709 717 OFFCURVE",
"672 726 CURVE SMOOTH",
"628 735 OFFCURVE",
"605 747 OFFCURVE",
"539 751 CURVE SMOOTH",
"415 757 OFFCURVE",
"186 652 OFFCURVE",
"172 382 CURVE SMOOTH",
"158 95 OFFCURVE",
"386 -13 OFFCURVE",
"554 -13 CURVE SMOOTH"
);
}
);
width = 1000;
}
);
unicode = FF23;
},
{
glyphname = D.full;
lastChange = "2020-06-21 16:35:09 +0000";
layers = (
{
anchors = (
{
name = LSB;
position = "{92, 380}";
},
{
name = RSB;
position = "{907, 380}";
}
);
layerId = "69412919-AED9-45FB-ADD8-4F440013F7DA";
paths = (
{
closed = 1;
nodes = (
"170 0 OFFCURVE",
"366 -3 OFFCURVE",
"476 2 CURVE SMOOTH",
"651 10 OFFCURVE",
"837 103 OFFCURVE",
"837 363 CURVE SMOOTH",
"837 625 OFFCURVE",
"651 718 OFFCURVE",
"476 724 CURVE SMOOTH",
"366 728 OFFCURVE",
"170 726 OFFCURVE",
"170 726 CURVE",
"164 726 OFFCURVE",
"162 721 OFFCURVE",
"162 712 CURVE SMOOTH",
"162 702 OFFCURVE",
"164 697 OFFCURVE",
"170 697 CURVE SMOOTH",
"186 697 LINE SMOOTH",
"244 697 OFFCURVE",
"271 684 OFFCURVE",
"271 635 CURVE SMOOTH",
"271 90 LINE SMOOTH",
"271 42 OFFCURVE",
"244 28 OFFCURVE",
"186 28 CURVE SMOOTH",
"170 28 LINE SMOOTH",
"164 28 OFFCURVE",
"162 23 OFFCURVE",
"162 14 CURVE SMOOTH",
"162 5 OFFCURVE",
"164 0 OFFCURVE",
"170 0 CURVE"
);
},
{
closed = 1;
nodes = (
"377 30 OFFCURVE",
"352 46 OFFCURVE",
"352 92 CURVE SMOOTH",
"352 633 LINE SMOOTH",
"352 680 OFFCURVE",
"377 695 OFFCURVE",
"437 695 CURVE SMOOTH",
"457 695 LINE SMOOTH",
"546 695 OFFCURVE",
"745 645 OFFCURVE",
"745 363 CURVE SMOOTH",
"745 83 OFFCURVE",
"546 30 OFFCURVE",
"457 30 CURVE SMOOTH",
"437 30 LINE SMOOTH"
);
}
);
width = 1000;
},
{
anchors = (
{
name = LSB;
position = "{64, 380}";
},
{
name = RSB;
position = "{936, 380}";
}
);
layerId = "3FC96813-E7C5-45AC-9F0B-5DBEB42CEC4B";
paths = (
{
closed = 1;
nodes = (
"141 0 OFFCURVE",
"429 -5 OFFCURVE",
"515 0 CURVE SMOOTH",
"648 8 OFFCURVE",
"866 104 OFFCURVE",
"866 372 CURVE SMOOTH",
"866 639 OFFCURVE",
"648 736 OFFCURVE",
"515 744 CURVE SMOOTH",
"429 749 OFFCURVE",
"141 744 OFFCURVE",
"141 744 CURVE",
"136 744 OFFCURVE",
"134 740 OFFCURVE",
"134 734 CURVE SMOOTH",
"134 727 OFFCURVE",
"135 723 OFFCURVE",
"141 723 CURVE SMOOTH",
"151 723 LINE SMOOTH",
"182 723 OFFCURVE",
"234 714 OFFCURVE",
"234 631 CURVE SMOOTH",
"234 113 LINE SMOOTH",
"234 30 OFFCURVE",
"182 21 OFFCURVE",
"151 21 CURVE SMOOTH",
"141 21 LINE SMOOTH",
"136 21 OFFCURVE",
"134 17 OFFCURVE",
"134 11 CURVE SMOOTH",
"134 4 OFFCURVE",
"135 0 OFFCURVE",
"141 0 CURVE"
);
},
{
closed = 1;
nodes = (
"418 30 OFFCURVE",
"390 44 OFFCURVE",
"390 93 CURVE SMOOTH",
"390 651 LINE SMOOTH",
"390 698 OFFCURVE",
"415 714 OFFCURVE",
"478 714 CURVE SMOOTH",
"484 714 LINE SMOOTH",
"575 714 OFFCURVE",
"696 659 OFFCURVE",
"696 372 CURVE SMOOTH",
"696 84 OFFCURVE",
"575 30 OFFCURVE",
"484 30 CURVE SMOOTH",
"478 30 LINE SMOOTH"
);
}
);
width = 1000;
},
{
anchors = (
{
name = LSB;
position = "{70, 380}";
},
{
name = RSB;
position = "{930, 380}";
}
);
layerId = "17F3AB05-7131-4B64-9C58-864369A22196";
paths = (
{
closed = 1;
nodes = (
"147 0 OFFCURVE",
"416 -5 OFFCURVE",
"507 0 CURVE SMOOTH",
"649 8 OFFCURVE",
"860 104 OFFCURVE",
"860 370 CURVE SMOOTH",
"860 636 OFFCURVE",
"649 732 OFFCURVE",
"507 740 CURVE SMOOTH",
"416 745 OFFCURVE",
"147 740 OFFCURVE",
"147 740 CURVE",
"142 740 OFFCURVE",
"140 736 OFFCURVE",
"140 730 CURVE SMOOTH",
"140 722 OFFCURVE",
"141 718 OFFCURVE",
"147 718 CURVE SMOOTH",
"158 718 LINE SMOOTH",
"194 718 OFFCURVE",
"241 708 OFFCURVE",
"241 632 CURVE SMOOTH",
"241 108 LINE SMOOTH",
"241 32 OFFCURVE",
"194 22 OFFCURVE",
"158 22 CURVE SMOOTH",
"147 22 LINE SMOOTH",
"142 22 OFFCURVE",
"140 18 OFFCURVE",
"140 12 CURVE SMOOTH",
"140 4 OFFCURVE",
"141 0 OFFCURVE",
"147 0 CURVE"
);
},
{
closed = 1;
nodes = (
"410 30 OFFCURVE",
"382 44 OFFCURVE",
"382 93 CURVE SMOOTH",
"382 647 LINE SMOOTH",
"382 694 OFFCURVE",
"407 710 OFFCURVE",
"470 710 CURVE SMOOTH",
"479 710 LINE SMOOTH",
"569 710 OFFCURVE",
"706 656 OFFCURVE",
"706 370 CURVE SMOOTH",
"706 84 OFFCURVE",
"569 30 OFFCURVE",
"479 30 CURVE SMOOTH",
"470 30 LINE SMOOTH"
);
}
);
width = 1000;
}
);
unicode = FF24;
},
{
glyphname = E.full;
lastChange = "2020-06-21 16:35:09 +0000";
layers = (
{
anchors = (
{
name = LSB;
position = "{118, 380}";
},
{
name = RSB;
position = "{880.608, 380}";
}
);
layerId = "69412919-AED9-45FB-ADD8-4F440013F7DA";
paths = (
{
closed = 1;
nodes = (
"750 0 LINE",
"770 57 OFFCURVE",
"789 99 OFFCURVE",
"810 161 CURVE SMOOTH",
"812 167 OFFCURVE",
"809 174 OFFCURVE",
"802 177 CURVE SMOOTH",
"795 180 OFFCURVE",
"789 180 OFFCURVE",
"785 175 CURVE SMOOTH",
"732 109 OFFCURVE",
"675 41 OFFCURVE",
"543 30 CURVE SMOOTH",
"518 28 OFFCURVE",
"485 29 OFFCURVE",
"463 30 CURVE SMOOTH",
"410 32 OFFCURVE",
"377 42 OFFCURVE",
"377 91 CURVE SMOOTH",
"377 635 LINE SMOOTH",
"377 695 OFFCURVE",
"421 696 OFFCURVE",
"488 696 CURVE SMOOTH",
"513 696 LINE SMOOTH",
"615 696 OFFCURVE",
"700 656 OFFCURVE",
"756 600 CURVE SMOOTH",
"760 596 OFFCURVE",
"766 594 OFFCURVE",
"774 598 CURVE SMOOTH",
"780 601 OFFCURVE",
"784 605 OFFCURVE",
"781 613 CURVE SMOOTH",
"777 624 OFFCURVE",
"719 726 OFFCURVE",
"719 726 CURVE",
"195 726 LINE SMOOTH",
"190 726 OFFCURVE",
"188 721 OFFCURVE",
"188 712 CURVE SMOOTH",
"188 702 OFFCURVE",
"189 697 OFFCURVE",
"195 697 CURVE SMOOTH",
"211 697 LINE SMOOTH",
"265 697 OFFCURVE",
"297 684 OFFCURVE",
"297 635 CURVE SMOOTH",
"297 91 LINE SMOOTH",
"297 45 OFFCURVE",
"270 29 OFFCURVE",
"211 29 CURVE SMOOTH",
"195 29 LINE SMOOTH",
"190 29 OFFCURVE",
"188 24 OFFCURVE",
"188 15 CURVE SMOOTH",
"188 6 OFFCURVE",
"189 0 OFFCURVE",
"195 0 CURVE SMOOTH"
);
},
{
closed = 1;
nodes = (
"658 253 OFFCURVE",
"663 255 OFFCURVE",
"663 261 CURVE SMOOTH",
"663 490 LINE SMOOTH",
"663 496 OFFCURVE",
"658 497 OFFCURVE",
"649 497 CURVE SMOOTH",
"641 497 OFFCURVE",
"636 496 OFFCURVE",
"636 490 CURVE SMOOTH",
"636 437 OFFCURVE",
"605 394 OFFCURVE",
"547 393 CURVE SMOOTH",
"491 392 OFFCURVE",
"334 393 OFFCURVE",
"334 393 CURVE",
"334 358 LINE",
"334 358 OFFCURVE",
"491 359 OFFCURVE",
"547 358 CURVE SMOOTH",
"605 357 OFFCURVE",
"636 314 OFFCURVE",
"636 261 CURVE SMOOTH",
"636 255 OFFCURVE",
"641 253 OFFCURVE",
"649 253 CURVE SMOOTH"
);
}
);
width = 1000;
},
{
anchors = (
{
name = LSB;
position = "{79, 380}";
},
{
name = RSB;
position = "{919.626, 380}";
}
);
layerId = "3FC96813-E7C5-45AC-9F0B-5DBEB42CEC4B";
paths = (
{
closed = 1;
nodes = (
"774 0 LINE",
"795 59 OFFCURVE",
"829 152 OFFCURVE",
"849 202 CURVE SMOOTH",
"851 207 OFFCURVE",
"848 212 OFFCURVE",
"843 215 CURVE SMOOTH",
"837 218 OFFCURVE",
"833 217 OFFCURVE",
"828 213 CURVE",
"789 157 OFFCURVE",
"699 35 OFFCURVE",
"562 30 CURVE SMOOTH",
"536 29 OFFCURVE",
"527 28 OFFCURVE",
"506 30 CURVE SMOOTH",
"451 35 OFFCURVE",
"416 42 OFFCURVE",
"416 93 CURVE SMOOTH",
"416 652 LINE SMOOTH",
"416 712 OFFCURVE",
"460 715 OFFCURVE",
"528 715 CURVE SMOOTH",
"543 715 LINE SMOOTH",
"650 715 OFFCURVE",
"765 639 OFFCURVE",
"809 593 CURVE",
"813 590 OFFCURVE",
"818 590 OFFCURVE",
"824 592 CURVE SMOOTH",
"829 594 OFFCURVE",
"832 598 OFFCURVE",
"829 603 CURVE",
"826 612 OFFCURVE",
"754 744 OFFCURVE",
"754 744 CURVE",
"157 744 LINE SMOOTH",
"151 744 OFFCURVE",
"149 740 OFFCURVE",
"149 734 CURVE SMOOTH",
"149 727 OFFCURVE",
"151 723 OFFCURVE",
"157 723 CURVE SMOOTH",
"167 723 LINE SMOOTH",
"198 723 OFFCURVE",
"250 714 OFFCURVE",
"250 631 CURVE SMOOTH",
"250 113 LINE SMOOTH",
"250 30 OFFCURVE",
"198 21 OFFCURVE",
"167 21 CURVE SMOOTH",
"157 21 LINE SMOOTH",
"151 21 OFFCURVE",
"149 17 OFFCURVE",
"149 11 CURVE SMOOTH",
"149 4 OFFCURVE",
"151 0 OFFCURVE",
"157 0 CURVE SMOOTH"
);
},
{
closed = 1;
nodes = (
"674 260 OFFCURVE",
"678 261 OFFCURVE",
"678 267 CURVE SMOOTH",
"678 503 LINE SMOOTH",
"678 508 OFFCURVE",
"674 509 OFFCURVE",
"666 509 CURVE SMOOTH",
"659 509 OFFCURVE",
"655 508 OFFCURVE",
"655 503 CURVE SMOOTH",
"655 460 OFFCURVE",
"622 404 OFFCURVE",
"561 403 CURVE SMOOTH",
"504 402 OFFCURVE",
"384 403 OFFCURVE",
"384 403 CURVE",
"384 367 LINE",
"384 367 OFFCURVE",
"504 368 OFFCURVE",
"561 367 CURVE SMOOTH",
"622 366 OFFCURVE",
"655 310 OFFCURVE",
"655 267 CURVE SMOOTH",
"655 261 OFFCURVE",
"659 260 OFFCURVE",
"666 260 CURVE SMOOTH"
);
}
);
width = 1000;
},
{
anchors = (
{
name = LSB;
position = "{87, 380}";
},
{
name = RSB;
position = "{912, 380}";
}
);
layerId = "17F3AB05-7131-4B64-9C58-864369A22196";
paths = (
{
closed = 1;
nodes = (
"769 0 LINE",
"790 59 OFFCURVE",
"821 141 OFFCURVE",
"841 194 CURVE SMOOTH",
"843 199 OFFCURVE",
"840 204 OFFCURVE",
"835 207 CURVE SMOOTH",
"829 210 OFFCURVE",
"824 210 OFFCURVE",
"819 205 CURVE SMOOTH",
"778 147 OFFCURVE",
"694 36 OFFCURVE",
"558 30 CURVE SMOOTH",
"532 29 OFFCURVE",
"519 28 OFFCURVE",
"497 30 CURVE SMOOTH",
"443 34 OFFCURVE",
"408 42 OFFCURVE",
"408 93 CURVE SMOOTH",
"408 649 LINE SMOOTH",
"408 709 OFFCURVE",
"452 711 OFFCURVE",
"520 711 CURVE SMOOTH",
"537 711 LINE SMOOTH",
"643 711 OFFCURVE",
"752 642 OFFCURVE",
"798 594 CURVE SMOOTH",
"802 591 OFFCURVE",
"808 591 OFFCURVE",
"814 593 CURVE SMOOTH",
"819 595 OFFCURVE",
"822 599 OFFCURVE",
"819 605 CURVE SMOOTH",
"816 614 OFFCURVE",
"747 740 OFFCURVE",
"747 740 CURVE",
"165 740 LINE SMOOTH",
"159 740 OFFCURVE",
"157 736 OFFCURVE",
"157 730 CURVE SMOOTH",
"157 722 OFFCURVE",
"159 718 OFFCURVE",
"165 718 CURVE SMOOTH",
"176 718 LINE SMOOTH",
"211 718 OFFCURVE",
"259 708 OFFCURVE",
"259 632 CURVE SMOOTH",
"259 109 LINE SMOOTH",
"259 33 OFFCURVE",
"212 23 OFFCURVE",
"176 23 CURVE SMOOTH",
"165 23 LINE SMOOTH",
"159 23 OFFCURVE",
"157 18 OFFCURVE",
"157 12 CURVE SMOOTH",
"157 4 OFFCURVE",
"159 0 OFFCURVE",
"165 0 CURVE SMOOTH"
);
},
{
closed = 1;
nodes = (
"671 259 OFFCURVE",
"675 260 OFFCURVE",
"675 266 CURVE SMOOTH",
"675 500 LINE SMOOTH",
"675 506 OFFCURVE",
"671 507 OFFCURVE",
"663 507 CURVE SMOOTH",
"655 507 OFFCURVE",
"651 506 OFFCURVE",
"651 500 CURVE SMOOTH",
"651 455 OFFCURVE",
"619 402 OFFCURVE",
"558 401 CURVE SMOOTH",
"501 400 OFFCURVE",
"374 401 OFFCURVE",
"374 401 CURVE",
"374 365 LINE",
"374 365 OFFCURVE",
"501 366 OFFCURVE",
"558 365 CURVE SMOOTH",
"619 364 OFFCURVE",
"651 311 OFFCURVE",
"651 266 CURVE SMOOTH",
"651 260 OFFCURVE",
"655 259 OFFCURVE",
"663 259 CURVE SMOOTH"
);
}
);
width = 1000;
}
);
unicode = FF25;
},
{
glyphname = F.full;
lastChange = "2020-06-21 16:35:09 +0000";
layers = (
{
anchors = (
{
name = LSB;
position = "{133, 380}";
},
{
name = RSB;
position = "{867.02, 380}";
}
);
layerId = "69412919-AED9-45FB-ADD8-4F440013F7DA";
paths = (
{
closed = 1;
nodes = (
"494 0 LINE SMOOTH",
"500 0 OFFCURVE",
"501 6 OFFCURVE",
"501 15 CURVE SMOOTH",
"501 24 OFFCURVE",
"499 29 OFFCURVE",
"494 29 CURVE SMOOTH",
"478 29 LINE SMOOTH",
"419 29 OFFCURVE",
"392 45 OFFCURVE",
"392 91 CURVE SMOOTH",
"392 635 LINE SMOOTH",
"392 695 OFFCURVE",
"436 696 OFFCURVE",
"503 696 CURVE SMOOTH",
"528 696 LINE SMOOTH",
"631 696 OFFCURVE",
"715 656 OFFCURVE",
"771 600 CURVE SMOOTH",
"775 596 OFFCURVE",
"781 594 OFFCURVE",
"789 598 CURVE SMOOTH",
"795 601 OFFCURVE",
"799 605 OFFCURVE",
"796 613 CURVE SMOOTH",
"792 624 OFFCURVE",
"734 726 OFFCURVE",
"734 726 CURVE",
"210 726 LINE SMOOTH",
"205 726 OFFCURVE",
"203 721 OFFCURVE",
"203 712 CURVE SMOOTH",
"203 702 OFFCURVE",
"204 697 OFFCURVE",
"210 697 CURVE SMOOTH",
"226 697 LINE SMOOTH",
"280 697 OFFCURVE",
"312 684 OFFCURVE",
"312 635 CURVE SMOOTH",
"312 91 LINE SMOOTH",
"312 45 OFFCURVE",
"285 29 OFFCURVE",
"226 29 CURVE SMOOTH",
"210 29 LINE SMOOTH",
"205 29 OFFCURVE",
"203 24 OFFCURVE",
"203 15 CURVE SMOOTH",
"203 6 OFFCURVE",
"204 0 OFFCURVE",
"210 0 CURVE SMOOTH"
);
},
{
closed = 1;
nodes = (
"673 253 OFFCURVE",
"678 255 OFFCURVE",
"678 261 CURVE SMOOTH",
"678 490 LINE SMOOTH",
"678 496 OFFCURVE",
"673 497 OFFCURVE",
"664 497 CURVE SMOOTH",
"656 497 OFFCURVE",
"651 496 OFFCURVE",
"651 490 CURVE SMOOTH",
"651 437 OFFCURVE",
"620 394 OFFCURVE",
"562 393 CURVE SMOOTH",
"506 392 OFFCURVE",
"349 393 OFFCURVE",
"349 393 CURVE",
"349 358 LINE",
"349 358 OFFCURVE",
"506 359 OFFCURVE",
"562 358 CURVE SMOOTH",
"620 357 OFFCURVE",
"651 314 OFFCURVE",
"651 261 CURVE SMOOTH",
"651 255 OFFCURVE",
"656 253 OFFCURVE",
"664 253 CURVE SMOOTH"
);
}
);
width = 1000;
},
{
anchors = (
{
name = LSB;
position = "{89, 380}";
},
{
name = RSB;
position = "{909.626, 380}";
}
);
layerId = "3FC96813-E7C5-45AC-9F0B-5DBEB42CEC4B";
paths = (
{
closed = 1;
nodes = (
"519 0 LINE SMOOTH",
"525 0 OFFCURVE",
"526 6 OFFCURVE",
"526 11 CURVE SMOOTH",
"526 16 OFFCURVE",
"525 22 OFFCURVE",
"519 22 CURVE SMOOTH",
"509 22 LINE SMOOTH",
"478 22 OFFCURVE",
"426 30 OFFCURVE",
"426 114 CURVE SMOOTH",
"426 652 LINE SMOOTH",
"426 712 OFFCURVE",
"470 715 OFFCURVE",
"537 715 CURVE SMOOTH",
"552 715 LINE SMOOTH",
"659 715 OFFCURVE",
"774 639 OFFCURVE",
"818 593 CURVE",
"822 590 OFFCURVE",
"827 590 OFFCURVE",
"833 592 CURVE SMOOTH",
"838 594 OFFCURVE",
"841 598 OFFCURVE",
"839 603 CURVE SMOOTH",
"835 612 OFFCURVE",
"763 744 OFFCURVE",
"763 744 CURVE",
"166 744 LINE SMOOTH",
"161 744 OFFCURVE",
"159 740 OFFCURVE",
"159 734 CURVE SMOOTH",
"159 727 OFFCURVE",
"160 723 OFFCURVE",
"166 723 CURVE SMOOTH",
"176 723 LINE SMOOTH",
"207 723 OFFCURVE",
"259 714 OFFCURVE",
"259 631 CURVE SMOOTH",
"259 113 LINE SMOOTH",
"259 30 OFFCURVE",
"207 21 OFFCURVE",
"176 21 CURVE SMOOTH",
"166 21 LINE SMOOTH",
"161 21 OFFCURVE",
"159 17 OFFCURVE",
"159 11 CURVE SMOOTH",
"159 4 OFFCURVE",
"160 0 OFFCURVE",
"166 0 CURVE SMOOTH"
);
},
{
closed = 1;
nodes = (
"683 260 OFFCURVE",
"687 261 OFFCURVE",
"687 267 CURVE SMOOTH",
"687 503 LINE SMOOTH",
"687 508 OFFCURVE",
"683 509 OFFCURVE",
"675 509 CURVE SMOOTH",
"669 509 OFFCURVE",
"664 508 OFFCURVE",
"664 503 CURVE SMOOTH",
"664 460 OFFCURVE",
"631 404 OFFCURVE",
"570 403 CURVE SMOOTH",
"513 402 OFFCURVE",
"393 403 OFFCURVE",
"393 403 CURVE",
"393 367 LINE",
"393 367 OFFCURVE",
"513 368 OFFCURVE",
"570 367 CURVE SMOOTH",
"631 366 OFFCURVE",
"664 310 OFFCURVE",
"664 267 CURVE SMOOTH",
"664 261 OFFCURVE",
"669 260 OFFCURVE",
"675 260 CURVE SMOOTH"
);
}
);
width = 1000;
},
{
anchors = (
{
name = LSB;
position = "{98, 380}";
},
{
name = RSB;
position = "{901, 380}";
}
);
layerId = "17F3AB05-7131-4B64-9C58-864369A22196";
paths = (
{
closed = 1;
nodes = (
"514 0 LINE SMOOTH",
"520 0 OFFCURVE",
"521 6 OFFCURVE",
"521 12 CURVE SMOOTH",
"521 18 OFFCURVE",
"520 23 OFFCURVE",
"514 23 CURVE SMOOTH",
"503 23 LINE SMOOTH",
"466 23 OFFCURVE",
"419 33 OFFCURVE",
"419 109 CURVE SMOOTH",
"419 649 LINE SMOOTH",
"419 709 OFFCURVE",
"463 711 OFFCURVE",
"530 711 CURVE SMOOTH",
"547 711 LINE SMOOTH",
"653 711 OFFCURVE",
"762 642 OFFCURVE",
"809 594 CURVE SMOOTH",
"813 591 OFFCURVE",
"818 591 OFFCURVE",
"824 593 CURVE SMOOTH",
"829 595 OFFCURVE",
"833 599 OFFCURVE",
"830 605 CURVE SMOOTH",
"826 614 OFFCURVE",
"757 740 OFFCURVE",
"757 740 CURVE",
"175 740 LINE SMOOTH",
"170 740 OFFCURVE",
"168 736 OFFCURVE",
"168 730 CURVE SMOOTH",
"168 722 OFFCURVE",
"169 718 OFFCURVE",
"175 718 CURVE SMOOTH",
"186 718 LINE SMOOTH",
"222 718 OFFCURVE",
"270 708 OFFCURVE",
"270 632 CURVE SMOOTH",
"270 109 LINE SMOOTH",
"270 33 OFFCURVE",
"223 23 OFFCURVE",
"186 23 CURVE SMOOTH",
"175 23 LINE SMOOTH",
"170 23 OFFCURVE",
"168 18 OFFCURVE",
"168 12 CURVE SMOOTH",
"168 4 OFFCURVE",
"169 0 OFFCURVE",
"175 0 CURVE SMOOTH"
);
},
{
closed = 1;
nodes = (
"681 259 OFFCURVE",
"685 260 OFFCURVE",
"685 266 CURVE SMOOTH",
"685 500 LINE SMOOTH",
"685 506 OFFCURVE",
"681 507 OFFCURVE",
"673 507 CURVE SMOOTH",
"666 507 OFFCURVE",
"661 506 OFFCURVE",
"661 500 CURVE SMOOTH",
"661 455 OFFCURVE",
"629 402 OFFCURVE",
"568 401 CURVE SMOOTH",
"512 400 OFFCURVE",
"384 401 OFFCURVE",
"384 401 CURVE",
"384 365 LINE",
"384 365 OFFCURVE",
"512 366 OFFCURVE",
"568 365 CURVE SMOOTH",
"629 364 OFFCURVE",
"661 311 OFFCURVE",
"661 266 CURVE SMOOTH",
"661 260 OFFCURVE",
"666 259 OFFCURVE",
"673 259 CURVE SMOOTH"
);
}
);
width = 1000;
}
);
unicode = FF26;
},
{
glyphname = G.full;
lastChange = "2020-06-21 16:35:09 +0000";
layers = (
{
anchors = (
{
name = LSB;
position = "{90.619, 380}";
},
{
name = RSB;
position = "{909, 380}";
}
);
layerId = "69412919-AED9-45FB-ADD8-4F440013F7DA";
paths = (
{
closed = 1;
nodes = (
"590 -17 OFFCURVE",
"659 40 OFFCURVE",
"745 32 CURVE",
"745 32 OFFCURVE",
"740 191 OFFCURVE",
"744 216 CURVE",
"749 257 OFFCURVE",
"787 276 OFFCURVE",
"831 277 CURVE",
"837 277 OFFCURVE",
"839 282 OFFCURVE",
"839 291 CURVE",
"839 300 OFFCURVE",
"837 305 OFFCURVE",
"831 305 CURVE",
"569 305 LINE",
"563 305 OFFCURVE",
"561 300 OFFCURVE",
"561 291 CURVE",
"561 282 OFFCURVE",
"562 277 OFFCURVE",
"569 277 CURVE",
"659 276 OFFCURVE",
"665 242 OFFCURVE",
"668 219 CURVE SMOOTH",
"672 189 OFFCURVE",
"669 160 OFFCURVE",
"659 124 CURVE SMOOTH",
"646 76 OFFCURVE",
"605 17 OFFCURVE",
"493 24 CURVE SMOOTH",
"380 31 OFFCURVE",
"240 132 OFFCURVE",
"251 371 CURVE SMOOTH",
"258 526 OFFCURVE",
"335 706 OFFCURVE",
"493 699 CURVE",
"641 693 OFFCURVE",
"710 560 OFFCURVE",
"722 543 CURVE",
"726 536 OFFCURVE",
"734 535 OFFCURVE",
"739 537 CURVE",
"744 540 OFFCURVE",
"749 544 OFFCURVE",
"747 553 CURVE",
"744 566 OFFCURVE",
"706 722 OFFCURVE",
"706 722 CURVE",
"674 692 OFFCURVE",
"652 686 OFFCURVE",
"620 701 CURVE",
"576 721 OFFCURVE",
"540 735 OFFCURVE",
"484 735 CURVE SMOOTH",
"371 735 OFFCURVE",
"173 625 OFFCURVE",
"161 364 CURVE",
"151 113 OFFCURVE",
"340 -6 OFFCURVE",
"496 -13 CURVE SMOOTH"
);
}
);
width = 1000;
},
{
anchors = (
{
name = LSB;
position = "{60.616, 380}";
},
{
name = RSB;
position = "{939, 380}";
}
);
layerId = "3FC96813-E7C5-45AC-9F0B-5DBEB42CEC4B";
paths = (
{
closed = 1;
nodes = (
"608 -13 OFFCURVE",
"622 38 OFFCURVE",
"773 33 CURVE",
"773 33 OFFCURVE",
"768 196 OFFCURVE",
"772 220 CURVE SMOOTH",
"779 263 OFFCURVE",
"816 283 OFFCURVE",
"862 283 CURVE SMOOTH",
"868 283 OFFCURVE",
"869 289 OFFCURVE",
"869 294 CURVE SMOOTH",
"869 299 OFFCURVE",
"868 304 OFFCURVE",
"862 304 CURVE SMOOTH",
"521 304 LINE SMOOTH",
"514 304 OFFCURVE",
"513 299 OFFCURVE",
"513 294 CURVE SMOOTH",
"513 289 OFFCURVE",
"514 283 OFFCURVE",
"521 283 CURVE SMOOTH",
"612 283 OFFCURVE",
"620 248 OFFCURVE",
"623 223 CURVE SMOOTH",
"626 197 OFFCURVE",
"626 154 OFFCURVE",
"619 116 CURVE SMOOTH",
"609 64 OFFCURVE",
"574 21 OFFCURVE",
"479 21 CURVE SMOOTH",
"376 21 OFFCURVE",
"294 133 OFFCURVE",
"305 377 CURVE SMOOTH",
"312 539 OFFCURVE",
"350 723 OFFCURVE",
"513 717 CURVE SMOOTH",
"664 711 OFFCURVE",
"741 572 OFFCURVE",
"750 559 CURVE SMOOTH",
"754 553 OFFCURVE",
"760 552 OFFCURVE",
"764 554 CURVE",
"769 555 OFFCURVE",
"772 559 OFFCURVE",
"771 566 CURVE SMOOTH",
"770 573 OFFCURVE",
"732 742 OFFCURVE",
"732 742 CURVE",
"699 717 OFFCURVE",
"679 725 OFFCURVE",
"640 731 CURVE SMOOTH",
"592 738 OFFCURVE",
"570 754 OFFCURVE",
"505 755 CURVE SMOOTH",
"345 757 OFFCURVE",
"143 643 OFFCURVE",
"131 374 CURVE SMOOTH",
"120 117 OFFCURVE",
"348 -13 OFFCURVE",
"482 -13 CURVE SMOOTH"
);
}
);
width = 1000;
},
{
anchors = (
{
name = LSB;
position = "{67, 380}";
},
{
name = RSB;
position = "{933, 380}";
}
);
layerId = "17F3AB05-7131-4B64-9C58-864369A22196";
paths = (
{
closed = 1;
nodes = (
"604 -14 OFFCURVE",
"629 38 OFFCURVE",
"767 33 CURVE",
"767 33 OFFCURVE",
"762 195 OFFCURVE",
"766 219 CURVE",
"773 262 OFFCURVE",
"810 282 OFFCURVE",
"856 282 CURVE",
"862 282 OFFCURVE",
"863 288 OFFCURVE",
"863 293 CURVE",
"863 299 OFFCURVE",
"862 304 OFFCURVE",
"856 304 CURVE",
"531 304 LINE",
"524 304 OFFCURVE",
"523 299 OFFCURVE",
"523 293 CURVE",
"523 288 OFFCURVE",
"524 282 OFFCURVE",
"531 282 CURVE",
"621 282 OFFCURVE",
"629 247 OFFCURVE",
"632 222 CURVE SMOOTH",
"635 195 OFFCURVE",
"635 155 OFFCURVE",
"627 118 CURVE SMOOTH",
"616 66 OFFCURVE",
"580 20 OFFCURVE",
"482 22 CURVE SMOOTH",
"377 23 OFFCURVE",
"283 133 OFFCURVE",
"294 376 CURVE SMOOTH",
"301 536 OFFCURVE",
"347 720 OFFCURVE",
"509 713 CURVE",
"659 707 OFFCURVE",
"735 570 OFFCURVE",
"744 556 CURVE",
"748 550 OFFCURVE",
"755 549 OFFCURVE",
"759 551 CURVE",
"764 552 OFFCURVE",
"767 556 OFFCURVE",
"766 563 CURVE",
"765 572 OFFCURVE",
"727 738 OFFCURVE",
"727 738 CURVE",
"694 712 OFFCURVE",
"674 717 OFFCURVE",
"636 725 CURVE",
"589 735 OFFCURVE",
"564 750 OFFCURVE",
"501 751 CURVE SMOOTH",
"350 753 OFFCURVE",
"149 639 OFFCURVE",
"137 372 CURVE",
"126 116 OFFCURVE",
"346 -12 OFFCURVE",
"485 -13 CURVE SMOOTH"
);
}
);
width = 1000;
}
);
unicode = FF27;
},
{
glyphname = H.full;
lastChange = "2020-06-21 16:35:09 +0000";
layers = (
{
anchors = (
{
name = LSB;
position = "{40, 380}";
},
{
name = RSB;
position = "{959, 380}";
}
);
layerId = "69412919-AED9-45FB-ADD8-4F440013F7DA";
paths = (
{
closed = 1;
nodes = (
"401 0 LINE SMOOTH",
"407 0 OFFCURVE",
"409 5 OFFCURVE",
"409 14 CURVE SMOOTH",
"409 24 OFFCURVE",
"407 29 OFFCURVE",
"401 29 CURVE SMOOTH",
"385 29 LINE SMOOTH",
"328 29 OFFCURVE",
"300 42 OFFCURVE",
"300 91 CURVE SMOOTH",
"300 635 LINE SMOOTH",
"300 681 OFFCURVE",
"325 697 OFFCURVE",
"385 697 CURVE SMOOTH",
"401 697 LINE SMOOTH",
"407 697 OFFCURVE",
"409 702 OFFCURVE",
"409 711 CURVE SMOOTH",
"409 719 OFFCURVE",
"407 726 OFFCURVE",
"401 726 CURVE SMOOTH",
"118 726 LINE SMOOTH",
"112 726 OFFCURVE",
"110 719 OFFCURVE",
"110 711 CURVE SMOOTH",
"110 702 OFFCURVE",
"112 697 OFFCURVE",
"118 697 CURVE SMOOTH",
"134 697 LINE SMOOTH",
"192 697 OFFCURVE",
"219 683 OFFCURVE",
"219 635 CURVE SMOOTH",
"219 91 LINE SMOOTH",
"219 44 OFFCURVE",
"195 29 OFFCURVE",
"134 29 CURVE SMOOTH",
"118 29 LINE SMOOTH",
"112 29 OFFCURVE",
"110 24 OFFCURVE",
"110 14 CURVE SMOOTH",
"110 5 OFFCURVE",
"112 0 OFFCURVE",
"118 0 CURVE SMOOTH"
);
},
{
closed = 1;
nodes = (
"882 0 LINE SMOOTH",
"887 0 OFFCURVE",
"889 5 OFFCURVE",
"889 14 CURVE SMOOTH",
"889 24 OFFCURVE",
"888 29 OFFCURVE",
"882 29 CURVE SMOOTH",
"867 29 LINE SMOOTH",
"812 29 OFFCURVE",
"780 42 OFFCURVE",
"780 91 CURVE SMOOTH",
"780 635 LINE SMOOTH",
"780 681 OFFCURVE",
"808 697 OFFCURVE",
"867 697 CURVE SMOOTH",
"882 697 LINE SMOOTH",
"887 697 OFFCURVE",
"889 702 OFFCURVE",
"889 711 CURVE SMOOTH",
"889 719 OFFCURVE",
"888 726 OFFCURVE",
"882 726 CURVE SMOOTH",
"599 726 LINE SMOOTH",
"594 726 OFFCURVE",
"592 719 OFFCURVE",
"592 711 CURVE SMOOTH",
"592 702 OFFCURVE",
"593 697 OFFCURVE",
"599 697 CURVE SMOOTH",
"614 697 LINE SMOOTH",
"669 697 OFFCURVE",
"701 684 OFFCURVE",
"701 635 CURVE SMOOTH",
"701 91 LINE SMOOTH",
"701 43 OFFCURVE",
"673 29 OFFCURVE",
"614 29 CURVE SMOOTH",
"599 29 LINE SMOOTH",
"594 29 OFFCURVE",
"592 24 OFFCURVE",
"592 14 CURVE SMOOTH",
"592 5 OFFCURVE",
"593 0 OFFCURVE",
"599 0 CURVE SMOOTH"
);
},
{
closed = 1;
nodes = (
"741 360 LINE",
"741 398 LINE",
"260 398 LINE",
"260 360 LINE"
);
}
);
width = 1000;
},
{
anchors = (
{
name = LSB;
position = "{31, 380}";
},
{
name = RSB;
position = "{969, 380}";
}
);
layerId = "3FC96813-E7C5-45AC-9F0B-5DBEB42CEC4B";
paths = (
{
closed = 1;
nodes = (
"460 0 LINE",
"466 0 OFFCURVE",
"467 6 OFFCURVE",
"467 11 CURVE",
"467 16 OFFCURVE",
"466 21 OFFCURVE",
"460 21 CURVE",
"450 21 LINE",
"419 21 OFFCURVE",
"367 31 OFFCURVE",
"367 114 CURVE",
"368 630 LINE",
"368 713 OFFCURVE",
"419 722 OFFCURVE",
"450 722 CURVE",
"460 722 LINE",
"466 722 OFFCURVE",
"467 727 OFFCURVE",
"467 733 CURVE",
"467 738 OFFCURVE",
"466 744 OFFCURVE",
"460 744 CURVE",
"108 744 LINE",
"102 744 OFFCURVE",
"101 738 OFFCURVE",
"101 733 CURVE",
"101 727 OFFCURVE",
"102 722 OFFCURVE",
"108 722 CURVE",
"119 722 LINE",
"149 722 OFFCURVE",
"202 713 OFFCURVE",
"202 630 CURVE",
"201 114 LINE",
"201 31 OFFCURVE",
"149 21 OFFCURVE",
"119 21 CURVE",
"108 21 LINE",
"102 21 OFFCURVE",
"101 16 OFFCURVE",
"101 11 CURVE",
"101 6 OFFCURVE",
"102 0 OFFCURVE",
"108 0 CURVE"
);
},
{
closed = 1;
nodes = (
"892 0 LINE",
"898 0 OFFCURVE",
"899 6 OFFCURVE",
"899 11 CURVE",
"899 16 OFFCURVE",
"898 21 OFFCURVE",
"892 21 CURVE",
"882 21 LINE",
"851 21 OFFCURVE",
"799 31 OFFCURVE",
"799 114 CURVE",
"800 630 LINE",
"800 713 OFFCURVE",
"851 722 OFFCURVE",
"882 722 CURVE",
"892 722 LINE",
"898 722 OFFCURVE",
"899 727 OFFCURVE",
"899 733 CURVE",
"899 738 OFFCURVE",
"898 744 OFFCURVE",
"892 744 CURVE",
"540 744 LINE",
"534 744 OFFCURVE",
"533 738 OFFCURVE",
"533 733 CURVE",
"533 727 OFFCURVE",
"534 722 OFFCURVE",
"540 722 CURVE",
"550 722 LINE",
"581 722 OFFCURVE",
"633 713 OFFCURVE",
"633 630 CURVE",
"632 114 LINE",
"632 31 OFFCURVE",
"581 21 OFFCURVE",
"550 21 CURVE",
"540 21 LINE",
"534 21 OFFCURVE",
"533 16 OFFCURVE",
"533 11 CURVE",
"533 6 OFFCURVE",
"534 0 OFFCURVE",
"540 0 CURVE"
);
},
{
closed = 1;
nodes = (
"721 375 LINE",
"721 410 LINE",
"279 410 LINE",
"279 375 LINE"
);
}
);
width = 1000;
},
{
anchors = (
{
name = LSB;
position = "{33, 380}";
},
{
name = RSB;
position = "{967, 380}";
}
);
layerId = "17F3AB05-7131-4B64-9C58-864369A22196";
paths = (
{
closed = 1;
nodes = (
"448 0 LINE SMOOTH",
"454 0 OFFCURVE",
"455 6 OFFCURVE",
"455 12 CURVE SMOOTH",
"455 18 OFFCURVE",
"454 23 OFFCURVE",
"448 23 CURVE SMOOTH",
"437 23 LINE SMOOTH",
"401 23 OFFCURVE",
"354 33 OFFCURVE",
"354 109 CURVE SMOOTH",
"354 631 LINE SMOOTH",
"354 707 OFFCURVE",
"400 717 OFFCURVE",
"437 717 CURVE SMOOTH",
"448 717 LINE SMOOTH",
"454 717 OFFCURVE",
"455 722 OFFCURVE",
"455 729 CURVE SMOOTH",
"455 734 OFFCURVE",
"454 740 OFFCURVE",
"448 740 CURVE SMOOTH",
"110 740 LINE SMOOTH",
"104 740 OFFCURVE",
"103 734 OFFCURVE",
"103 729 CURVE SMOOTH",
"103 722 OFFCURVE",
"104 717 OFFCURVE",
"110 717 CURVE SMOOTH",
"122 717 LINE SMOOTH",
"158 717 OFFCURVE",
"205 707 OFFCURVE",
"205 631 CURVE SMOOTH",
"205 109 LINE SMOOTH",
"205 34 OFFCURVE",
"158 23 OFFCURVE",
"122 23 CURVE SMOOTH",
"110 23 LINE SMOOTH",
"104 23 OFFCURVE",
"103 18 OFFCURVE",
"103 12 CURVE SMOOTH",
"103 6 OFFCURVE",
"104 0 OFFCURVE",
"110 0 CURVE SMOOTH"
);
},
{
closed = 1;
nodes = (
"890 0 LINE SMOOTH",
"896 0 OFFCURVE",
"897 6 OFFCURVE",
"897 12 CURVE SMOOTH",
"897 18 OFFCURVE",
"896 23 OFFCURVE",
"890 23 CURVE SMOOTH",
"879 23 LINE SMOOTH",
"843 23 OFFCURVE",
"795 33 OFFCURVE",
"795 109 CURVE SMOOTH",
"796 631 LINE SMOOTH",
"796 707 OFFCURVE",
"842 717 OFFCURVE",
"879 717 CURVE SMOOTH",
"890 717 LINE SMOOTH",
"896 717 OFFCURVE",
"897 722 OFFCURVE",
"897 729 CURVE SMOOTH",
"897 734 OFFCURVE",
"896 740 OFFCURVE",
"890 740 CURVE SMOOTH",
"552 740 LINE SMOOTH",
"546 740 OFFCURVE",
"545 734 OFFCURVE",
"545 729 CURVE SMOOTH",
"545 722 OFFCURVE",
"546 717 OFFCURVE",
"552 717 CURVE SMOOTH",
"563 717 LINE SMOOTH",
"599 717 OFFCURVE",
"647 707 OFFCURVE",
"647 631 CURVE SMOOTH",
"646 109 LINE SMOOTH",
"646 33 OFFCURVE",
"599 23 OFFCURVE",
"563 23 CURVE SMOOTH",
"552 23 LINE SMOOTH",
"546 23 OFFCURVE",
"545 18 OFFCURVE",
"545 12 CURVE SMOOTH",
"545 6 OFFCURVE",
"546 0 OFFCURVE",
"552 0 CURVE SMOOTH"
);
},
{
closed = 1;
nodes = (
"725 372 LINE",
"725 408 LINE",
"275 408 LINE",
"275 372 LINE"
);
}
);
width = 1000;
}
);
unicode = FF28;
},
{
glyphname = I.full;
lastChange = "2020-06-21 16:35:09 +0000";
layers = (
{
anchors = (
{
name = LSB;
position = "{281, 380}";
},
{
name = RSB;
position = "{719, 380}";
}
);
layerId = "69412919-AED9-45FB-ADD8-4F440013F7DA";
paths = (
{
closed = 1;
nodes = (
"641 0 LINE SMOOTH",
"647 0 OFFCURVE",
"649 5 OFFCURVE",
"649 14 CURVE SMOOTH",
"649 23 OFFCURVE",
"648 28 OFFCURVE",
"641 28 CURVE SMOOTH",
"626 28 LINE SMOOTH",
"567 28 OFFCURVE",
"540 42 OFFCURVE",
"540 90 CURVE SMOOTH",
"540 635 LINE SMOOTH",
"540 682 OFFCURVE",
"564 697 OFFCURVE",
"626 697 CURVE SMOOTH",
"641 697 LINE SMOOTH",
"647 697 OFFCURVE",
"649 702 OFFCURVE",
"649 712 CURVE SMOOTH",
"649 720 OFFCURVE",
"648 726 OFFCURVE",
"641 726 CURVE SMOOTH",
"358 726 LINE SMOOTH",
"353 726 OFFCURVE",
"351 720 OFFCURVE",
"351 712 CURVE SMOOTH",
"351 702 OFFCURVE",
"353 697 OFFCURVE",
"358 697 CURVE SMOOTH",
"374 697 LINE SMOOTH",
"431 697 OFFCURVE",
"460 683 OFFCURVE",
"460 635 CURVE SMOOTH",
"460 90 LINE SMOOTH",
"460 45 OFFCURVE",
"434 28 OFFCURVE",
"374 28 CURVE SMOOTH",
"358 28 LINE SMOOTH",
"353 28 OFFCURVE",
"351 23 OFFCURVE",
"351 14 CURVE SMOOTH",
"351 5 OFFCURVE",
"353 0 OFFCURVE",
"358 0 CURVE SMOOTH"
);
}
);
width = 1000;
},
{
anchors = (
{
name = LSB;
position = "{247, 380}";
},
{
name = RSB;
position = "{753, 380}";
}
);
layerId = "3FC96813-E7C5-45AC-9F0B-5DBEB42CEC4B";
paths = (
{
closed = 1;
nodes = (
"676 0 LINE SMOOTH",
"682 0 OFFCURVE",
"683 6 OFFCURVE",
"683 11 CURVE SMOOTH",
"683 16 OFFCURVE",
"682 22 OFFCURVE",
"676 22 CURVE SMOOTH",
"666 22 LINE SMOOTH",
"635 22 OFFCURVE",
"582 31 OFFCURVE",
"582 114 CURVE SMOOTH",
"584 630 LINE SMOOTH",
"584 713 OFFCURVE",
"635 722 OFFCURVE",
"666 722 CURVE SMOOTH",
"676 722 LINE SMOOTH",
"682 722 OFFCURVE",
"683 728 OFFCURVE",
"683 733 CURVE SMOOTH",
"683 738 OFFCURVE",
"682 744 OFFCURVE",
"676 744 CURVE SMOOTH",
"324 744 LINE SMOOTH",
"318 744 OFFCURVE",
"317 738 OFFCURVE",
"317 733 CURVE SMOOTH",
"317 728 OFFCURVE",
"318 722 OFFCURVE",
"324 722 CURVE SMOOTH",
"334 722 LINE SMOOTH",
"365 722 OFFCURVE",
"417 713 OFFCURVE",
"417 630 CURVE SMOOTH",
"416 114 LINE SMOOTH",
"416 31 OFFCURVE",
"365 22 OFFCURVE",
"334 22 CURVE SMOOTH",
"324 22 LINE SMOOTH",
"318 22 OFFCURVE",
"317 16 OFFCURVE",
"317 11 CURVE SMOOTH",
"317 6 OFFCURVE",
"318 0 OFFCURVE",
"324 0 CURVE SMOOTH"
);
}
);
width = 1000;
},
{
anchors = (
{
name = LSB;
position = "{254, 380}";
},
{
name = RSB;
position = "{746, 380}";
}
);
layerId = "17F3AB05-7131-4B64-9C58-864369A22196";
paths = (
{
closed = 1;
nodes = (
"669 0 LINE SMOOTH",
"675 0 OFFCURVE",
"676 6 OFFCURVE",
"676 12 CURVE SMOOTH",
"676 17 OFFCURVE",
"675 23 OFFCURVE",
"669 23 CURVE SMOOTH",
"658 23 LINE SMOOTH",
"621 23 OFFCURVE",
"574 33 OFFCURVE",
"574 109 CURVE SMOOTH",
"575 631 LINE SMOOTH",
"575 707 OFFCURVE",
"621 717 OFFCURVE",
"658 717 CURVE SMOOTH",
"669 717 LINE SMOOTH",
"675 717 OFFCURVE",
"676 723 OFFCURVE",
"676 729 CURVE SMOOTH",
"676 734 OFFCURVE",
"675 740 OFFCURVE",
"669 740 CURVE SMOOTH",
"331 740 LINE SMOOTH",
"325 740 OFFCURVE",
"324 734 OFFCURVE",
"324 729 CURVE SMOOTH",
"324 723 OFFCURVE",
"325 717 OFFCURVE",
"331 717 CURVE SMOOTH",
"342 717 LINE SMOOTH",
"378 717 OFFCURVE",
"426 707 OFFCURVE",
"426 631 CURVE SMOOTH",
"425 109 LINE SMOOTH",
"425 34 OFFCURVE",
"379 23 OFFCURVE",
"342 23 CURVE SMOOTH",
"331 23 LINE SMOOTH",
"325 23 OFFCURVE",
"324 17 OFFCURVE",
"324 12 CURVE SMOOTH",
"324 6 OFFCURVE",
"325 0 OFFCURVE",
"331 0 CURVE SMOOTH"
);
}
);
width = 1000;
}
);
unicode = FF29;
},
{
glyphname = J.full;
lastChange = "2020-06-21 16:35:09 +0000";
layers = (
{
anchors = (
{
name = LSB;
position = "{180.328, 380}";
},
{
name = RSB;
position = "{720, 380}";
}
);
layerId = "69412919-AED9-45FB-ADD8-4F440013F7DA";
paths = (
{
closed = 1;
nodes = (
"422 -165 OFFCURVE",
"539 -128 OFFCURVE",
"541 54 CURVE SMOOTH",
"542 151 OFFCURVE",
"540 635 OFFCURVE",
"540 635 CURVE",
"540 682 OFFCURVE",
"568 697 OFFCURVE",
"627 697 CURVE SMOOTH",
"642 697 LINE SMOOTH",
"647 697 OFFCURVE",
"650 702 OFFCURVE",
"650 712 CURVE SMOOTH",
"650 720 OFFCURVE",
"648 726 OFFCURVE",
"642 726 CURVE SMOOTH",
"359 726 LINE SMOOTH",
"354 726 OFFCURVE",
"352 720 OFFCURVE",
"352 712 CURVE SMOOTH",
"352 702 OFFCURVE",
"354 697 OFFCURVE",
"359 697 CURVE SMOOTH",
"374 697 LINE SMOOTH",
"429 697 OFFCURVE",
"461 685 OFFCURVE",
"461 635 CURVE SMOOTH",
"461 40 LINE SMOOTH",
"461 -30 OFFCURVE",
"453 -118 OFFCURVE",
"406 -118 CURVE SMOOTH",
"394 -118 OFFCURVE",
"381 -112 OFFCURVE",
"370 -102 CURVE SMOOTH",
"362 -95 OFFCURVE",
"346 -78 OFFCURVE",
"337 -71 CURVE SMOOTH",
"316 -55 OFFCURVE",
"302 -50 OFFCURVE",
"287 -50 CURVE SMOOTH",
"270 -50 OFFCURVE",
"246 -68 OFFCURVE",
"251 -100 CURVE SMOOTH",
"256 -135 OFFCURVE",
"301 -165 OFFCURVE",
"356 -165 CURVE SMOOTH"
);
}
);
width = 1000;
},
{
anchors = (
{
name = LSB;
position = "{100, 380}";
},
{
name = RSB;
position = "{772, 380}";
}
);
layerId = "3FC96813-E7C5-45AC-9F0B-5DBEB42CEC4B";
paths = (
{
closed = 1;
nodes = (
"417 -173 OFFCURVE",
"600 -108 OFFCURVE",
"603 147 CURVE SMOOTH",
"606 402 OFFCURVE",
"603 629 OFFCURVE",
"603 629 CURVE",
"603 712 OFFCURVE",
"655 721 OFFCURVE",
"685 721 CURVE SMOOTH",
"695 721 LINE SMOOTH",
"701 721 OFFCURVE",
"702 726 OFFCURVE",
"702 732 CURVE SMOOTH",
"702 737 OFFCURVE",
"701 743 OFFCURVE",
"695 743 CURVE SMOOTH",
"343 743 LINE SMOOTH",
"337 743 OFFCURVE",
"336 737 OFFCURVE",
"336 732 CURVE SMOOTH",
"336 726 OFFCURVE",
"337 721 OFFCURVE",
"343 721 CURVE SMOOTH",
"354 721 LINE SMOOTH",
"384 721 OFFCURVE",
"437 712 OFFCURVE",
"437 629 CURVE SMOOTH",
"437 166 LINE SMOOTH",
"437 -59 OFFCURVE",
"414 -116 OFFCURVE",
"375 -127 CURVE SMOOTH",
"357 -132 OFFCURVE",
"343 -111 OFFCURVE",
"324 -87 CURVE SMOOTH",
"313 -73 OFFCURVE",
"293 -48 OFFCURVE",
"281 -37 CURVE SMOOTH",
"261 -18 OFFCURVE",
"242 -12 OFFCURVE",
"224 -12 CURVE SMOOTH",
"196 -12 OFFCURVE",
"170 -32 OFFCURVE",
"170 -69 CURVE SMOOTH",
"170 -124 OFFCURVE",
"240 -173 OFFCURVE",
"324 -173 CURVE SMOOTH"
);
}
);
width = 1000;
},
{
anchors = (
{
name = LSB;
position = "{116, 380}";
},
{
name = RSB;
position = "{762, 380}";
}
);
layerId = "17F3AB05-7131-4B64-9C58-864369A22196";
paths = (
{
closed = 1;
nodes = (
"418 -171 OFFCURVE",
"588 -112 OFFCURVE",
"591 128 CURVE SMOOTH",
"593 352 OFFCURVE",
"590 630 OFFCURVE",
"590 630 CURVE",
"590 706 OFFCURVE",
"638 716 OFFCURVE",
"673 716 CURVE SMOOTH",
"684 716 LINE SMOOTH",
"690 716 OFFCURVE",
"692 721 OFFCURVE",
"692 728 CURVE SMOOTH",
"692 734 OFFCURVE",
"690 740 OFFCURVE",
"684 740 CURVE SMOOTH",
"346 740 LINE SMOOTH",
"340 740 OFFCURVE",
"339 734 OFFCURVE",
"339 728 CURVE SMOOTH",
"339 721 OFFCURVE",
"340 716 OFFCURVE",
"346 716 CURVE SMOOTH",
"358 716 LINE SMOOTH",
"393 716 OFFCURVE",
"442 707 OFFCURVE",
"442 630 CURVE SMOOTH",
"442 141 LINE SMOOTH",
"442 -53 OFFCURVE",
"422 -116 OFFCURVE",
"381 -125 CURVE SMOOTH",
"364 -129 OFFCURVE",
"351 -111 OFFCURVE",
"333 -90 CURVE SMOOTH",
"323 -77 OFFCURVE",
"304 -54 OFFCURVE",
"292 -44 CURVE SMOOTH",
"272 -25 OFFCURVE",
"254 -20 OFFCURVE",
"237 -20 CURVE SMOOTH",
"211 -20 OFFCURVE",
"185 -39 OFFCURVE",
"186 -75 CURVE SMOOTH",
"187 -126 OFFCURVE",
"252 -171 OFFCURVE",
"330 -171 CURVE SMOOTH"
);
}
);
width = 1000;
}
);
unicode = FF2A;
},
{
glyphname = K.full;
lastChange = "2020-06-21 16:35:09 +0000";
layers = (
{
anchors = (
{
name = LSB;
position = "{56, 380}";
},
{
name = RSB;
position = "{943, 380}";
}
);
layerId = "69412919-AED9-45FB-ADD8-4F440013F7DA";
paths = (
{
closed = 1;
nodes = (
"396 360 OFFCURVE",
"661 619 OFFCURVE",
"678 634 CURVE",
"731 683 OFFCURVE",
"779 697 OFFCURVE",
"816 697 CURVE",
"822 697 OFFCURVE",
"824 702 OFFCURVE",
"824 712 CURVE",
"824 721 OFFCURVE",
"823 726 OFFCURVE",
"816 726 CURVE",
"557 726 LINE",
"552 726 OFFCURVE",
"549 721 OFFCURVE",
"549 712 CURVE",
"549 702 OFFCURVE",
"552 697 OFFCURVE",
"557 697 CURVE",
"623 697 OFFCURVE",
"643 662 OFFCURVE",
"611 628 CURVE",
"579 595 OFFCURVE",
"397 413 OFFCURVE",
"274 291 CURVE",
"274 239 LINE"
);
},
{
closed = 1;
nodes = (
"417 0 LINE",
"422 0 OFFCURVE",
"424 7 OFFCURVE",
"424 15 CURVE",
"424 24 OFFCURVE",
"422 29 OFFCURVE",
"417 29 CURVE",
"400 29 LINE",
"342 29 OFFCURVE",
"315 43 OFFCURVE",
"315 91 CURVE",
"315 635 LINE",
"315 682 OFFCURVE",
"339 697 OFFCURVE",
"400 697 CURVE",
"417 697 LINE",
"422 697 OFFCURVE",
"424 702 OFFCURVE",
"424 712 CURVE",
"424 721 OFFCURVE",
"422 726 OFFCURVE",
"417 726 CURVE",
"133 726 LINE",
"127 726 OFFCURVE",
"126 721 OFFCURVE",
"126 712 CURVE",
"126 702 OFFCURVE",
"127 697 OFFCURVE",
"133 697 CURVE",
"148 697 LINE",
"206 697 OFFCURVE",
"234 684 OFFCURVE",
"234 635 CURVE",
"234 91 LINE",
"234 45 OFFCURVE",
"209 29 OFFCURVE",
"148 29 CURVE",
"133 29 LINE",
"127 29 OFFCURVE",
"126 24 OFFCURVE",
"126 15 CURVE",
"126 7 OFFCURVE",
"127 0 OFFCURVE",
"133 0 CURVE"
);
},
{
closed = 1;
nodes = (
"866 0 LINE",
"872 0 OFFCURVE",
"873 7 OFFCURVE",
"873 15 CURVE",
"873 24 OFFCURVE",
"872 29 OFFCURVE",
"866 29 CURVE",
"807 29 OFFCURVE",
"775 48 OFFCURVE",
"722 110 CURVE",
"668 171 OFFCURVE",
"447 438 OFFCURVE",
"447 438 CURVE",
"390 378 LINE",
"390 378 OFFCURVE",
"593 138 OFFCURVE",
"633 90 CURVE",
"672 42 OFFCURVE",
"629 29 OFFCURVE",
"567 29 CURVE",
"562 29 OFFCURVE",
"560 24 OFFCURVE",
"560 15 CURVE",
"560 7 OFFCURVE",
"561 0 OFFCURVE",
"567 0 CURVE"
);
}
);
width = 1000;
},
{
anchors = (
{
name = LSB;
position = "{17, 380}";
},
{
name = RSB;
position = "{982, 380}";
}
);
layerId = "3FC96813-E7C5-45AC-9F0B-5DBEB42CEC4B";
paths = (
{
closed = 1;
nodes = (
"265 206 OFFCURVE",
"618 590 OFFCURVE",
"670 639 CURVE",
"735 700 OFFCURVE",
"803 723 OFFCURVE",
"866 723 CURVE",
"872 723 OFFCURVE",
"874 727 OFFCURVE",
"874 734 CURVE",
"874 740 OFFCURVE",
"872 744 OFFCURVE",
"866 744 CURVE",
"547 744 LINE",
"541 744 OFFCURVE",
"540 738 OFFCURVE",
"540 734 CURVE",
"540 729 OFFCURVE",
"541 723 OFFCURVE",
"547 723 CURVE",
"615 723 OFFCURVE",
"654 693 OFFCURVE",
"616 644 CURVE",
"583 603 OFFCURVE",
"265 259 OFFCURVE",
"265 259 CURVE",
"265 206 LINE"
);
},
{
closed = 1;
nodes = (
"446 0 LINE",
"452 0 OFFCURVE",
"453 6 OFFCURVE",
"453 11 CURVE",
"453 16 OFFCURVE",
"452 21 OFFCURVE",
"446 21 CURVE",
"436 21 LINE",
"405 21 OFFCURVE",
"353 31 OFFCURVE",
"353 114 CURVE",
"354 630 LINE",
"354 713 OFFCURVE",
"405 722 OFFCURVE",
"436 722 CURVE",
"446 722 LINE",
"452 722 OFFCURVE",
"453 727 OFFCURVE",
"453 733 CURVE",
"453 738 OFFCURVE",
"452 744 OFFCURVE",
"446 744 CURVE",
"94 744 LINE",
"88 744 OFFCURVE",
"87 738 OFFCURVE",
"87 733 CURVE",
"87 727 OFFCURVE",
"88 722 OFFCURVE",
"94 722 CURVE",
"105 722 LINE",
"135 722 OFFCURVE",
"188 713 OFFCURVE",
"188 630 CURVE",
"187 114 LINE",
"187 31 OFFCURVE",
"135 21 OFFCURVE",
"105 21 CURVE",
"94 21 LINE",
"88 21 OFFCURVE",
"87 16 OFFCURVE",
"87 11 CURVE",
"87 6 OFFCURVE",
"88 0 OFFCURVE",
"94 0 CURVE"
);
},
{
closed = 1;
nodes = (
"905 0 LINE",
"910 0 OFFCURVE",
"912 6 OFFCURVE",
"912 10 CURVE",
"912 15 OFFCURVE",
"911 21 OFFCURVE",
"905 21 CURVE",
"831 21 OFFCURVE",
"814 57 OFFCURVE",
"762 122 CURVE",
"741 148 OFFCURVE",
"505 489 OFFCURVE",
"505 489 CURVE",
"389 366 LINE",
"389 366 OFFCURVE",
"555 137 OFFCURVE",
"571 114 CURVE",
"616 48 OFFCURVE",
"606 21 OFFCURVE",
"546 21 CURVE",
"540 21 OFFCURVE",
"538 17 OFFCURVE",
"538 10 CURVE",
"538 4 OFFCURVE",
"540 0 OFFCURVE",
"546 0 CURVE"
);
}
);
width = 1000;
},
{
anchors = (
{
name = LSB;
position = "{25, 380}";
},
{
name = RSB;
position = "{974, 380}";
}
);
layerId = "17F3AB05-7131-4B64-9C58-864369A22196";
paths = (
{
closed = 1;
nodes = (
"291 237 OFFCURVE",
"627 596 OFFCURVE",
"672 638 CURVE",
"734 697 OFFCURVE",
"798 718 OFFCURVE",
"856 718 CURVE",
"862 718 OFFCURVE",
"864 722 OFFCURVE",
"864 730 CURVE",
"864 736 OFFCURVE",
"862 740 OFFCURVE",
"856 740 CURVE",
"549 740 LINE",
"543 740 OFFCURVE",
"542 735 OFFCURVE",
"542 730 CURVE",
"542 724 OFFCURVE",
"543 718 OFFCURVE",
"549 718 CURVE",
"617 718 OFFCURVE",
"652 687 OFFCURVE",
"615 641 CURVE",
"582 601 OFFCURVE",
"291 290 OFFCURVE",
"267 265 CURVE",
"267 213 LINE"
);
},
{
closed = 1;
nodes = (
"440 0 LINE",
"446 0 OFFCURVE",
"447 6 OFFCURVE",
"447 12 CURVE",
"447 18 OFFCURVE",
"446 23 OFFCURVE",
"440 23 CURVE",
"429 23 LINE",
"392 23 OFFCURVE",
"345 33 OFFCURVE",
"345 109 CURVE",
"346 631 LINE",
"346 707 OFFCURVE",
"392 717 OFFCURVE",
"429 717 CURVE",
"440 717 LINE",
"446 717 OFFCURVE",
"447 722 OFFCURVE",
"447 729 CURVE",
"447 735 OFFCURVE",
"446 740 OFFCURVE",
"440 740 CURVE",
"102 740 LINE",
"96 740 OFFCURVE",
"95 735 OFFCURVE",
"95 729 CURVE",
"95 722 OFFCURVE",
"96 717 OFFCURVE",
"102 717 CURVE",
"114 717 LINE",
"149 717 OFFCURVE",
"197 707 OFFCURVE",
"197 631 CURVE",
"196 109 LINE",
"196 34 OFFCURVE",
"150 23 OFFCURVE",
"114 23 CURVE",
"102 23 LINE",
"96 23 OFFCURVE",
"95 18 OFFCURVE",
"95 12 CURVE",
"95 6 OFFCURVE",
"96 0 OFFCURVE",
"102 0 CURVE"
);
},
{
closed = 1;
nodes = (
"897 0 LINE",
"902 0 OFFCURVE",
"904 6 OFFCURVE",
"904 11 CURVE",
"904 17 OFFCURVE",
"903 23 OFFCURVE",
"897 23 CURVE",
"826 23 OFFCURVE",
"806 55 OFFCURVE",
"754 120 CURVE",
"726 153 OFFCURVE",
"493 479 OFFCURVE",
"493 479 CURVE",
"389 368 LINE",
"389 368 OFFCURVE",
"563 137 OFFCURVE",
"583 109 CURVE",
"627 47 OFFCURVE",
"611 23 OFFCURVE",
"550 23 CURVE",
"544 23 OFFCURVE",
"542 18 OFFCURVE",
"542 11 CURVE",
"542 5 OFFCURVE",
"544 0 OFFCURVE",
"550 0 CURVE"
);
}
);
width = 1000;
}
);
unicode = FF2B;
},
{
glyphname = L.full;
lastChange = "2020-06-21 16:35:09 +0000";
layers = (
{
anchors = (
{
name = LSB;
position = "{126, 380}";
},
{
name = RSB;
position = "{874.02, 380}";
}
);
layerId = "69412919-AED9-45FB-ADD8-4F440013F7DA";
paths = (
{
closed = 1;
nodes = (
"743 0 LINE",
"763 57 OFFCURVE",
"781 100 OFFCURVE",
"803 161 CURVE",
"806 167 OFFCURVE",
"802 173 OFFCURVE",
"796 176 CURVE",
"788 180 OFFCURVE",
"783 179 OFFCURVE",
"779 174 CURVE",
"730 105 OFFCURVE",
"666 33 OFFCURVE",
"535 30 CURVE",
"496 29 OFFCURVE",
"487 29 OFFCURVE",
"472 30 CURVE",
"416 33 OFFCURVE",
"385 42 OFFCURVE",
"385 91 CURVE",
"385 635 LINE",
"385 681 OFFCURVE",
"413 697 OFFCURVE",
"472 697 CURVE",
"487 697 LINE",
"492 697 OFFCURVE",
"494 702 OFFCURVE",
"494 711 CURVE",
"494 720 OFFCURVE",
"493 726 OFFCURVE",
"487 726 CURVE",
"203 726 LINE",
"198 726 OFFCURVE",
"196 720 OFFCURVE",
"196 711 CURVE",
"196 702 OFFCURVE",
"197 697 OFFCURVE",
"203 697 CURVE",
"219 697 LINE",
"274 697 OFFCURVE",
"305 684 OFFCURVE",
"305 635 CURVE",
"305 91 LINE",
"305 43 OFFCURVE",
"278 29 OFFCURVE",
"219 29 CURVE",
"203 29 LINE",
"198 29 OFFCURVE",
"196 24 OFFCURVE",
"196 14 CURVE",
"196 5 OFFCURVE",
"197 0 OFFCURVE",
"203 0 CURVE"
);
}
);
width = 1000;
},
{
anchors = (
{
name = LSB;
position = "{85, 380}";
},
{
name = RSB;
position = "{914.197, 380}";
}
);
layerId = "3FC96813-E7C5-45AC-9F0B-5DBEB42CEC4B";
paths = (
{
closed = 1;
nodes = (
"769 0 LINE",
"790 59 OFFCURVE",
"825 152 OFFCURVE",
"843 202 CURVE",
"846 207 OFFCURVE",
"843 212 OFFCURVE",
"838 215 CURVE",
"832 218 OFFCURVE",
"827 217 OFFCURVE",
"823 213 CURVE",
"784 157 OFFCURVE",
"693 37 OFFCURVE",
"557 30 CURVE",
"531 28 OFFCURVE",
"533 28 OFFCURVE",
"511 30 CURVE",
"457 33 OFFCURVE",
"422 42 OFFCURVE",
"422 93 CURVE",
"422 631 LINE",
"422 714 OFFCURVE",
"474 723 OFFCURVE",
"505 723 CURVE",
"515 723 LINE",
"521 723 OFFCURVE",
"522 727 OFFCURVE",
"522 733 CURVE",
"522 740 OFFCURVE",
"521 744 OFFCURVE",
"515 744 CURVE",
"162 744 LINE",
"157 744 OFFCURVE",
"155 740 OFFCURVE",
"155 734 CURVE",
"155 727 OFFCURVE",
"156 723 OFFCURVE",
"162 723 CURVE",
"173 723 LINE",
"203 723 OFFCURVE",
"256 714 OFFCURVE",
"256 631 CURVE",
"256 113 LINE",
"256 30 OFFCURVE",
"203 21 OFFCURVE",
"173 21 CURVE",
"162 21 LINE",
"157 21 OFFCURVE",
"155 17 OFFCURVE",
"155 11 CURVE",
"155 4 OFFCURVE",
"156 0 OFFCURVE",
"162 0 CURVE"
);
}
);
width = 1000;
},
{
anchors = (
{
name = LSB;
position = "{93, 380}";
},
{
name = RSB;
position = "{906, 380}";
}
);
layerId = "17F3AB05-7131-4B64-9C58-864369A22196";
paths = (
{
closed = 1;
nodes = (
"764 0 LINE",
"785 59 OFFCURVE",
"816 142 OFFCURVE",
"835 194 CURVE",
"838 199 OFFCURVE",
"835 204 OFFCURVE",
"830 207 CURVE",
"823 210 OFFCURVE",
"818 209 OFFCURVE",
"814 205 CURVE",
"773 147 OFFCURVE",
"688 36 OFFCURVE",
"553 30 CURVE",
"524 28 OFFCURVE",
"524 28 OFFCURVE",
"503 30 CURVE",
"449 33 OFFCURVE",
"415 42 OFFCURVE",
"415 93 CURVE",
"415 632 LINE",
"415 707 OFFCURVE",
"462 718 OFFCURVE",
"498 718 CURVE",
"509 718 LINE",
"515 718 OFFCURVE",
"516 722 OFFCURVE",
"516 729 CURVE",
"516 736 OFFCURVE",
"515 740 OFFCURVE",
"509 740 CURVE",
"170 740 LINE",
"165 740 OFFCURVE",
"163 736 OFFCURVE",
"163 729 CURVE",
"163 722 OFFCURVE",
"164 718 OFFCURVE",
"170 718 CURVE",
"182 718 LINE",
"217 718 OFFCURVE",
"266 708 OFFCURVE",
"266 632 CURVE",
"266 109 LINE",
"266 33 OFFCURVE",
"218 23 OFFCURVE",
"182 23 CURVE",
"170 23 LINE",
"165 23 OFFCURVE",
"163 18 OFFCURVE",
"163 12 CURVE",
"163 4 OFFCURVE",
"164 0 OFFCURVE",
"170 0 CURVE"
);
}
);
width = 1000;
}
);
unicode = FF2C;
},
